SplineFontDB: 3.0
FontName: ConsolaMono-Bold
FullName: Consola Mono Bold
FamilyName: Consola Mono
Weight: Bold
Copyright: Copyright (c) 2013, wmk69 (wmk69@o2.pl)\nwith Reserved Font Names 'ConsolaMono' and 'Consola Mono Bold'.\n\nThis Font Software is licensed under the SIL Open Font License, Version 1.1.\nThis license is available with a FAQ at:\nhttp://scripts.sil.org/OFL
Version: 2.001
ItalicAngle: 0
UnderlinePosition: -81
UnderlineWidth: 122
Ascent: 1638
Descent: 410
LayerCount: 2
Layer: 0 1 "Warstwa t+AUIA-a"  1
Layer: 1 1 "Plan pierwszy"  0
NeedsXUIDChange: 1
XUID: [1021 783 23647091 9296189]
FSType: 0
OS2Version: 3
OS2_WeightWidthSlopeOnly: 0
OS2_UseTypoMetrics: 1
CreationTime: 1260698820
ModificationTime: 1359296495
PfmFamily: 49
TTFWeight: 700
TTFWidth: 5
LineGap: 0
VLineGap: 0
Panose: 2 13 8 9 2 4 4 6 2 4
OS2TypoAscent: 2323
OS2TypoAOffset: 0
OS2TypoDescent: -481
OS2TypoDOffset: 0
OS2TypoLinegap: 0
OS2WinAscent: 2323
OS2WinAOffset: 0
OS2WinDescent: 481
OS2WinDOffset: 0
HheadAscent: 2323
HheadAOffset: 0
HheadDescent: -481
HheadDOffset: 0
OS2SubXSize: 1434
OS2SubYSize: 1331
OS2SubXOff: 0
OS2SubYOff: 287
OS2SupXSize: 1434
OS2SupYSize: 1331
OS2SupXOff: 0
OS2SupYOff: 977
OS2StrikeYSize: 102
OS2StrikeYPos: 512
OS2Vendor: '    '
OS2CodePages: 20000093.00000000
OS2UnicodeRanges: 8000002f.4000204b.00000000.00000000
MarkAttachClasses: 1
DEI: 91125
ShortTable: maxp 16
  0
  0
  0
  0
  0
  0
  0
  2
  1
  2
  22
  0
  256
  0
  0
  0
EndShort
TtTable: prep
PUSHW_1
 511
SCANCTRL
PUSHB_1
 1
SCANTYPE
SVTCA[y-axis]
MPPEM
PUSHB_1
 8
LT
IF
PUSHB_2
 1
 1
INSTCTRL
EIF
PUSHB_2
 70
 6
CALL
IF
POP
PUSHB_1
 16
EIF
MPPEM
PUSHB_1
 20
GT
IF
POP
PUSHB_1
 128
EIF
SCVTCI
PUSHB_1
 6
CALL
NOT
IF
SVTCA[y-axis]
PUSHB_1
 4
DUP
RCVT
PUSHB_1
 3
CALL
WCVTP
PUSHB_1
 5
DUP
RCVT
PUSHB_3
 4
 160
 2
CALL
PUSHB_1
 3
CALL
WCVTP
SVTCA[x-axis]
PUSHB_1
 6
DUP
RCVT
PUSHB_1
 3
CALL
WCVTP
PUSHB_1
 7
DUP
RCVT
PUSHW_3
 6
 32767
 2
CALL
PUSHB_2
 3
 70
SROUND
CALL
WCVTP
EIF
PUSHB_1
 20
CALL
EndTTInstrs

StartChar: .notdef
Encoding: 65536 -1 0
Width: 1200
Flags: W
HStem: 0 68<268 932> 1432 68<268 932>
VStem: 200 68<68 1432> 932 68<68 1432>
LayerCount: 2
Fore
SplineSet
200 0 m 1,0,-1
 200 1500 l 1,1,-1
 1000 1500 l 1,2,-1
 1000 0 l 1,3,-1
 200 0 l 1,0,-1
268 68 m 1,4,-1
 932 68 l 1,5,-1
 932 1432 l 1,6,-1
 268 1432 l 1,7,-1
 268 68 l 1,4,-1
EndSplineSet
Validated: 1
EndChar

StartChar: exclam
Encoding: 33 33 4
Width: 1200
GlyphClass: 2
Flags: W
HStem: -20 354<481.699 718.173> 1480 20G<445 755>
VStem: 421 358<40.9434 273.708> 445 310<1095.01 1500> 485 230<370 774.992>
LayerCount: 2
Fore
SplineSet
600 -20 m 0,0,1
 526 -20 526 -20 475 29 c 0,2,3
 421 81 421 81 421 157 c 128,-1,4
 421 233 421 233 475 284 c 0,5,6
 528 334 528 334 600 334 c 0,7,8
 677 334 677 334 726 284 c 0,9,10
 779 230 779 230 779 157 c 0,11,12
 779 83 779 83 725 31 c 0,13,14
 673 -20 673 -20 600 -20 c 0,0,1
445 1500 m 1,15,-1
 755 1500 l 1,16,-1
 715 370 l 1,17,-1
 485 370 l 1,18,-1
 445 1500 l 1,15,-1
EndSplineSet
Validated: 1
EndChar

StartChar: quotedbl
Encoding: 34 34 5
Width: 1200
GlyphClass: 2
Flags: W
HStem: 926 574<305 523 677 895>
VStem: 305 218<926 1200.3> 677 218<926 1200.3>
LayerCount: 2
Fore
SplineSet
647 1500 m 1,0,-1
 925 1500 l 1,1,-1
 895 926 l 1,2,-1
 677 926 l 1,3,-1
 647 1500 l 1,0,-1
275 1500 m 1,4,-1
 553 1500 l 1,5,-1
 523 926 l 1,6,-1
 305 926 l 1,7,-1
 275 1500 l 1,4,-1
EndSplineSet
Validated: 1
EndChar

StartChar: numbersign
Encoding: 35 35 6
Width: 1200
GlyphClass: 2
Flags: W
HStem: 425 240<96 280 520 690 930 1104> 835 240<96 280 520 690 930 1104>
VStem: 280 240<78 425 665 835 1075 1422> 690 240<78 425 665 835 1075 1422>
LayerCount: 2
Fore
SplineSet
280 78 m 1,0,-1
 280 425 l 1,1,-1
 96 425 l 1,2,-1
 96 665 l 1,3,-1
 280 665 l 1,4,-1
 280 835 l 1,5,-1
 96 835 l 1,6,-1
 96 1075 l 1,7,-1
 280 1075 l 1,8,-1
 280 1422 l 1,9,-1
 520 1422 l 1,10,-1
 520 1075 l 1,11,-1
 690 1075 l 1,12,-1
 690 1422 l 1,13,-1
 930 1422 l 1,14,-1
 930 1075 l 1,15,-1
 1104 1075 l 1,16,-1
 1104 835 l 1,17,-1
 930 835 l 1,18,-1
 930 665 l 1,19,-1
 1104 665 l 1,20,-1
 1104 425 l 1,21,-1
 930 425 l 1,22,-1
 930 78 l 1,23,-1
 690 78 l 1,24,-1
 690 425 l 1,25,-1
 520 425 l 1,26,-1
 520 78 l 1,27,-1
 280 78 l 1,0,-1
520 665 m 1,28,-1
 690 665 l 1,29,-1
 690 835 l 1,30,-1
 520 835 l 1,31,-1
 520 665 l 1,28,-1
EndSplineSet
Validated: 1
EndChar

StartChar: dollar
Encoding: 36 36 7
Width: 1200
GlyphClass: 2
Flags: W
VStem: 105 270<311.166 479> 153 263<1029.3 1227.06> 525 150<-257 -10.3809 235 628 994 1256 1509.42 1760> 771 258<1098 1217.49> 825 270<309.873 563.014>
LayerCount: 2
Fore
SplineSet
675 -259 m 1,0,-1
 525 -257 l 1,1,-1
 525 -16 l 1,2,3
 337 4 337 4 226 128 c 0,4,5
 105 263 105 263 105 479 c 1,6,-1
 375 479 l 1,7,8
 375 365 375 365 427 300 c 0,9,10
 466 251 466 251 525 233 c 1,11,-1
 525 699 l 1,12,-1
 368 773 l 2,13,14
 153 874 153 874 153 1125 c 0,15,16
 153 1295 153 1295 278 1407 c 0,17,18
 381 1499 381 1499 525 1516 c 1,19,-1
 525 1760 l 1,20,-1
 675 1760 l 1,21,-1
 675 1514 l 1,22,23
 810 1493 810 1493 908 1399 c 0,24,25
 1029 1284 1029 1284 1029 1098 c 1,26,-1
 771 1098 l 1,27,28
 770 1177 770 1177 721 1224 c 0,29,30
 700 1244 700 1244 675 1256 c 1,31,-1
 675 924 l 1,32,-1
 815 859 l 2,33,34
 1095 729 1095 729 1095 447 c 0,35,36
 1095 262 1095 262 965 125 c 0,37,38
 851 5 851 5 675 -16 c 1,39,-1
 675 -259 l 1,0,-1
525 994 m 1,40,-1
 525 1265 l 1,41,42
 492 1254 492 1254 464 1231 c 0,43,44
 416 1192 416 1192 416 1134 c 0,45,46
 416 1044 416 1044 494 1008 c 2,47,-1
 525 994 l 1,40,-1
675 628 m 1,48,-1
 675 235 l 1,49,50
 734 253 734 253 773 300 c 0,51,52
 825 363 825 363 825 444 c 0,53,54
 825 557 825 557 720 607 c 2,55,-1
 675 628 l 1,48,-1
EndSplineSet
Validated: 1
EndChar

StartChar: percent
Encoding: 37 37 8
Width: 1200
GlyphClass: 2
Flags: W
HStem: -20 190<777.444 940.359> 384 189<776.143 939.654> 927 190<259.444 422.359> 1331 189<258.143 421.654>
VStem: 40 193<1143.72 1307.03> 448 194<1144.86 1304.99> 558 193<196.719 360.025> 966 194<197.861 357.991>
DStem2: 21 253 215 86 0.642739 0.766086<0 1496.59>
LayerCount: 2
Fore
SplineSet
341 1331 m 128,-1,1
 293 1331 293 1331 264 1303 c 0,2,3
 233 1273 233 1273 233 1224 c 0,4,5
 233 1180 233 1180 263 1149 c 0,6,7
 295 1117 295 1117 340 1117 c 128,-1,8
 385 1117 385 1117 419 1151 c 0,9,10
 448 1180 448 1180 448 1224 c 0,11,12
 448 1267 448 1267 418.5 1299 c 128,-1,0
 389 1331 389 1331 341 1331 c 128,-1,1
341 927 m 0,13,14
 214 927 214 927 127 1016 c 128,-1,15
 40 1105 40 1105 40 1229 c 0,16,17
 40 1345 40 1345 127 1432.5 c 128,-1,18
 214 1520 214 1520 341 1520 c 0,19,20
 465 1520 465 1520 555 1433 c 0,21,22
 642 1349 642 1349 642 1224 c 0,23,24
 642 1096 642 1096 556 1013 c 0,25,26
 467 927 467 927 341 927 c 0,13,14
859 384 m 128,-1,28
 811 384 811 384 782 356 c 0,29,30
 751 326 751 326 751 277 c 0,31,32
 751 233 751 233 781 202 c 0,33,34
 813 170 813 170 858 170 c 128,-1,35
 903 170 903 170 937 204 c 0,36,37
 966 233 966 233 966 277 c 0,38,39
 966 320 966 320 936.5 352 c 128,-1,27
 907 384 907 384 859 384 c 128,-1,28
859 -20 m 0,40,41
 732 -20 732 -20 645 69 c 128,-1,42
 558 158 558 158 558 282 c 0,43,44
 558 398 558 398 645 485.5 c 128,-1,45
 732 573 732 573 859 573 c 0,46,47
 983 573 983 573 1073 486 c 0,48,49
 1160 402 1160 402 1160 277 c 0,50,51
 1160 149 1160 149 1074 66 c 0,52,53
 985 -20 985 -20 859 -20 c 0,40,41
985 1402 m 1,54,-1
 1179 1235 l 1,55,-1
 215 86 l 1,56,-1
 21 253 l 1,57,-1
 985 1402 l 1,54,-1
EndSplineSet
Validated: 1
EndChar

StartChar: ampersand
Encoding: 38 38 9
Width: 1200
GlyphClass: 2
Flags: W
HStem: -20 243<386.174 644.906> 0 21G<903.903 1200> 1275 245<406.13 648.265>
VStem: 23 270<319.445 631.719> 89 259<971.346 1218.78> 707 258<1098 1217.03> 871 270<543.99 921>
DStem2: 626 921 473 728 0.528922 -0.848671<73.0042 445.217 790.109 935.013>
LayerCount: 2
Fore
SplineSet
1200 0 m 1,0,-1
 916 0 l 1,1,-1
 841 124 l 1,2,3
 690 -20 690 -20 518 -20 c 0,4,5
 284 -20 284 -20 149 124 c 0,6,7
 23 258 23 258 23 451 c 0,8,9
 23 571 23 571 78 666 c 128,-1,10
 133 761 133 761 239 824 c 1,11,12
 89 932 89 932 89 1121 c 0,13,14
 89 1293 89 1293 214 1406 c 0,15,16
 340 1520 340 1520 529 1520 c 128,-1,17
 718 1520 718 1520 844 1399 c 0,18,19
 965 1283 965 1283 965 1098 c 9,20,-1
 707 1098 l 17,21,22
 706 1178 706 1178 657 1224 c 0,23,24
 604 1275 604 1275 527 1275 c 0,25,26
 460 1275 460 1275 404 1230 c 128,-1,27
 348 1185 348 1185 348 1096 c 0,28,29
 348 1011 348 1011 404 960 c 0,30,31
 448 921 448 921 626 921 c 1,32,-1
 850 536 l 1,33,34
 871 622 871 622 871 742 c 0,35,36
 871 781 871 781 859 921 c 1,37,-1
 1141 921 l 1,38,39
 1141 529 1141 529 1004 310 c 1,40,-1
 1200 0 l 1,0,-1
473 728 m 1,41,42
 401 709 401 709 362 664 c 0,43,44
 293 585 293 585 293 480 c 0,45,46
 293 377 293 377 345 308 c 0,47,48
 409 223 409 223 518 223 c 0,49,50
 619 223 619 223 716 329 c 1,51,-1
 473 728 l 1,41,42
EndSplineSet
Validated: 1
EndChar

StartChar: quotesingle
Encoding: 39 39 10
Width: 1200
GlyphClass: 2
Flags: W
HStem: 926 574<491 709>
VStem: 491 218<926 1200.3>
LayerCount: 2
Fore
SplineSet
461 1500 m 1,0,-1
 739 1500 l 1,1,-1
 709 926 l 1,2,-1
 491 926 l 1,3,-1
 461 1500 l 1,0,-1
EndSplineSet
Validated: 1
EndChar

StartChar: parenleft
Encoding: 40 40 11
Width: 1200
GlyphClass: 2
Flags: W
VStem: 309 262<378.835 1122.19>
LayerCount: 2
Fore
SplineSet
634 1760 m 1,0,1
 891 1760 l 1,2,3
 727 1527 727 1527 644 1252 c 0,4,5
 571 1011 571 1011 571 750 c 0,6,7
 571 486 571 486 644 247 c 0,8,9
 726 -21 726 -21 891 -260 c 1,10,-1
 634 -260 l 1,11,12
 462 19 462 19 386 259 c 0,13,14
 309 505 309 505 309 750 c 0,15,16
 309 1005 309 1005 386 1241 c 0,17,18
 467 1489 467 1489 634 1760 c 1,0,1
EndSplineSet
Validated: 1
EndChar

StartChar: parenright
Encoding: 41 41 12
Width: 1200
GlyphClass: 2
Flags: W
VStem: 629 262<381.261 1122.19>
LayerCount: 2
Fore
SplineSet
309 1760 m 1,0,-1
 566 1760 l 1,1,2
 733 1489 733 1489 814 1241 c 0,3,4
 891 1005 891 1005 891 750 c 0,5,6
 891 505 891 505 814 259 c 0,7,8
 738 19 738 19 566 -260 c 1,9,-1
 309 -260 l 1,10,11
 470 -26 470 -26 556 247 c 0,12,13
 629 479 629 479 629 750 c 0,14,15
 629 1011 629 1011 556 1252 c 0,16,17
 472 1528 472 1528 309 1760 c 1,0,-1
EndSplineSet
Validated: 1
EndChar

StartChar: asterisk
Encoding: 42 42 13
Width: 1200
GlyphClass: 2
Flags: W
HStem: 1480 20G<475 725>
VStem: 475 250<582 844 1238 1500>
LayerCount: 2
Fore
SplineSet
475 1500 m 1,0,-1
 725 1500 l 1,1,-1
 725 1238 l 1,2,-1
 935 1379 l 1,3,-1
 1060 1162 l 1,4,-1
 830 1041 l 1,5,-1
 1060 920 l 1,6,-1
 935 703 l 1,7,-1
 725 844 l 1,8,-1
 725 582 l 1,9,-1
 475 582 l 1,10,-1
 475 844 l 1,11,-1
 265 703 l 1,12,-1
 140 920 l 1,13,-1
 370 1041 l 1,14,-1
 140 1162 l 1,15,-1
 265 1379 l 1,16,-1
 475 1238 l 1,17,-1
 475 1500 l 1,0,-1
EndSplineSet
Validated: 1
EndChar

StartChar: plus
Encoding: 43 43 14
Width: 1200
GlyphClass: 2
Flags: W
HStem: 625 250<141 475 725 1059>
VStem: 475 250<291 625 875 1209>
LayerCount: 2
Fore
SplineSet
475 1209 m 1,0,-1
 725 1209 l 1,1,-1
 725 875 l 1,2,-1
 1059 875 l 1,3,-1
 1059 625 l 1,4,-1
 725 625 l 1,5,-1
 725 291 l 1,6,-1
 475 291 l 1,7,-1
 475 625 l 1,8,-1
 141 625 l 1,9,-1
 141 875 l 1,10,-1
 475 875 l 1,11,-1
 475 1209 l 1,0,-1
EndSplineSet
Validated: 1
EndChar

StartChar: comma
Encoding: 44 44 15
Width: 1200
GlyphClass: 2
Flags: W
HStem: -249 617
VStem: 521 250<-58.1422 228.019>
LayerCount: 2
Fore
SplineSet
679 368 m 1,0,1
 771 254 771 254 771 113 c 0,2,3
 771 -158 771 -158 429 -249 c 1,4,-1
 429 -133 l 1,5,6
 521 -31 521 -31 521 86 c 0,7,8
 521 197 521 197 443 266 c 1,9,-1
 679 368 l 1,0,1
EndSplineSet
Validated: 1
EndChar

StartChar: hyphen
Encoding: 45 45 16
Width: 1200
GlyphClass: 2
Flags: W
HStem: 625 250<141 1059>
LayerCount: 2
Fore
SplineSet
141 875 m 1,0,-1
 1059 875 l 1,1,-1
 1059 625 l 1,2,-1
 141 625 l 1,3,-1
 141 875 l 1,0,-1
EndSplineSet
Validated: 1
EndChar

StartChar: period
Encoding: 46 46 17
Width: 1200
GlyphClass: 2
Flags: W
HStem: -20 354<481.699 719.766>
VStem: 421 358<39.6123 273.708>
LayerCount: 2
Fore
SplineSet
600 -20 m 0,0,1
 526 -20 526 -20 475 29 c 0,2,3
 421 81 421 81 421 157 c 128,-1,4
 421 233 421 233 475 284 c 0,5,6
 528 334 528 334 600 334 c 0,7,8
 677 334 677 334 726 284 c 0,9,10
 779 230 779 230 779 157 c 0,11,12
 779 80 779 80 727 30 c 128,-1,13
 675 -20 675 -20 600 -20 c 0,0,1
EndSplineSet
Validated: 1
EndChar

StartChar: slash
Encoding: 47 47 18
Width: 1200
GlyphClass: 2
Flags: W
DStem2: 0 -260 269 -260 0.419315 0.907841<112.796 2225.06>
LayerCount: 2
Fore
SplineSet
933 1760 m 1,0,-1
 1200 1760 l 1,1,-1
 269 -260 l 1,2,-1
 0 -260 l 1,3,-1
 933 1760 l 1,0,-1
EndSplineSet
Validated: 1
EndChar

StartChar: zero
Encoding: 48 48 19
Width: 1200
GlyphClass: 2
Flags: W
HStem: -20 243<483.026 719.326> 1277 243<481.503 718.863>
VStem: 65 270<558.276 1079.52> 865 270<419.156 924.524>
DStem2: 346 556 419 339 0.585294 0.810821<0 601.162>
LayerCount: 2
Fore
SplineSet
600 1277 m 0,0,1
 487 1277 487 1277 408 1143 c 0,2,3
 335 1019 335 1019 335 750 c 0,4,5
 335 641 335 641 346 556 c 1,6,-1
 782 1160 l 1,7,8
 708 1277 708 1277 600 1277 c 0,0,1
600 -20 m 0,9,10
 315 -20 315 -20 176 226 c 0,11,12
 65 422 65 422 65 750 c 128,-1,13
 65 1078 65 1078 176 1274 c 0,14,15
 315 1520 315 1520 600 1520 c 0,16,17
 888 1520 888 1520 1024 1273 c 0,18,19
 1135 1072 1135 1072 1135 750 c 0,20,21
 1135 430 1135 430 1024 228 c 0,22,23
 887 -19 887 -19 600 -20 c 0,9,10
855 930 m 1,24,-1
 419 339 l 1,25,26
 497 223 497 223 600 223 c 0,27,28
 715 223 715 223 792 357 c 0,29,30
 865 483 865 483 865 750 c 0,31,32
 865 850 865 850 855 930 c 1,24,-1
EndSplineSet
Validated: 1
EndChar

StartChar: one
Encoding: 49 49 20
Width: 1200
GlyphClass: 2
Flags: W
HStem: 0 250<192 526 786 1110> 850 300<192 492> 1480 20G<497.486 786>
VStem: 526 260<250 1210>
LayerCount: 2
Fore
SplineSet
192 0 m 1,0,-1
 192 250 l 1,1,-1
 526 250 l 1,2,-1
 526 1210 l 1,3,-1
 192 850 l 1,4,-1
 192 1150 l 1,5,-1
 516 1500 l 1,6,-1
 786 1500 l 1,7,-1
 786 250 l 1,8,-1
 1110 250 l 1,9,-1
 1110 0 l 1,10,-1
 192 0 l 1,0,-1
EndSplineSet
Validated: 1
EndChar

StartChar: two
Encoding: 50 50 21
Width: 1200
GlyphClass: 2
Flags: W
HStem: 0 250<384 1095> 1277 243<468.491 739.099>
VStem: 105 270<1021 1178.12> 825 270<914.254 1192.7>
DStem2: 312 520 460 338 0.787876 0.615834<-106.774 661.145>
LayerCount: 2
Fore
SplineSet
105 0 m 1,0,-1
 105 192 l 2,1,2
 107 358 107 358 312 520 c 2,3,-1
 673 804 l 2,4,5
 825 923 825 923 825 1038 c 0,6,7
 825 1139 825 1139 772 1203 c 24,8,9
 711 1277 711 1277 600 1277 c 0,10,11
 495 1277 495 1277 430 1196 c 0,12,13
 375 1126 375 1126 375 1021 c 9,14,-1
 105 1021 l 17,15,16
 105 1229 105 1229 233 1365 c 0,17,18
 380 1520 380 1520 600 1520 c 0,19,20
 836 1520 836 1520 970 1376 c 0,21,22
 1095 1242 1095 1242 1095 1054 c 0,23,24
 1095 834 1095 834 863 653 c 2,25,-1
 460 338 l 2,26,27
 404 294 404 294 384 250 c 1,28,-1
 1095 250 l 1,29,-1
 1095 0 l 1,30,-1
 105 0 l 1,0,-1
EndSplineSet
Validated: 1
EndChar

StartChar: three
Encoding: 51 51 22
Width: 1200
GlyphClass: 2
Flags: W
HStem: -20 242<466.106 741.666> 696 245<537 712.511> 1275 245<469.794 712.524>
VStem: 105 270<315.649 479> 153 258<1098 1217.03> 770 259<989.372 1218.65> 825 270<306.636 593.832>
LayerCount: 2
Fore
SplineSet
105 479 m 9,0,-1
 375 479 l 17,1,2
 375 371 375 371 428 304 c 0,3,4
 494 222 494 222 600 222 c 0,5,6
 714 222 714 222 772 295 c 0,7,8
 825 362 825 362 825 457 c 0,9,10
 825 553 825 553 756 626 c 0,11,12
 690 696 690 696 537 696 c 9,13,-1
 537 941 l 17,14,15
 667 941 667 941 714 978 c 24,16,17
 770 1022 770 1022 770 1106 c 0,18,19
 770 1179 770 1179 715 1231 c 0,20,21
 669 1275 669 1275 591 1275 c 0,22,23
 515 1275 515 1275 461 1224 c 0,24,25
 412 1178 412 1178 411 1098 c 9,26,-1
 153 1098 l 17,27,28
 153 1283 153 1283 274 1399 c 0,29,30
 400 1520 400 1520 589 1520 c 128,-1,31
 778 1520 778 1520 904 1406 c 0,32,33
 1029 1293 1029 1293 1029 1121 c 0,34,35
 1029 932 1029 932 879 824 c 1,36,37
 1095 695 1095 695 1095 451 c 0,38,39
 1095 265 1095 265 965 126 c 0,40,41
 827 -20 827 -20 600 -20 c 128,-1,42
 373 -20 373 -20 230 134 c 0,43,44
 105 270 105 270 105 479 c 9,0,-1
EndSplineSet
Validated: 1
EndChar

StartChar: four
Encoding: 52 52 23
Width: 1200
GlyphClass: 2
Flags: W
HStem: 0 21G<780 1050> 276 250<410 780> 1480 20G<522 1050>
VStem: 780 270<0 276 526 1166>
LayerCount: 2
Fore
SplineSet
780 0 m 1,0,-1
 780 276 l 1,1,-1
 70 276 l 1,2,3
 264 976 264 976 780 1500 c 1,4,-1
 1050 1500 l 1,5,-1
 1050 0 l 1,6,-1
 780 0 l 1,0,-1
780 1166 m 1,7,8
 559 881 559 881 410 526 c 1,9,-1
 780 526 l 1,10,-1
 780 1166 l 1,7,8
EndSplineSet
Validated: 1
EndChar

StartChar: five
Encoding: 53 53 24
Width: 1200
GlyphClass: 2
Flags: W
HStem: -20 243<463.56 726.623> 790 243<483.094 725.017> 1250 250<523 1002>
VStem: 105 270<315.873 479> 825 270<329.179 679.227>
LayerCount: 2
Fore
SplineSet
105 479 m 9,0,-1
 375 479 l 17,1,2
 375 366 375 366 425 305 c 0,3,4
 491 224 491 224 600 223 c 0,5,6
 703 223 703 223 769 311 c 0,7,8
 825 386 825 386 825 515 c 0,9,10
 825 622 825 622 767 701 c 0,11,12
 702 790 702 790 600 790 c 0,13,14
 494 790 494 790 426 683 c 1,15,-1
 190 812 l 1,16,-1
 302 1500 l 1,17,-1
 1002 1500 l 1,18,-1
 1002 1250 l 1,19,-1
 523 1250 l 1,20,-1
 482 1011 l 1,21,22
 541 1033 541 1033 606 1033 c 0,23,24
 831 1033 831 1033 959 890 c 0,25,26
 1095 738 1095 738 1095 513 c 0,27,28
 1095 296 1095 296 975 147 c 0,29,30
 840 -20 840 -20 600 -20 c 0,31,32
 369 -20 369 -20 224 138 c 0,33,34
 105 269 105 269 105 479 c 9,0,-1
EndSplineSet
Validated: 1
EndChar

StartChar: six
Encoding: 54 54 25
Width: 1200
GlyphClass: 2
Flags: W
HStem: -20 243<496.27 745.833> 790 242<496.817 742.278> 1278 242<494.053 735.281>
VStem: 85 310<382.981 930.625> 845 270<334.709 681.249>
LayerCount: 2
Fore
SplineSet
620 223 m 0,0,1
 726 223 726 223 788 314 c 0,2,3
 845 398 845 398 845 510 c 0,4,5
 845 633 845 633 777 713 c 0,6,7
 711 790 711 790 620 790 c 0,8,9
 528 790 528 790 463 713 c 0,10,11
 395 633 395 633 395 510 c 0,12,13
 395 392 395 392 451 314 c 0,14,15
 517 223 517 223 620 223 c 0,0,1
1096 1135 m 9,16,-1
 812 1135 l 17,17,18
 736 1278 736 1278 620 1278 c 0,19,20
 494 1278 494 1278 428 1154 c 0,21,22
 372 1048 372 1048 360 880 c 1,23,24
 482 1032 482 1032 644 1032 c 0,25,26
 836 1031 836 1031 973 885 c 0,27,28
 1115 734 1115 734 1115 513 c 0,29,30
 1115 303 1115 303 991 148 c 0,31,32
 855 -20 855 -20 620 -20 c 0,33,34
 348 -20 348 -20 196 227 c 0,35,36
 85 407 85 407 85 750 c 0,37,38
 85 1084 85 1084 196 1274 c 0,39,40
 341 1520 341 1520 620 1520 c 128,-1,41
 899 1520 899 1520 1044 1259 c 0,42,43
 1074 1205 1074 1205 1096 1135 c 9,16,-1
EndSplineSet
Validated: 1
EndChar

StartChar: seven
Encoding: 55 55 26
Width: 1200
GlyphClass: 2
Flags: W
HStem: 0 21G<215 606> 1250 250<105 773>
VStem: 215 288<0 288>
LayerCount: 2
Fore
SplineSet
215 0 m 1,0,1
 500 440 500 440 625 780 c 0,2,3
 722 1044 722 1044 773 1250 c 1,4,-1
 105 1250 l 1,5,-1
 105 1500 l 1,6,-1
 1095 1500 l 1,7,8
 1044 1118 1044 1118 883 730 c 0,9,10
 709 310 709 310 503 0 c 1,11,-1
 215 0 l 1,0,1
EndSplineSet
Validated: 1
EndChar

StartChar: eight
Encoding: 56 56 27
Width: 1200
GlyphClass: 2
Flags: W
HStem: -20 243<460.43 740.947> 687 242<486.497 716.922> 1275 245<480.065 716.837>
VStem: 105 270<306.281 598.758> 171 259<985.656 1224.19> 770 259<983.204 1223.09> 826 269<308.572 599.318>
LayerCount: 2
Fore
SplineSet
602 687 m 0,0,1
 489 687 489 687 429 614 c 0,2,3
 375 548 375 548 375 454 c 0,4,5
 375 358 375 358 428 296 c 0,6,7
 491 223 491 223 602 223 c 0,8,9
 708 223 708 223 772 296 c 0,10,11
 826 358 826 358 826 456 c 0,12,13
 826 550 826 550 769 616 c 0,14,15
 708 687 708 687 602 687 c 0,0,1
600 1275 m 0,16,17
 523 1275 523 1275 480 1232 c 0,18,19
 430 1182 430 1182 430 1104 c 128,-1,20
 430 1026 430 1026 482 976 c 0,21,22
 533 929 533 929 600 929 c 0,23,24
 673 929 673 929 721 977 c 0,25,26
 770 1026 770 1026 770 1104 c 0,27,28
 770 1178 770 1178 722 1226.5 c 128,-1,29
 674 1275 674 1275 600 1275 c 0,16,17
598 -20 m 128,-1,31
 367 -20 367 -20 232 126 c 0,32,33
 105 263 105 263 105 451 c 0,34,35
 105 704 105 704 341 824 c 1,36,37
 171 914 171 914 171 1121 c 0,38,39
 171 1293 171 1293 296 1406 c 0,40,41
 422 1520 422 1520 600 1520 c 128,-1,42
 778 1520 778 1520 904 1406 c 0,43,44
 1029 1293 1029 1293 1029 1121 c 0,45,46
 1029 930 1029 930 859 824 c 1,47,48
 1095 712 1095 712 1095 451 c 0,49,50
 1095 257 1095 257 970 127 c 0,51,30
 829 -20 829 -20 598 -20 c 128,-1,31
EndSplineSet
Validated: 1
EndChar

StartChar: nine
Encoding: 57 57 28
Width: 1200
GlyphClass: 2
Flags: W
HStem: -20 242<464.719 705.947> 468 242<457.722 703.183> 1277 243<454.167 703.73>
VStem: 85 270<818.751 1165.29> 805 310<569.375 1117.02>
LayerCount: 2
Fore
SplineSet
580 1277 m 0,0,1
 474 1277 474 1277 412 1186 c 0,2,3
 355 1102 355 1102 355 990 c 0,4,5
 355 867 355 867 423 787 c 0,6,7
 489 710 489 710 580 710 c 0,8,9
 672 710 672 710 737 787 c 0,10,11
 805 867 805 867 805 990 c 0,12,13
 805 1108 805 1108 749 1186 c 0,14,15
 683 1277 683 1277 580 1277 c 0,0,1
104 365 m 9,16,-1
 388 365 l 17,17,18
 464 222 464 222 580 222 c 0,19,20
 706 222 706 222 772 346 c 0,21,22
 828 452 828 452 840 620 c 1,23,24
 718 468 718 468 556 468 c 0,25,26
 364 469 364 469 227 615 c 0,27,28
 85 766 85 766 85 987 c 0,29,30
 85 1197 85 1197 209 1352 c 0,31,32
 345 1520 345 1520 580 1520 c 0,33,34
 852 1520 852 1520 1004 1273 c 0,35,36
 1115 1093 1115 1093 1115 750 c 0,37,38
 1115 416 1115 416 1004 226 c 0,39,40
 859 -20 859 -20 580 -20 c 128,-1,41
 301 -20 301 -20 156 241 c 0,42,43
 126 295 126 295 104 365 c 9,16,-1
EndSplineSet
Validated: 1
EndChar

StartChar: colon
Encoding: 58 58 29
Width: 1200
GlyphClass: 2
Flags: W
HStem: -20 354<481.699 719.766> 571 354<481.699 719.766>
VStem: 421 358<39.6123 273.708 630.612 864.708>
LayerCount: 2
Fore
SplineSet
600 925 m 0,0,1
 677 925 677 925 726 875 c 0,2,3
 779 821 779 821 779 748 c 0,4,5
 779 671 779 671 727 621 c 128,-1,6
 675 571 675 571 600 571 c 0,7,8
 526 571 526 571 475 620 c 0,9,10
 421 672 421 672 421 748 c 128,-1,11
 421 824 421 824 475 875 c 0,12,13
 528 925 528 925 600 925 c 0,0,1
600 -20 m 0,14,15
 526 -20 526 -20 475 29 c 0,16,17
 421 81 421 81 421 157 c 128,-1,18
 421 233 421 233 475 284 c 0,19,20
 528 334 528 334 600 334 c 0,21,22
 677 334 677 334 726 284 c 0,23,24
 779 230 779 230 779 157 c 0,25,26
 779 80 779 80 727 30 c 128,-1,27
 675 -20 675 -20 600 -20 c 0,14,15
EndSplineSet
Validated: 1
EndChar

StartChar: semicolon
Encoding: 59 59 30
Width: 1200
GlyphClass: 2
Flags: W
HStem: 571 354<481.699 719.766>
VStem: 421 358<630.612 864.708> 521 250<-58.1422 228.019>
LayerCount: 2
Fore
SplineSet
679 368 m 1,0,1
 771 254 771 254 771 113 c 0,2,3
 771 -158 771 -158 429 -249 c 1,4,-1
 429 -133 l 1,5,6
 521 -31 521 -31 521 86 c 0,7,8
 521 197 521 197 443 266 c 1,9,-1
 679 368 l 1,0,1
600 925 m 0,10,11
 677 925 677 925 726 875 c 0,12,13
 779 821 779 821 779 748 c 0,14,15
 779 671 779 671 727 621 c 128,-1,16
 675 571 675 571 600 571 c 0,17,18
 526 571 526 571 475 620 c 0,19,20
 421 672 421 672 421 748 c 128,-1,21
 421 824 421 824 475 875 c 0,22,23
 528 925 528 925 600 925 c 0,10,11
EndSplineSet
Validated: 1
EndChar

StartChar: less
Encoding: 60 60 31
Width: 1200
GlyphClass: 2
Flags: W
DStem2: 155 860 486 750 0.865996 0.50005<231.639 876.247> 486 750 155 640 0.865504 -0.500902<0 645.107>
LayerCount: 2
Fore
SplineSet
155 860 m 1,0,-1
 917 1300 l 1,1,-1
 1045 1071 l 1,2,-1
 486 750 l 1,3,-1
 1045 428 l 1,4,-1
 917 199 l 1,5,-1
 155 640 l 1,6,-1
 155 860 l 1,0,-1
EndSplineSet
Validated: 1
EndChar

StartChar: equal
Encoding: 61 61 32
Width: 1200
GlyphClass: 2
Flags: W
HStem: 400 250<141 1059> 850 250<141 1059>
LayerCount: 2
Fore
SplineSet
141 650 m 1,0,-1
 1059 650 l 1,1,-1
 1059 400 l 1,2,-1
 141 400 l 1,3,-1
 141 650 l 1,0,-1
141 1100 m 1,4,-1
 1059 1100 l 1,5,-1
 1059 850 l 1,6,-1
 141 850 l 1,7,-1
 141 1100 l 1,4,-1
EndSplineSet
Validated: 1
EndChar

StartChar: greater
Encoding: 62 62 33
Width: 1200
GlyphClass: 2
Flags: W
DStem2: 283 1300 155 1071 0.865996 -0.50005<3.66401 648.272> 155 428 283 199 0.865504 0.500902<0 645.107>
LayerCount: 2
Fore
SplineSet
1045 860 m 1,0,-1
 1045 640 l 1,1,-1
 283 199 l 1,2,-1
 155 428 l 1,3,-1
 714 750 l 1,4,-1
 155 1071 l 1,5,-1
 283 1300 l 1,6,-1
 1045 860 l 1,0,-1
EndSplineSet
Validated: 1
EndChar

StartChar: question
Encoding: 63 63 34
Width: 1200
GlyphClass: 2
Flags: W
HStem: -20 354<481.699 719.766> 1277 243<468.491 732.07>
VStem: 105 270<1021 1178.12> 421 358<39.6123 273.708> 472 257<383 533.209> 825 270<898.804 1183.61>
LayerCount: 2
Fore
SplineSet
600 -20 m 0,0,1
 526 -20 526 -20 475 29 c 0,2,3
 421 81 421 81 421 157 c 128,-1,4
 421 233 421 233 475 284 c 0,5,6
 528 334 528 334 600 334 c 0,7,8
 677 334 677 334 726 284 c 0,9,10
 779 230 779 230 779 157 c 0,11,12
 779 80 779 80 727 30 c 128,-1,13
 675 -20 675 -20 600 -20 c 0,0,1
105 1021 m 17,14,15
 105 1229 105 1229 233 1365 c 0,16,17
 380 1520 380 1520 600 1520 c 0,18,19
 835 1520 835 1520 971 1364 c 0,20,21
 1095 1222 1095 1222 1095 1031 c 0,22,23
 1095 789 1095 789 855 619 c 0,24,25
 729 530 729 530 729 383 c 9,26,-1
 472 383 l 17,27,28
 472 626 472 626 671 783 c 24,29,30
 825 903 825 903 825 1030 c 0,31,32
 825 1130 825 1130 772 1194 c 0,33,34
 704 1277 704 1277 600 1277 c 0,35,36
 495 1277 495 1277 430 1196 c 0,37,38
 375 1126 375 1126 375 1021 c 9,39,-1
 105 1021 l 17,14,15
EndSplineSet
Validated: 1
EndChar

StartChar: at
Encoding: 64 64 35
Width: 1200
GlyphClass: 2
Flags: W
HStem: -420 243<478.087 763.615> -20 215<705.181 863.841> 0 21G<865 1135> 478 206<704.485 863.748> 877 243<508.303 794.357>
VStem: 65 261<23.8666 661.062> 412 254<232.698 442.466> 865 270<0 12 195.714 477.396 655 804.371>
LayerCount: 2
Fore
SplineSet
1135 0 m 1,0,-1
 865 0 l 1,1,-1
 865 12 l 1,2,3
 818 -20 818 -20 752 -20 c 0,4,5
 590 -20 590 -20 504 77 c 0,6,7
 412 181 412 181 412 344 c 0,8,9
 412 484 412 484 512 590 c 0,10,11
 602 684 602 684 750 684 c 0,12,13
 812 684 812 684 865 655 c 1,14,15
 865 761 865 761 804 824 c 0,16,17
 753 877 753 877 659 877 c 0,18,19
 516 877 516 877 418 751 c 0,20,21
 326 631 326 631 326 351 c 0,22,23
 326 84 326 84 402 -44 c 0,24,25
 481 -177 481 -177 600 -177 c 0,26,27
 672 -177 672 -177 728 -121 c 9,28,-1
 897 -321 l 17,29,30
 776 -420 776 -420 600 -420 c 24,31,32
 310 -420 310 -420 172 -171 c 0,33,34
 65 22 65 22 65 352 c 0,35,36
 65 695 65 695 221 905 c 0,37,38
 380 1120 380 1120 659 1120 c 0,39,40
 888 1120 888 1120 1023 965 c 0,41,42
 1135 836 1135 836 1135 658 c 2,43,-1
 1135 0 l 1,0,-1
865 467 m 17,44,45
 838 478 838 478 805 478 c 0,46,47
 743 478 743 478 707 442 c 24,48,49
 666 401 666 401 666 339 c 128,-1,50
 666 277 666 277 706 234 c 0,51,52
 742 195 742 195 806 195 c 0,53,54
 838 195 838 195 865 208 c 9,55,-1
 865 467 l 17,44,45
EndSplineSet
Validated: 1
EndChar

StartChar: A
Encoding: 65 65 36
Width: 1200
GlyphClass: 2
Flags: W
HStem: 0 21G<5 303 898.5 1195> 625 230<468 733> 1480 20G<302 904>
VStem: 5 270<0 203.687> 925 270<0 226.465>
LayerCount: 2
Fore
SplineSet
5 0 m 1,0,1
 139 720 139 720 465 1500 c 1,2,-1
 735 1500 l 1,3,4
 1073 720 1073 720 1195 0 c 1,5,-1
 925 0 l 1,6,7
 872 318 872 318 788 625 c 1,8,-1
 414 625 l 1,9,10
 331 321 331 321 275 0 c 1,11,-1
 5 0 l 1,0,1
733 855 m 1,12,13
 684 1048 684 1048 600 1276 c 1,14,15
 518 1048 518 1048 468 855 c 1,16,-1
 733 855 l 1,12,13
EndSplineSet
Validated: 1
EndChar

StartChar: B
Encoding: 66 66 37
Width: 1200
GlyphClass: 2
Flags: W
HStem: 0 243<375 735.633> 702 243<375 674.776> 1257 243<375 667.358>
VStem: 105 270<243 702 945 1257> 727 257<997.188 1203.5> 835 260<334.241 607.628>
LayerCount: 2
Fore
SplineSet
375 1257 m 1,0,-1
 375 945 l 1,1,-1
 496 945 l 2,2,3
 622 945 622 945 675 989 c 0,4,5
 727 1032 727 1032 727 1101 c 128,-1,6
 727 1170 727 1170 669 1216 c 0,7,8
 617 1257 617 1257 496 1257 c 2,9,-1
 375 1257 l 1,0,-1
375 702 m 1,10,-1
 375 243 l 1,11,-1
 546 243 l 2,12,13
 689 243 689 243 769 311 c 0,14,15
 835 367 835 367 835 473 c 0,16,17
 835 569 835 569 767 636 c 0,18,19
 700 702 700 702 546 702 c 2,20,-1
 375 702 l 1,10,-1
105 0 m 1,21,-1
 105 1500 l 1,22,-1
 496 1500 l 2,23,24
 731 1500 731 1500 860 1386 c 0,25,26
 984 1276 984 1276 984 1126 c 0,27,28
 984 946 984 946 820 852 c 1,29,30
 1095 734 1095 734 1095 467 c 0,31,32
 1095 251 1095 251 940 123 c 24,33,34
 791 0 791 0 546 0 c 2,35,-1
 105 0 l 1,21,-1
EndSplineSet
Validated: 1
EndChar

StartChar: C
Encoding: 67 67 38
Width: 1200
GlyphClass: 2
Flags: W
HStem: -20 243<483.3 713.547> 1120 21G<803.5 1087> 1277 243<481.503 719.01>
VStem: 65 270<416.638 1078.78>
LayerCount: 2
Fore
SplineSet
1087 380 m 1,0,1
 1062 296 1062 296 1024 227 c 8,2,3
 888 -20 888 -20 600 -20 c 0,4,5
 315 -20 315 -20 176 226 c 16,6,7
 65 424 65 424 65 750 c 0,8,9
 65 1075 65 1075 176 1274 c 24,10,11
 315 1520 315 1520 600 1520 c 0,12,13
 888 1520 888 1520 1024 1273 c 16,14,15
 1062 1204 1062 1204 1087 1120 c 9,16,-1
 805 1120 l 17,17,18
 802 1126 802 1126 792 1143 c 8,19,20
 713 1277 713 1277 600 1277 c 128,-1,21
 487 1277 487 1277 408 1143 c 0,22,23
 335 1019 335 1019 335 750 c 0,24,25
 335 477 335 477 407 358 c 0,26,27
 489 223 489 223 600 223 c 0,28,29
 707 223 707 223 792 357 c 0,30,31
 799 368 799 368 805 380 c 1,32,-1
 1087 380 l 1,0,1
EndSplineSet
Validated: 1
EndChar

StartChar: D
Encoding: 68 68 39
Width: 1200
GlyphClass: 2
Flags: W
HStem: 0 243<374 711.628> 1257 243<375 705.625>
VStem: 105 269<243 1257> 865 270<439.673 1061.65>
LayerCount: 2
Fore
SplineSet
375 1257 m 1,0,-1
 374 243 l 1,1,-1
 551 243 l 2,2,3
 720 243 720 243 793 376 c 0,4,5
 865 507 865 507 865 750 c 0,6,7
 865 1000 865 1000 792 1124 c 24,8,9
 714 1257 714 1257 550 1257 c 2,10,-1
 375 1257 l 1,0,-1
105 0 m 1,11,-1
 105 1500 l 1,12,-1
 550 1500 l 2,13,14
 886 1500 886 1500 1024 1254 c 24,15,16
 1135 1055 1135 1055 1135 750 c 0,17,18
 1135 430 1135 430 1025 246 c 0,19,20
 877 0 877 0 551 0 c 2,21,-1
 105 0 l 1,11,-1
EndSplineSet
Validated: 1
EndChar

StartChar: E
Encoding: 69 69 40
Width: 1200
GlyphClass: 2
Flags: W
HStem: 0 250<411 1059> 625 250<411 866> 1250 250<411 991>
VStem: 141 270<250 625 875 1250>
CounterMasks: 1 e0
LayerCount: 2
Fore
SplineSet
1059 0 m 1,0,-1
 141 0 l 1,1,-1
 141 1500 l 1,2,-1
 991 1500 l 1,3,-1
 991 1250 l 1,4,-1
 411 1250 l 1,5,-1
 411 875 l 1,6,-1
 866 875 l 1,7,-1
 866 625 l 1,8,-1
 411 625 l 1,9,-1
 411 250 l 1,10,-1
 1059 250 l 1,11,-1
 1059 0 l 1,0,-1
EndSplineSet
Validated: 1
EndChar

StartChar: F
Encoding: 70 70 41
Width: 1200
GlyphClass: 2
Flags: W
HStem: 0 21G<175 445> 625 250<445 900> 1250 250<445 1025>
VStem: 175 270<0 625 875 1250>
LayerCount: 2
Fore
SplineSet
445 0 m 1,0,-1
 175 0 l 1,1,-1
 175 1500 l 1,2,-1
 1025 1500 l 1,3,-1
 1025 1250 l 1,4,-1
 445 1250 l 1,5,-1
 445 875 l 1,6,-1
 900 875 l 1,7,-1
 900 625 l 1,8,-1
 445 625 l 1,9,-1
 445 0 l 1,0,-1
EndSplineSet
Validated: 1
EndChar

StartChar: G
Encoding: 71 71 42
Width: 1200
GlyphClass: 2
Flags: W
HStem: -20 243<483.3 719.668> 625 250<549 861> 1120 21G<802 1087> 1277 243<481.259 719.01>
VStem: 65 270<416.467 1078.78>
LayerCount: 2
Fore
SplineSet
1134 875 m 1,0,-1
 1134 750 l 2,1,2
 1134 428 1134 428 1024 227 c 8,3,4
 889 -20 889 -20 600 -20 c 0,5,6
 315 -20 315 -20 176 226 c 16,7,8
 65 424 65 424 65 750 c 0,9,10
 65 1075 65 1075 176 1274 c 24,11,12
 315 1520 315 1520 600 1520 c 0,13,14
 888 1520 888 1520 1024 1273 c 16,15,16
 1062 1204 1062 1204 1087 1120 c 9,17,-1
 805 1120 l 17,18,19
 799 1132 799 1132 792 1143 c 8,20,21
 713 1277 713 1277 600 1277 c 0,22,23
 486 1277 486 1277 408 1143 c 0,24,25
 335 1019 335 1019 335 750 c 0,26,27
 335 476 335 476 407 358 c 0,28,29
 489 223 489 223 600 223 c 0,30,31
 715 223 715 223 792 357 c 0,32,33
 848 451 848 451 861 625 c 1,34,-1
 549 625 l 1,35,-1
 549 875 l 1,36,-1
 1134 875 l 1,0,-1
EndSplineSet
Validated: 1
EndChar

StartChar: H
Encoding: 72 72 43
Width: 1200
GlyphClass: 2
Flags: W
HStem: 0 21G<105 375 825 1095> 625 250<375 825> 1480 20G<105 375 825 1095>
VStem: 105 270<0 625 875 1500> 825 270<0 625 875 1500>
LayerCount: 2
Fore
SplineSet
105 0 m 1,0,-1
 105 1500 l 1,1,-1
 375 1500 l 1,2,-1
 375 875 l 1,3,-1
 825 875 l 1,4,-1
 825 1500 l 1,5,-1
 1095 1500 l 1,6,-1
 1095 0 l 1,7,-1
 825 0 l 1,8,-1
 825 625 l 1,9,-1
 375 625 l 1,10,-1
 375 0 l 1,11,-1
 105 0 l 1,0,-1
EndSplineSet
Validated: 1
EndChar

StartChar: I
Encoding: 73 73 44
Width: 1200
GlyphClass: 2
Flags: W
HStem: 0 250<141 465 735 1059> 1250 250<141 465 735 1059>
VStem: 465 270<250 1250>
LayerCount: 2
Fore
SplineSet
1059 0 m 1,0,-1
 141 0 l 1,1,-1
 141 250 l 1,2,-1
 465 250 l 1,3,-1
 465 1250 l 1,4,-1
 141 1250 l 1,5,-1
 141 1500 l 1,6,-1
 1059 1500 l 1,7,-1
 1059 1250 l 1,8,-1
 735 1250 l 1,9,-1
 735 250 l 1,10,-1
 1059 250 l 1,11,-1
 1059 0 l 1,0,-1
EndSplineSet
Validated: 1
EndChar

StartChar: J
Encoding: 74 74 45
Width: 1200
GlyphClass: 2
Flags: W
HStem: -20 243<410.206 686.301> 1250 250<235 775>
VStem: 55 270<311.188 479> 775 270<317.547 1250>
LayerCount: 2
Fore
SplineSet
55 479 m 9,0,-1
 325 479 l 17,1,2
 325 367 325 367 375 303 c 0,3,4
 438 223 438 223 550 223 c 0,5,6
 657 223 657 223 719 298 c 0,7,8
 775 366 775 366 775 479 c 2,9,-1
 775 1250 l 1,10,-1
 235 1250 l 1,11,-1
 235 1500 l 1,12,-1
 1045 1500 l 1,13,-1
 1045 451 l 2,14,15
 1045 265 1045 265 913 122 c 0,16,17
 782 -20 782 -20 550 -20 c 0,18,19
 325 -20 325 -20 179 134 c 0,20,21
 55 270 55 270 55 479 c 9,0,-1
EndSplineSet
Validated: 1
EndChar

StartChar: K
Encoding: 75 75 46
Width: 1200
GlyphClass: 2
Flags: W
HStem: 0 21G<105 375 757 1095> 1480 20G<105 375 723 1060>
VStem: 105 270<0 444.776 738 1500>
LayerCount: 2
Fore
SplineSet
105 0 m 1,0,-1
 105 1500 l 1,1,-1
 375 1500 l 1,2,-1
 375 738 l 1,3,4
 656 1096 656 1096 790 1500 c 1,5,-1
 1060 1500 l 1,6,7
 909 1078 909 1078 672 752 c 1,8,9
 935 416 935 416 1095 0 c 1,10,-1
 823 0 l 1,11,12
 691 310 691 310 519 561 c 1,13,14
 452 478 452 478 375 396 c 1,15,-1
 375 0 l 1,16,-1
 105 0 l 1,0,-1
EndSplineSet
Validated: 1
EndChar

StartChar: L
Encoding: 76 76 47
Width: 1200
GlyphClass: 2
Flags: W
HStem: 0 250<411 1059> 1480 20G<141 411>
VStem: 141 270<250 1500>
LayerCount: 2
Fore
SplineSet
1059 0 m 1,0,-1
 141 0 l 1,1,-1
 141 1500 l 1,2,-1
 411 1500 l 1,3,-1
 411 250 l 1,4,-1
 1059 250 l 1,5,-1
 1059 0 l 1,0,-1
EndSplineSet
Validated: 1
EndChar

StartChar: M
Encoding: 77 77 48
Width: 1200
GlyphClass: 2
Flags: W
HStem: 0 21G<105 355 845 1095> 1480 20G<105 471 735 1095>
VStem: 105 250<0 1106> 485 230<458 845.795> 845 250<0 1106>
CounterMasks: 1 38
LayerCount: 2
Fore
SplineSet
105 0 m 1,0,-1
 105 1500 l 1,1,-1
 375 1500 l 1,2,3
 567 1170 567 1170 603 878 c 1,4,5
 645 1170 645 1170 825 1500 c 1,6,-1
 1095 1500 l 1,7,-1
 1095 0 l 1,8,-1
 845 0 l 1,9,-1
 845 1106 l 1,10,11
 715 812 715 812 715 458 c 1,12,-1
 485 458 l 1,13,14
 485 809 485 809 355 1106 c 1,15,-1
 355 0 l 1,16,-1
 105 0 l 1,0,-1
EndSplineSet
Validated: 1
EndChar

StartChar: N
Encoding: 78 78 49
Width: 1200
GlyphClass: 2
Flags: W
HStem: 0 21G<105 355 739 1095> 1480 20G<105 534 845 1095>
VStem: 105 250<0 1142> 845 250<0 134.08 650 1500>
LayerCount: 2
Fore
SplineSet
105 0 m 1,0,-1
 105 1500 l 1,1,-1
 375 1500 l 1,2,3
 693 1122 693 1122 845 650 c 1,4,-1
 845 1500 l 1,5,-1
 1095 1500 l 1,6,-1
 1095 0 l 1,7,-1
 845 0 l 1,8,9
 633 730 633 730 355 1142 c 1,10,-1
 355 0 l 1,11,-1
 105 0 l 1,0,-1
EndSplineSet
Validated: 1
EndChar

StartChar: O
Encoding: 79 79 50
Width: 1200
GlyphClass: 2
Flags: W
HStem: -20 243<483.3 719.253> 1277 243<481.503 719.497>
VStem: 65 270<416.15 1079.52> 865 270<418.745 1081.98>
LayerCount: 2
Fore
SplineSet
600 -20 m 0,0,1
 315 -20 315 -20 176 226 c 16,2,3
 65 422 65 422 65 750 c 128,-1,4
 65 1078 65 1078 176 1274 c 24,5,6
 315 1520 315 1520 600 1520 c 0,7,8
 888 1520 888 1520 1024 1273 c 24,9,10
 1135 1072 1135 1072 1135 750 c 0,11,12
 1135 429 1135 429 1024 227 c 8,13,14
 888 -20 888 -20 600 -20 c 0,0,1
600 1277 m 0,15,16
 487 1277 487 1277 408 1143 c 0,17,18
 335 1019 335 1019 335 750 c 0,19,20
 335 477 335 477 407 358 c 0,21,22
 489 223 489 223 600 223 c 0,23,24
 714 223 714 223 792 357 c 0,25,26
 865 483 865 483 865 750 c 0,27,28
 865 1018 865 1018 792 1144 c 24,29,30
 715 1277 715 1277 600 1277 c 0,15,16
EndSplineSet
Validated: 1
EndChar

StartChar: P
Encoding: 80 80 51
Width: 1200
GlyphClass: 2
Flags: W
HStem: 0 21G<105 375> 455 243<375 712.702> 1257 243<375 707.041>
VStem: 105 270<0 455 698 1257> 825 270<814.661 1137.38>
LayerCount: 2
Fore
SplineSet
105 0 m 1,0,-1
 105 1500 l 1,1,-1
 546 1500 l 2,2,3
 766 1500 766 1500 915 1375 c 0,4,5
 1095 1224 1095 1224 1095 978 c 0,6,7
 1095 727 1095 727 913 577 c 0,8,9
 766 455 766 455 546 455 c 2,10,-1
 375 455 l 1,11,-1
 375 0 l 1,12,-1
 105 0 l 1,0,-1
546 1257 m 2,13,-1
 375 1257 l 1,14,-1
 375 698 l 1,15,-1
 546 698 l 2,16,17
 674 698 674 698 742 765 c 0,18,19
 825 847 825 847 825 977 c 0,20,21
 825 1109 825 1109 740 1187 c 0,22,23
 664 1257 664 1257 546 1257 c 2,13,-1
EndSplineSet
Validated: 1
EndChar

StartChar: Q
Encoding: 81 81 52
Width: 1200
GlyphClass: 2
Flags: W
HStem: -20 243<483.3 707.999> 1277 243<481.503 719.497>
VStem: 65 270<416.638 1079.52> 865 270<489.265 1081.33>
DStem2: 651 742 452 610 0.590439 -0.807083<0 317.399 678.498 879.901>
LayerCount: 2
Fore
SplineSet
452 610 m 1,0,-1
 651 742 l 1,1,-1
 840 487 l 1,2,3
 865 595 865 595 865 750 c 0,4,5
 865 1016 865 1016 792 1143 c 0,6,7
 715 1277 715 1277 600 1277 c 0,8,9
 487 1277 487 1277 408 1143 c 0,10,11
 335 1019 335 1019 335 750 c 0,12,13
 335 477 335 477 407 358 c 0,14,15
 489 223 489 223 600 223 c 0,16,17
 659 223 659 223 709 259 c 1,18,-1
 452 610 l 1,0,-1
600 -20 m 0,19,20
 315 -20 315 -20 176 226 c 0,21,22
 65 424 65 424 65 750 c 0,23,24
 65 1078 65 1078 176 1274 c 0,25,26
 315 1520 315 1520 600 1520 c 0,27,28
 888 1520 888 1520 1024 1273 c 0,29,30
 1135 1072 1135 1072 1135 750 c 0,31,32
 1135 435 1135 435 1028 235 c 1,33,-1
 1177 34 l 1,34,-1
 978 -109 l 1,35,-1
 862 49 l 1,36,37
 753 -20 753 -20 600 -20 c 0,19,20
EndSplineSet
Validated: 1
EndChar

StartChar: R
Encoding: 82 82 53
Width: 1200
GlyphClass: 2
Flags: W
HStem: 0 21G<105 375 841.473 1179> 455 243<375 569> 1257 243<375 706.757>
VStem: 105 270<0 455 698 1257> 825 270<812.877 1136.46> 854 325<0 325>
DStem2: 840 542 569 455 0.53028 -0.847822<0 466.944>
LayerCount: 2
Fore
SplineSet
375 1257 m 1,0,-1
 375 698 l 1,1,-1
 546 698 l 2,2,3
 674 698 674 698 742 765 c 0,4,5
 825 847 825 847 825 978 c 0,6,7
 825 1107 825 1107 739 1187 c 0,8,9
 664 1257 664 1257 546 1257 c 2,10,-1
 375 1257 l 1,0,-1
105 0 m 1,11,-1
 105 1500 l 1,12,-1
 546 1500 l 2,13,14
 766 1500 766 1500 915 1377 c 0,15,16
 1095 1228 1095 1228 1095 986 c 0,17,18
 1095 737 1095 737 913 591 c 0,19,20
 878 563 878 563 840 542 c 1,21,-1
 1179 0 l 1,22,-1
 854 0 l 1,23,-1
 569 455 l 1,24,25
 558 455 558 455 546 455 c 2,26,-1
 375 455 l 1,27,-1
 375 0 l 1,28,-1
 105 0 l 1,11,-1
EndSplineSet
Validated: 1
EndChar

StartChar: S
Encoding: 83 83 54
Width: 1200
GlyphClass: 2
Flags: W
HStem: -20 243<460.09 734.373> 1275 245<465.462 712.265>
VStem: 105 270<311.166 479> 153 263<1029.3 1228.28> 771 258<1098 1217.03> 825 270<314.066 563.014>
DStem2: 494 1008 368 773 0.904469 -0.426539<-98.2172 496.464>
LayerCount: 2
Fore
SplineSet
105 479 m 9,0,-1
 375 479 l 17,1,2
 375 366 375 366 427 300 c 0,3,4
 488 223 488 223 600 223 c 0,5,6
 705 223 705 223 771 301 c 0,7,8
 825 365 825 365 825 444 c 24,9,10
 825 557 825 557 720 607 c 2,11,-1
 368 773 l 2,12,13
 153 874 153 874 153 1125 c 24,14,15
 153 1296 153 1296 278 1407 c 0,16,17
 404 1520 404 1520 593 1520 c 128,-1,18
 782 1520 782 1520 908 1399 c 0,19,20
 1029 1283 1029 1283 1029 1098 c 9,21,-1
 771 1098 l 17,22,23
 770 1178 770 1178 721 1224 c 0,24,25
 668 1275 668 1275 591 1275 c 0,26,27
 516 1275 516 1275 464 1233 c 0,28,29
 416 1194 416 1194 416 1134 c 0,30,31
 416 1044 416 1044 494 1008 c 2,32,-1
 815 859 l 2,33,34
 1095 729 1095 729 1095 447 c 24,35,36
 1095 262 1095 262 965 125 c 0,37,38
 827 -20 827 -20 600 -20 c 0,39,40
 358 -20 358 -20 226 128 c 0,41,42
 105 263 105 263 105 479 c 9,0,-1
EndSplineSet
Validated: 1
EndChar

StartChar: T
Encoding: 84 84 55
Width: 1200
GlyphClass: 2
Flags: W
HStem: 0 21G<465 735> 1250 250<105 465 735 1095>
VStem: 465 270<0 1250>
LayerCount: 2
Fore
SplineSet
465 0 m 1,0,-1
 465 1250 l 1,1,-1
 105 1250 l 1,2,-1
 105 1500 l 1,3,-1
 1095 1500 l 1,4,-1
 1095 1250 l 1,5,-1
 735 1250 l 1,6,-1
 735 0 l 1,7,-1
 465 0 l 1,0,-1
EndSplineSet
Validated: 1
EndChar

StartChar: U
Encoding: 85 85 56
Width: 1200
GlyphClass: 2
Flags: W
HStem: -20 243<462.675 732.648> 1480 20G<105 375 825 1095>
VStem: 105 270<313.614 1500> 825 270<317.172 1500>
LayerCount: 2
Fore
SplineSet
105 1500 m 1,0,-1
 375 1500 l 1,1,-1
 375 462 l 2,2,3
 375 364 375 364 430 299 c 0,4,5
 494 223 494 223 600 223 c 0,6,7
 701 223 701 223 770 301 c 0,8,9
 825 363 825 363 825 462 c 2,10,-1
 825 1500 l 1,11,-1
 1095 1500 l 1,12,-1
 1095 451 l 2,13,14
 1095 263 1095 263 964 126 c 0,15,16
 824 -20 824 -20 600 -20 c 0,17,18
 379 -20 379 -20 233 126 c 0,19,20
 105 254 105 254 105 451 c 2,21,-1
 105 1500 l 1,0,-1
EndSplineSet
Validated: 1
EndChar

StartChar: V
Encoding: 86 86 57
Width: 1200
GlyphClass: 2
Flags: W
HStem: 0 21G<302 898> 1480 20G<5 327.5 870.5 1195>
VStem: 5 270<1230 1500> 925 270<1230 1500>
LayerCount: 2
Fore
SplineSet
465 0 m 1,0,1
 139 780 139 780 5 1500 c 1,2,-1
 275 1500 l 1,3,4
 380 880 380 880 600 304 c 1,5,6
 816 870 816 870 925 1500 c 1,7,-1
 1195 1500 l 1,8,9
 1061 780 1061 780 735 0 c 1,10,-1
 465 0 l 1,0,1
EndSplineSet
Validated: 1
EndChar

StartChar: W
Encoding: 87 87 58
Width: 1200
GlyphClass: 2
Flags: W
HStem: 0 21G<155 503.5 690.5 1042> 1480 20G<10 280 920 1190>
VStem: 10 270<1041.54 1500> 477 232<675.707 1036> 920 270<1053.02 1500>
LayerCount: 2
Fore
SplineSet
250 0 m 1,0,1
 60 742 60 742 10 1500 c 1,2,-1
 280 1500 l 1,3,4
 280 952 280 952 367 426 c 1,5,6
 477 755 477 755 477 1036 c 1,7,-1
 709 1036 l 1,8,9
 709 747 709 747 835 403 c 1,10,11
 920 942 920 942 920 1500 c 1,12,-1
 1190 1500 l 1,13,14
 1134 746 1134 746 950 0 c 1,15,-1
 745 0 l 1,16,17
 636 326 636 326 592 619 c 1,18,19
 552 332 552 332 455 0 c 1,20,-1
 250 0 l 1,0,1
EndSplineSet
Validated: 19457
EndChar

StartChar: X
Encoding: 88 88 59
Width: 1200
GlyphClass: 2
Flags: W
HStem: 0 21G<55 416 785 1145> 1480 20G<55 390.5 808 1145>
VStem: 55 296<0 296> 849 296<0 296>
DStem2: 600 866 744 609 0.421603 0.906781<0 690.84>
LayerCount: 2
Fore
SplineSet
55 0 m 1,0,1
 261 267 261 267 456 609 c 1,2,3
 217 1070 217 1070 55 1500 c 1,4,-1
 325 1500 l 1,5,6
 456 1156 456 1156 600 866 c 1,7,8
 741 1153 741 1153 875 1500 c 1,9,-1
 1145 1500 l 1,10,11
 989 1070 989 1070 744 609 c 1,12,13
 939 267 939 267 1145 0 c 1,14,-1
 849 0 l 1,15,16
 721 165 721 165 600 361 c 1,17,18
 481 164 481 164 351 0 c 1,19,-1
 55 0 l 1,0,1
EndSplineSet
Validated: 1
EndChar

StartChar: Y
Encoding: 89 89 60
Width: 1200
GlyphClass: 2
Flags: W
HStem: 0 21G<465 735> 1480 20G<55 388 816.5 1145>
VStem: 465 270<0 666.395>
LayerCount: 2
Fore
SplineSet
465 0 m 1,0,-1
 465 592 l 1,1,2
 205 1070 205 1070 55 1500 c 1,3,-1
 325 1500 l 1,4,5
 451 1149 451 1149 601 851 c 1,6,7
 758 1147 758 1147 875 1500 c 1,8,-1
 1145 1500 l 1,9,10
 1001 1070 1001 1070 735 592 c 1,11,-1
 735 0 l 1,12,-1
 465 0 l 1,0,-1
EndSplineSet
Validated: 1
EndChar

StartChar: Z
Encoding: 90 90 61
Width: 1200
GlyphClass: 2
Flags: W
HStem: 0 250<444 1095> 1250 250<173 734>
LayerCount: 2
Fore
SplineSet
105 0 m 1,0,-1
 105 250 l 1,1,2
 546 718 546 718 734 1250 c 1,3,-1
 173 1250 l 1,4,-1
 173 1500 l 1,5,-1
 1093 1500 l 1,6,7
 896 806 896 806 444 250 c 1,8,-1
 1095 252 l 1,9,-1
 1095 0 l 1,10,-1
 105 0 l 1,0,-1
EndSplineSet
Validated: 1
EndChar

StartChar: bracketleft
Encoding: 91 91 62
Width: 1200
GlyphClass: 2
Flags: W
HStem: -260 250<563 897> 1510 250<563 897>
VStem: 303 594<-260 -10 1510 1760> 303 260<-10 1510>
LayerCount: 2
Fore
SplineSet
303 1760 m 1,0,-1
 897 1760 l 1,1,-1
 897 1510 l 1,2,-1
 563 1510 l 1,3,-1
 563 -10 l 1,4,-1
 897 -10 l 1,5,-1
 897 -260 l 1,6,-1
 303 -260 l 1,7,-1
 303 1760 l 1,0,-1
EndSplineSet
Validated: 1
EndChar

StartChar: backslash
Encoding: 92 92 63
Width: 1200
GlyphClass: 2
Flags: W
DStem2: 267 1760 0 1760 0.419315 -0.907841<0 2112.26>
LayerCount: 2
Fore
SplineSet
0 1760 m 1,0,-1
 267 1760 l 1,1,-1
 1200 -260 l 1,2,-1
 931 -260 l 1,3,-1
 0 1760 l 1,0,-1
EndSplineSet
Validated: 1
EndChar

StartChar: bracketright
Encoding: 93 93 64
Width: 1200
GlyphClass: 2
Flags: W
HStem: -260 250<303 637> 1510 250<303 637>
VStem: 303 594<-260 -10 1510 1760> 637 260<-10 1510>
LayerCount: 2
Fore
SplineSet
303 1760 m 1,0,-1
 897 1760 l 1,1,-1
 897 -260 l 1,2,-1
 303 -260 l 1,3,-1
 303 -10 l 1,4,-1
 637 -10 l 1,5,-1
 637 1510 l 1,6,-1
 303 1510 l 1,7,-1
 303 1760 l 1,0,-1
EndSplineSet
Validated: 1
EndChar

StartChar: asciicircum
Encoding: 94 94 65
Width: 1200
GlyphClass: 2
Flags: W
HStem: 968 532
LayerCount: 2
Fore
SplineSet
140 1181 m 1,0,-1
 576 1500 l 1,1,-1
 624 1500 l 1,2,-1
 1060 1181 l 1,3,-1
 912 968 l 1,4,-1
 601 1238 l 1,5,-1
 288 968 l 1,6,-1
 140 1181 l 1,0,-1
EndSplineSet
Validated: 1
EndChar

StartChar: underscore
Encoding: 95 95 66
Width: 1200
GlyphClass: 2
Flags: W
HStem: -282 250<141 1059>
LayerCount: 2
Fore
SplineSet
141 -32 m 1,0,-1
 1059 -32 l 1,1,-1
 1059 -282 l 1,2,-1
 141 -282 l 1,3,-1
 141 -32 l 1,0,-1
EndSplineSet
Validated: 1
EndChar

StartChar: grave
Encoding: 96 96 67
Width: 1200
GlyphClass: 2
Flags: W
HStem: 897 623
VStem: 360 480
LayerCount: 2
Fore
SplineSet
360 1391 m 1,0,-1
 624 1520 l 1,1,-1
 840 996 l 1,2,-1
 628 897 l 1,3,-1
 360 1391 l 1,0,-1
EndSplineSet
Validated: 1
EndChar

StartChar: a
Encoding: 97 97 68
Width: 1200
GlyphClass: 2
Flags: W
HStem: -20 243<433.754 674.719> 0 21G<777 1047> 462 236<440.666 771> 874 246<478.326 725.128>
VStem: 135 262<252.617 421.589> 777 270<0 100 698 821.75>
LayerCount: 2
Fore
SplineSet
1047 0 m 1,0,-1
 777 0 l 1,1,-1
 777 100 l 1,2,3
 677 -20 677 -20 513 -20 c 0,4,5
 327 -20 327 -20 226 92 c 0,6,7
 135 193 135 193 135 323 c 0,8,9
 135 511 135 511 292 616 c 0,10,11
 415 698 415 698 581 698 c 2,12,-1
 771 698 l 1,13,14
 767 773 767 773 746 804 c 0,15,16
 699 874 699 874 612 874 c 0,17,18
 499 874 499 874 413 769 c 9,19,-1
 222 942 l 17,20,21
 383 1120 383 1120 618 1120 c 0,22,23
 845 1120 845 1120 968 952 c 0,24,25
 1047 844 1047 844 1047 647 c 2,26,-1
 1047 0 l 1,0,-1
775 462 m 1,27,-1
 584 462 l 2,28,29
 492 462 492 462 439 422 c 0,30,31
 397 390 397 390 397 332 c 0,32,33
 397 286 397 286 441 252 c 0,34,35
 479 223 479 223 549 223 c 0,36,37
 637 223 637 223 690 281 c 0,38,39
 763 361 763 361 775 462 c 1,27,-1
EndSplineSet
Validated: 1
EndChar

StartChar: b
Encoding: 98 98 69
Width: 1200
GlyphClass: 2
Flags: W
HStem: -20 247<493.091 722.033> 0 21G<141 411> 873 247<492.355 721.626> 1480 20G<141 411>
VStem: 141 270<0 79 318.015 781.915 1016 1500> 805 270<321.603 777.617>
LayerCount: 2
Fore
SplineSet
611 873 m 0,0,1
 506 873 506 873 453 779 c 0,2,3
 409 700 409 700 409 550 c 0,4,5
 409 393 409 393 455 318 c 0,6,7
 512 227 512 227 607 227 c 0,8,9
 705 227 705 227 759 318 c 0,10,11
 805 396 805 396 805 550 c 0,12,13
 805 697 805 697 760 778 c 0,14,15
 706 873 706 873 611 873 c 0,0,1
141 0 m 1,16,-1
 141 1500 l 1,17,-1
 411 1500 l 1,18,-1
 411 1016 l 1,19,20
 503 1120 503 1120 642 1120 c 0,21,22
 815 1120 815 1120 950 955 c 0,23,24
 1075 802 1075 802 1075 550 c 128,-1,25
 1075 298 1075 298 950 145 c 0,26,27
 815 -20 815 -20 642 -20 c 0,28,29
 504 -20 504 -20 411 79 c 1,30,-1
 411 0 l 1,31,-1
 141 0 l 1,16,-1
EndSplineSet
Validated: 1
EndChar

StartChar: c
Encoding: 99 99 70
Width: 1200
GlyphClass: 2
Flags: W
HStem: -20 247<482.441 721.448> 873 247<477.641 717.225>
VStem: 125 270<321.542 778.32>
LayerCount: 2
Fore
SplineSet
1055 364 m 1,0,1
 1025 237 1025 237 950 145 c 0,2,3
 815 -20 815 -20 600 -20 c 128,-1,4
 385 -20 385 -20 250 145 c 0,5,6
 125 298 125 298 125 550 c 128,-1,7
 125 802 125 802 250 955 c 0,8,9
 385 1120 385 1120 600 1120 c 128,-1,10
 815 1120 815 1120 950 955 c 0,11,12
 1025 863 1025 863 1055 736 c 9,13,-1
 779 736 l 17,14,15
 770 759 770 759 759 778 c 0,16,17
 704 873 704 873 600 873 c 0,18,19
 491 873 491 873 441 782 c 0,20,21
 395 699 395 699 395 550 c 0,22,23
 395 392 395 392 441 318 c 0,24,25
 499 227 499 227 603 227 c 0,26,27
 704 227 704 227 759 318 c 0,28,29
 771 338 771 338 780 364 c 1,30,-1
 1055 364 l 1,0,1
EndSplineSet
Validated: 1
EndChar

StartChar: d
Encoding: 100 100 71
Width: 1200
GlyphClass: 2
Flags: W
HStem: -20 247<477.967 706.909> 0 21G<789 1059> 873 247<478.374 707.645> 1480 20G<789 1059>
VStem: 125 270<321.603 777.617> 789 270<0 79 318.015 781.915 1016 1500>
LayerCount: 2
Fore
SplineSet
589 873 m 0,0,1
 494 873 494 873 440 778 c 0,2,3
 395 697 395 697 395 550 c 0,4,5
 395 396 395 396 441 318 c 0,6,7
 495 227 495 227 593 227 c 0,8,9
 688 227 688 227 745 318 c 0,10,11
 791 393 791 393 791 550 c 0,12,13
 791 700 791 700 747 779 c 0,14,15
 694 873 694 873 589 873 c 0,0,1
1059 0 m 1,16,-1
 789 0 l 1,17,-1
 789 79 l 1,18,19
 696 -20 696 -20 558 -20 c 0,20,21
 385 -20 385 -20 250 145 c 0,22,23
 125 298 125 298 125 550 c 128,-1,24
 125 802 125 802 250 955 c 0,25,26
 385 1120 385 1120 558 1120 c 0,27,28
 697 1120 697 1120 789 1016 c 1,29,-1
 789 1500 l 1,30,-1
 1059 1500 l 1,31,-1
 1059 0 l 1,16,-1
EndSplineSet
Validated: 1
EndChar

StartChar: e
Encoding: 101 101 72
Width: 1200
GlyphClass: 2
Flags: W
HStem: -20 247<479.026 721.448> 873 247<477.641 721.297>
DStem2: 396 601 410 395 0.969192 0.246306<0 403.354>
LayerCount: 2
Fore
SplineSet
1055 364 m 1,0,1
 1025 237 1025 237 950 145 c 0,2,3
 815 -20 815 -20 600 -20 c 128,-1,4
 385 -20 385 -20 250 145 c 0,5,6
 125 298 125 298 125 550 c 128,-1,7
 125 802 125 802 250 955 c 0,8,9
 385 1120 385 1120 600 1120 c 128,-1,10
 815 1120 815 1120 950 955 c 0,11,12
 1075 802 1075 802 1075 564 c 1,13,-1
 410 395 l 1,14,15
 422 349 422 349 441 318 c 0,16,17
 497 227 497 227 603 227 c 0,18,19
 704 227 704 227 759 318 c 0,20,21
 771 338 771 338 780 364 c 1,22,-1
 1055 364 l 1,0,1
396 601 m 1,23,-1
 786 704 l 1,24,25
 776 745 776 745 759 778 c 0,26,27
 709 873 709 873 600 873 c 128,-1,28
 491 873 491 873 441 782 c 0,29,30
 403 713 403 713 396 601 c 1,23,-1
EndSplineSet
Validated: 1
EndChar

StartChar: f
Encoding: 102 102 73
Width: 1200
GlyphClass: 2
Flags: W
HStem: 0 21G<465 735> 745 233<141 465 735 1059> 1277 243<776.454 1004.64>
VStem: 465 270<0 745 978 1228.61>
LayerCount: 2
Fore
SplineSet
465 0 m 1,0,-1
 465 745 l 1,1,-1
 141 745 l 1,2,-1
 141 978 l 1,3,-1
 465 978 l 1,4,-1
 465 1085 l 2,5,6
 465 1299 465 1299 562 1403 c 0,7,8
 671 1520 671 1520 874 1520 c 0,9,10
 1071 1520 1071 1520 1184 1387 c 1,11,-1
 1043 1196 l 1,12,13
 973 1277 973 1277 885 1277 c 0,14,15
 812 1277 812 1277 772 1230 c 0,16,17
 735 1186 735 1186 735 1069 c 2,18,-1
 735 978 l 1,19,-1
 1059 978 l 1,20,-1
 1059 745 l 1,21,-1
 735 745 l 1,22,-1
 735 0 l 1,23,-1
 465 0 l 1,0,-1
EndSplineSet
Validated: 1
EndChar

StartChar: g
Encoding: 103 103 74
Width: 1200
GlyphClass: 2
Flags: W
HStem: -420 247<465.639 719.219> -20 247<477.967 706.732> 873 247<478.374 707.645> 1080 20G<789 1059>
VStem: 125 270<321.603 777.617> 789 270<-98.3259 80 318.015 781.915 1016 1100>
LayerCount: 2
Fore
SplineSet
589 873 m 0,0,1
 494 873 494 873 440 778 c 0,2,3
 395 697 395 697 395 550 c 0,4,5
 395 396 395 396 441 318 c 0,6,7
 495 227 495 227 593 227 c 0,8,9
 688 227 688 227 745 318 c 0,10,11
 791 393 791 393 791 550 c 0,12,13
 791 700 791 700 747 779 c 0,14,15
 694 873 694 873 589 873 c 0,0,1
1059 1100 m 1,16,-1
 1059 168 l 2,17,18
 1059 -95 1059 -95 944 -245 c 0,19,20
 810 -420 810 -420 578.5 -420 c 128,-1,21
 347 -420 347 -420 185 -196 c 1,22,-1
 400 -56 l 1,23,24
 472 -173 472 -173 596 -173 c 0,25,26
 711 -173 711 -173 760 -73 c 0,27,28
 786 -20 786 -20 786 80 c 1,29,30
 683 -20 683 -20 558 -20 c 0,31,32
 385 -20 385 -20 250 145 c 0,33,34
 125 298 125 298 125 550 c 128,-1,35
 125 802 125 802 250 955 c 0,36,37
 385 1120 385 1120 558 1120 c 0,38,39
 697 1120 697 1120 789 1016 c 1,40,-1
 789 1100 l 1,41,-1
 1059 1100 l 1,16,-1
EndSplineSet
Validated: 1
EndChar

StartChar: h
Encoding: 104 104 75
Width: 1200
GlyphClass: 2
Flags: W
HStem: 0 21G<141 411 789 1059> 877 243<512.555 742.914> 1480 20G<141 411>
VStem: 141 270<0 768.545 998 1500> 789 270<0 824.517>
LayerCount: 2
Fore
SplineSet
141 0 m 1,0,-1
 141 1500 l 1,1,-1
 411 1500 l 1,2,-1
 411 998 l 1,3,4
 513 1120 513 1120 683 1120 c 0,5,6
 846 1120 846 1120 957 1002 c 0,7,8
 1059 894 1059 894 1059 689 c 2,9,-1
 1059 0 l 1,10,-1
 789 0 l 1,11,-1
 789 675 l 2,12,13
 789 779 789 779 749 826 c 0,14,15
 706 877 706 877 639 877 c 0,16,17
 551 877 551 877 487 810 c 24,18,19
 411 730 411 730 411 578 c 2,20,-1
 411 0 l 1,21,-1
 141 0 l 1,0,-1
EndSplineSet
Validated: 1
EndChar

StartChar: i
Encoding: 105 105 76
Width: 1200
GlyphClass: 2
Flags: W
HStem: -20 243<776.454 1004.64> 850 250<141 465> 1166 354<441.699 679.883>
VStem: 381 358<1225.12 1459.71> 465 270<271.393 850>
LayerCount: 2
Fore
SplineSet
1184 113 m 17,0,1
 1071 -20 1071 -20 874 -20 c 0,2,3
 671 -20 671 -20 562 97 c 0,4,5
 465 201 465 201 465 415 c 2,6,-1
 465 850 l 1,7,-1
 141 850 l 1,8,-1
 141 1100 l 1,9,-1
 735 1100 l 1,10,-1
 735 431 l 2,11,12
 735 314 735 314 772 270 c 0,13,14
 812 223 812 223 885 223 c 0,15,16
 973 223 973 223 1043 304 c 9,17,-1
 1184 113 l 17,0,1
560 1520 m 0,18,19
 638 1520 638 1520 686 1470 c 0,20,21
 739 1416 739 1416 739 1343 c 0,22,23
 739 1268 739 1268 687 1217 c 128,-1,24
 635 1166 635 1166 560 1166 c 128,-1,25
 485 1166 485 1166 435 1215 c 0,26,27
 381 1267 381 1267 381 1343 c 128,-1,28
 381 1419 381 1419 435 1470 c 0,29,30
 488 1520 488 1520 560 1520 c 0,18,19
EndSplineSet
Validated: 1
EndChar

StartChar: j
Encoding: 106 106 77
Width: 1200
GlyphClass: 2
Flags: W
HStem: -420 243<304.356 532.546> 850 250<250 574> 1166 354<550.699 788.883>
VStem: 490 358<1225.12 1459.71> 574 270<-128.669 850>
LayerCount: 2
Fore
SplineSet
669 1520 m 0,0,1
 747 1520 747 1520 795 1470 c 0,2,3
 848 1416 848 1416 848 1343 c 0,4,5
 848 1268 848 1268 796 1217 c 128,-1,6
 744 1166 744 1166 669 1166 c 128,-1,7
 594 1166 594 1166 544 1215 c 0,8,9
 490 1267 490 1267 490 1343 c 128,-1,10
 490 1419 490 1419 544 1470 c 0,11,12
 597 1520 597 1520 669 1520 c 0,0,1
250 1100 m 1,13,-1
 844 1100 l 1,14,-1
 844 15 l 2,15,16
 844 -199 844 -199 747 -303 c 0,17,18
 638 -420 638 -420 435 -420 c 0,19,20
 238 -420 238 -420 125 -287 c 9,21,-1
 266 -96 l 17,22,23
 336 -177 336 -177 424 -177 c 0,24,25
 497 -177 497 -177 537 -130 c 0,26,27
 574 -88 574 -88 574 31 c 2,28,-1
 574 850 l 1,29,-1
 250 850 l 1,30,-1
 250 1100 l 1,13,-1
EndSplineSet
Validated: 1
EndChar

StartChar: k
Encoding: 107 107 78
Width: 1200
GlyphClass: 2
Flags: W
HStem: 0 21G<141 411 752.5 1059> 1080 20G<722 1040> 1480 20G<141 411>
VStem: 141 270<0 193.305 448 1500> 770 270<958.859 1100>
LayerCount: 2
Fore
SplineSet
141 0 m 1,0,-1
 141 1500 l 1,1,-1
 411 1500 l 1,2,-1
 411 448 l 1,3,4
 674 712 674 712 770 1100 c 1,5,-1
 1040 1100 l 1,6,7
 969 808 969 808 794 552 c 1,8,9
 951 312 951 312 1059 0 c 1,10,-1
 787 0 l 1,11,12
 718 197 718 197 625 349 c 1,13,14
 534 254 534 254 411 157 c 1,15,-1
 411 0 l 1,16,-1
 141 0 l 1,0,-1
EndSplineSet
Validated: 1
EndChar

StartChar: l
Encoding: 108 108 79
Width: 1200
GlyphClass: 2
Flags: W
HStem: -20 243<776.454 1004.64> 1250 250<141 465>
VStem: 465 270<271.393 1250>
LayerCount: 2
Fore
SplineSet
1184 113 m 17,0,1
 1071 -20 1071 -20 874 -20 c 0,2,3
 671 -20 671 -20 562 97 c 0,4,5
 465 201 465 201 465 415 c 2,6,-1
 465 1250 l 1,7,-1
 141 1250 l 1,8,-1
 141 1500 l 1,9,-1
 735 1500 l 1,10,-1
 735 431 l 2,11,12
 735 314 735 314 772 270 c 0,13,14
 812 223 812 223 885 223 c 0,15,16
 973 223 973 223 1043 304 c 9,17,-1
 1184 113 l 17,0,1
EndSplineSet
Validated: 1
EndChar

StartChar: m
Encoding: 109 109 80
Width: 1200
GlyphClass: 2
Flags: W
HStem: 0 21G<109 339 486 714 861 1091> 876 244<400.13 589 748.201 936.5> 1080 20G<109 339>
VStem: 109 230<0 827.058 998 1100> 486 228<0 825.305> 861 230<0 825.305>
CounterMasks: 1 1c
LayerCount: 2
Fore
SplineSet
109 0 m 1,0,-1
 109 1100 l 1,1,-1
 339 1100 l 1,2,-1
 339 998 l 1,3,4
 402 1120 402 1120 532 1120 c 0,5,6
 646 1120 646 1120 693 992 c 1,7,8
 741 1120 741 1120 878 1120 c 0,9,10
 995 1120 995 1120 1055 1004 c 0,11,12
 1091 934 1091 934 1091 765 c 2,13,-1
 1091 0 l 1,14,-1
 861 0 l 1,15,-1
 861 750 l 2,16,17
 861 804 861 804 852 826 c 0,18,19
 832 876 832 876 789 876 c 0,20,21
 743 876 743 876 725 828 c 0,22,23
 714 798 714 798 714 750 c 2,24,-1
 714 0 l 1,25,-1
 486 0 l 1,26,-1
 486 750 l 2,27,28
 486 804 486 804 477 826 c 0,29,30
 457 876 457 876 414 876 c 0,31,32
 368 876 368 876 350 828 c 0,33,34
 339 798 339 798 339 750 c 2,35,-1
 339 0 l 1,36,-1
 109 0 l 1,0,-1
EndSplineSet
Validated: 1
EndChar

StartChar: n
Encoding: 110 110 81
Width: 1200
GlyphClass: 2
Flags: W
HStem: 0 21G<141 411 789 1059> 877 243<512.555 742.914> 1080 20G<141 411>
VStem: 141 270<0 768.545 998 1100> 789 270<0 824.517>
LayerCount: 2
Fore
SplineSet
141 0 m 1,0,-1
 141 1100 l 1,1,-1
 411 1100 l 1,2,-1
 411 998 l 1,3,4
 513 1120 513 1120 683 1120 c 0,5,6
 846 1120 846 1120 957 1002 c 0,7,8
 1059 894 1059 894 1059 689 c 2,9,-1
 1059 0 l 1,10,-1
 789 0 l 1,11,-1
 789 675 l 2,12,13
 789 779 789 779 749 826 c 0,14,15
 706 877 706 877 639 877 c 0,16,17
 551 877 551 877 487 810 c 24,18,19
 411 730 411 730 411 578 c 2,20,-1
 411 0 l 1,21,-1
 141 0 l 1,0,-1
EndSplineSet
Validated: 1
EndChar

StartChar: o
Encoding: 111 111 82
Width: 1200
GlyphClass: 2
Flags: W
HStem: -20 247<482.441 721.03> 873 247<478.058 717.01>
VStem: 125 270<321.542 778.32> 805 270<321.557 773.221>
LayerCount: 2
Fore
SplineSet
600 873 m 0,0,1
 493 873 493 873 441 782 c 0,2,3
 395 699 395 699 395 550 c 0,4,5
 395 392 395 392 441 318 c 0,6,7
 499 227 499 227 603 227 c 0,8,9
 702 227 702 227 759 318 c 0,10,11
 805 393 805 393 805 550 c 0,12,13
 805 700 805 700 759 778 c 0,14,15
 703 873 703 873 600 873 c 0,0,1
600 -20 m 128,-1,17
 385 -20 385 -20 250 145 c 0,18,19
 125 298 125 298 125 550 c 128,-1,20
 125 802 125 802 250 955 c 0,21,22
 385 1120 385 1120 600 1120 c 128,-1,23
 815 1120 815 1120 950 955 c 0,24,25
 1075 802 1075 802 1075 550 c 128,-1,26
 1075 298 1075 298 950 145 c 0,27,16
 815 -20 815 -20 600 -20 c 128,-1,17
EndSplineSet
Validated: 1
EndChar

StartChar: p
Encoding: 112 112 83
Width: 1200
GlyphClass: 2
Flags: W
HStem: -400 21G<141 411> -20 247<492.355 721.626> 873 247<493.091 722.033> 1080 20G<141 411>
VStem: 141 270<-400 84 318.085 781.985 1021 1100> 805 270<322.383 778.397>
LayerCount: 2
Fore
SplineSet
611 227 m 0,0,1
 706 227 706 227 760 322 c 0,2,3
 805 403 805 403 805 550 c 0,4,5
 805 704 805 704 759 782 c 0,6,7
 705 873 705 873 607 873 c 0,8,9
 512 873 512 873 455 782 c 0,10,11
 409 707 409 707 409 550 c 0,12,13
 409 400 409 400 453 321 c 0,14,15
 506 227 506 227 611 227 c 0,0,1
141 1100 m 1,16,-1
 411 1100 l 1,17,-1
 411 1021 l 1,18,19
 504 1120 504 1120 642 1120 c 0,20,21
 815 1120 815 1120 950 955 c 0,22,23
 1075 802 1075 802 1075 550 c 128,-1,24
 1075 298 1075 298 950 145 c 0,25,26
 815 -20 815 -20 642 -20 c 0,27,28
 503 -20 503 -20 411 84 c 1,29,-1
 411 -400 l 1,30,-1
 141 -400 l 1,31,-1
 141 1100 l 1,16,-1
EndSplineSet
Validated: 1
EndChar

StartChar: q
Encoding: 113 113 84
Width: 1200
GlyphClass: 2
Flags: W
HStem: -400 21G<789 920.5> -20 247<478.374 707.645> 873 247<477.967 706.909> 1080 20G<789 1059>
VStem: 125 270<322.383 778.397> 789 270<-84 84 318.085 781.985 1021 1100>
LayerCount: 2
Fore
SplineSet
589 227 m 0,0,1
 694 227 694 227 747 321 c 0,2,3
 791 400 791 400 791 550 c 0,4,5
 791 707 791 707 745 782 c 0,6,7
 688 873 688 873 593 873 c 0,8,9
 495 873 495 873 441 782 c 0,10,11
 395 704 395 704 395 550 c 0,12,13
 395 403 395 403 440 322 c 0,14,15
 494 227 494 227 589 227 c 0,0,1
1059 1100 m 1,16,-1
 1059 -84 l 1,17,18
 1135 -50 1135 -50 1200 80 c 1,19,-1
 1200 -240 l 1,20,21
 1052 -400 1052 -400 789 -400 c 1,22,-1
 789 84 l 1,23,24
 697 -20 697 -20 558 -20 c 0,25,26
 385 -20 385 -20 250 145 c 0,27,28
 125 298 125 298 125 550 c 128,-1,29
 125 802 125 802 250 955 c 0,30,31
 385 1120 385 1120 558 1120 c 0,32,33
 696 1120 696 1120 789 1021 c 1,34,-1
 789 1100 l 1,35,-1
 1059 1100 l 1,16,-1
EndSplineSet
Validated: 1
EndChar

StartChar: r
Encoding: 114 114 85
Width: 1200
GlyphClass: 2
Flags: W
HStem: 0 21G<141 411> 877 243<512.555 742.914> 1080 20G<141 411>
VStem: 141 270<0 768.545 998 1100> 789 270<675 824.517>
LayerCount: 2
Fore
SplineSet
141 0 m 1,0,-1
 141 1100 l 1,1,-1
 411 1100 l 1,2,-1
 411 998 l 1,3,4
 513 1120 513 1120 683 1120 c 0,5,6
 846 1120 846 1120 957 1002 c 0,7,8
 1059 894 1059 894 1059 675 c 9,9,-1
 789 675 l 17,10,11
 789 779 789 779 749 826 c 0,12,13
 706 877 706 877 639 877 c 0,14,15
 551 877 551 877 487 810 c 24,16,17
 411 730 411 730 411 578 c 2,18,-1
 411 0 l 1,19,-1
 141 0 l 1,0,-1
EndSplineSet
Validated: 1
EndChar

StartChar: s
Encoding: 115 115 86
Width: 1200
GlyphClass: 2
Flags: W
HStem: -20 246<478.209 733.789> 884 236<477.206 674.045>
VStem: 162 258<285.054 402> 198 256<752.797 865.183> 770 268<263.085 418.133>
DStem2: 761 662 441 516 0.951783 -0.306773<-334.951 93.5172>
LayerCount: 2
Fore
SplineSet
162 402 m 9,0,-1
 420 402 l 17,1,2
 420 321 420 321 470 276 c 0,3,4
 526 226 526 226 605 226 c 0,5,6
 680 226 680 226 723 261 c 0,7,8
 770 298 770 298 770 346 c 24,9,10
 770 410 770 410 683 438 c 2,11,-1
 441 516 l 2,12,13
 198 595 198 595 198 803 c 24,14,15
 198 954 198 954 337 1051 c 0,16,17
 436 1120 436 1120 587 1120 c 0,18,19
 769 1120 769 1120 877 996 c 0,20,21
 967 893 967 893 967 749 c 9,22,-1
 708 749 l 17,23,24
 708 804 708 804 676 840 c 0,25,26
 635 884 635 884 579 884 c 128,-1,27
 523 884 523 884 488.5 864.5 c 152,-1,28
 454 845 454 845 454 810 c 0,29,30
 454 761 454 761 555 728 c 2,31,-1
 761 662 l 2,32,33
 1038 572 1038 572 1038 351 c 24,34,35
 1038 196 1038 196 912 85 c 0,36,37
 793 -20 793 -20 598 -20 c 0,38,39
 395 -20 395 -20 276 98 c 0,40,41
 162 211 162 211 162 402 c 9,0,-1
EndSplineSet
Validated: 1
EndChar

StartChar: t
Encoding: 116 116 87
Width: 1200
GlyphClass: 2
Flags: W
HStem: -20 243<776.454 1004.64> 850 250<141 465 735 1059> 1480 20G<465 735>
VStem: 465 270<271.393 850 1100 1500>
LayerCount: 2
Fore
SplineSet
1184 113 m 17,0,1
 1071 -20 1071 -20 874 -20 c 0,2,3
 671 -20 671 -20 562 97 c 0,4,5
 465 201 465 201 465 415 c 2,6,-1
 465 850 l 1,7,-1
 141 850 l 1,8,-1
 141 1100 l 1,9,-1
 465 1100 l 1,10,-1
 465 1500 l 1,11,-1
 735 1500 l 1,12,-1
 735 1100 l 1,13,-1
 1059 1100 l 1,14,-1
 1059 850 l 1,15,-1
 735 850 l 1,16,-1
 735 431 l 2,17,18
 735 314 735 314 772 270 c 0,19,20
 812 223 812 223 885 223 c 0,21,22
 973 223 973 223 1043 304 c 9,23,-1
 1184 113 l 17,0,1
EndSplineSet
Validated: 1
EndChar

StartChar: u
Encoding: 117 117 88
Width: 1200
GlyphClass: 2
Flags: W
HStem: -20 243<457.086 687.445> 0 21G<789 1059> 1080 20G<141 411 789 1059>
VStem: 141 270<275.483 1100> 789 270<0 102 331.455 1100>
LayerCount: 2
Fore
SplineSet
1059 0 m 1,0,-1
 789 0 l 1,1,-1
 789 102 l 1,2,3
 687 -20 687 -20 517 -20 c 0,4,5
 354 -20 354 -20 243 98 c 0,6,7
 141 206 141 206 141 411 c 2,8,-1
 141 1100 l 1,9,-1
 411 1100 l 1,10,-1
 411 425 l 2,11,12
 411 321 411 321 451 274 c 0,13,14
 494 223 494 223 561 223 c 0,15,16
 649 223 649 223 713 290 c 24,17,18
 789 370 789 370 789 522 c 2,19,-1
 789 1100 l 1,20,-1
 1059 1100 l 1,21,-1
 1059 0 l 1,0,-1
EndSplineSet
Validated: 1
EndChar

StartChar: v
Encoding: 118 118 89
Width: 1200
GlyphClass: 2
Flags: W
HStem: 0 21G<339 861> 1080 20G<55 392.5 815 1145>
VStem: 55 270<928.076 1100> 875 270<924.438 1100>
LayerCount: 2
Fore
SplineSet
465 0 m 1,0,1
 213 376 213 376 55 1100 c 1,2,-1
 325 1100 l 1,3,4
 460 525 460 525 603 268 c 1,5,6
 755 526 755 526 875 1100 c 1,7,-1
 1145 1100 l 1,8,9
 987 376 987 376 735 0 c 1,10,-1
 465 0 l 1,0,1
EndSplineSet
Validated: 1
EndChar

StartChar: w
Encoding: 119 119 90
Width: 1200
GlyphClass: 2
Flags: W
HStem: 0 21G<176 540 662.5 1024> 1080 20G<19 297.5 900.5 1181>
VStem: 19 270<804.691 1100> 485 231<462.988 836> 911 270<804.691 1100>
LayerCount: 2
Fore
SplineSet
265 0 m 1,0,1
 87 542 87 542 19 1100 c 1,2,-1
 289 1100 l 1,3,4
 306 648 306 648 394 295 c 1,5,6
 485 565 485 565 485 836 c 1,7,-1
 716 836 l 1,8,9
 716 563 716 563 806 295 c 1,10,11
 890 622 890 622 911 1100 c 1,12,-1
 1181 1100 l 1,13,14
 1112 542 1112 542 936 0 c 1,15,-1
 686 0 l 1,16,17
 639 157 639 157 601 374 c 1,18,19
 565 160 565 160 515 0 c 1,20,-1
 265 0 l 1,0,1
EndSplineSet
Validated: 1
EndChar

StartChar: x
Encoding: 120 120 91
Width: 1200
GlyphClass: 2
Flags: W
HStem: 0 21G<85 452.5 744 1115> 1080 20G<85 410.5 789 1115>
LayerCount: 2
Fore
SplineSet
85 0 m 1,0,1
 279 176 279 176 447 392 c 1,2,3
 210 706 210 706 85 1100 c 1,4,-1
 372 1100 l 1,5,6
 449 834 449 834 600 581 c 1,7,8
 750 829 750 829 828 1100 c 1,9,-1
 1115 1100 l 1,10,11
 990 722 990 722 754 392 c 1,12,13
 913 180 913 180 1115 0 c 1,14,-1
 800 0 l 1,15,16
 688 92 688 92 598 205 c 1,17,18
 505 93 505 93 400 0 c 1,19,-1
 85 0 l 1,0,1
EndSplineSet
Validated: 1
EndChar

StartChar: y
Encoding: 121 121 92
Width: 1200
GlyphClass: 2
Flags: W
HStem: -420 247<465.401 714.511> -20 243<457.086 687.287> 1080 20G<141 411 789 1059>
VStem: 141 270<275.483 1100> 789 270<-92.1211 99 331.455 1100>
LayerCount: 2
Fore
SplineSet
141 1100 m 1,0,-1
 411 1100 l 1,1,-1
 411 425 l 2,2,3
 411 321 411 321 451 274 c 0,4,5
 494 223 494 223 561 223 c 0,6,7
 649 223 649 223 713 290 c 0,8,9
 789 370 789 370 789 522 c 2,10,-1
 789 1100 l 1,11,-1
 1059 1100 l 1,12,-1
 1059 168 l 2,13,14
 1059 -95 1059 -95 944 -245 c 0,15,16
 810 -420 810 -420 578.5 -420 c 128,-1,17
 347 -420 347 -420 185 -196 c 1,18,-1
 400 -56 l 1,19,20
 471 -173 471 -173 596 -173 c 0,21,22
 704 -173 704 -173 760 -73 c 0,23,24
 788 -20 788 -20 788 99 c 1,25,26
 687 -20 687 -20 517 -20 c 0,27,28
 354 -20 354 -20 243 98 c 0,29,30
 141 206 141 206 141 411 c 2,31,-1
 141 1100 l 1,0,-1
EndSplineSet
Validated: 1
EndChar

StartChar: z
Encoding: 122 122 93
Width: 1200
GlyphClass: 2
Flags: W
HStem: 0 250<510 1059> 850 250<177 682>
LayerCount: 2
Fore
SplineSet
141 0 m 1,0,-1
 141 250 l 1,1,2
 519 537 519 537 682 850 c 1,3,-1
 177 850 l 1,4,-1
 177 1100 l 1,5,-1
 1059 1100 l 1,6,7
 942 632 942 632 510 250 c 1,8,-1
 1059 250 l 1,9,-1
 1059 0 l 1,10,-1
 141 0 l 1,0,-1
EndSplineSet
Validated: 1
EndChar

StartChar: braceleft
Encoding: 123 123 94
Width: 1200
GlyphClass: 2
Flags: W
HStem: -260 250<734.5 1059> 625 250<141 432.078> 1510 250<734.5 1059>
VStem: 465 260<0.3125 591.021 909.434 1499.69>
CounterMasks: 1 e0
LayerCount: 2
Fore
SplineSet
1059 1760 m 1,0,-1
 1059 1510 l 1,1,-1
 817 1510 l 2,2,3
 725 1510 725 1510 725 1420 c 2,4,-1
 725 1010 l 2,5,6
 725 824 725 824 583 750 c 1,7,8
 725 689 725 689 725 490 c 2,9,-1
 725 80 l 2,10,11
 725 -10 725 -10 817 -10 c 2,12,-1
 1059 -10 l 1,13,-1
 1059 -260 l 1,14,-1
 817 -260 l 2,15,16
 465 -260 465 -260 465 80 c 2,17,-1
 465 490 l 2,18,19
 465 625 465 625 293 625 c 2,20,-1
 141 625 l 1,21,-1
 141 875 l 1,22,-1
 293 875 l 2,23,24
 465 875 465 875 465 1010 c 2,25,-1
 465 1420 l 2,26,27
 465 1760 465 1760 817 1760 c 2,28,-1
 1059 1760 l 1,0,-1
EndSplineSet
Validated: 1
EndChar

StartChar: bar
Encoding: 124 124 95
Width: 1200
GlyphClass: 2
Flags: W
VStem: 475 250<-260 1760>
LayerCount: 2
Fore
SplineSet
475 1760 m 1,0,-1
 725 1760 l 1,1,-1
 725 -260 l 1,2,-1
 475 -260 l 1,3,-1
 475 1760 l 1,0,-1
EndSplineSet
Validated: 1
EndChar

StartChar: braceright
Encoding: 125 125 96
Width: 1200
GlyphClass: 2
Flags: W
HStem: -260 250<141 465.5> 625 250<767.922 1059> 1510 250<141 465.5>
VStem: 475 260<0.3125 591.021 909.434 1499.69>
CounterMasks: 1 e0
LayerCount: 2
Fore
SplineSet
141 1760 m 1,0,-1
 383 1760 l 2,1,2
 735 1760 735 1760 735 1420 c 2,3,-1
 735 1010 l 2,4,5
 735 875 735 875 907 875 c 2,6,-1
 1059 875 l 1,7,-1
 1059 625 l 1,8,-1
 907 625 l 2,9,10
 735 625 735 625 735 490 c 2,11,-1
 735 80 l 2,12,13
 735 -260 735 -260 383 -260 c 2,14,-1
 141 -260 l 1,15,-1
 141 -10 l 1,16,-1
 383 -10 l 2,17,18
 475 -10 475 -10 475 80 c 2,19,-1
 475 490 l 2,20,21
 475 689 475 689 617 750 c 1,22,23
 475 824 475 824 475 1010 c 2,24,-1
 475 1420 l 2,25,26
 475 1510 475 1510 383 1510 c 2,27,-1
 141 1510 l 1,28,-1
 141 1760 l 1,0,-1
EndSplineSet
Validated: 1
EndChar

StartChar: asciitilde
Encoding: 126 126 97
Width: 1200
GlyphClass: 2
Flags: W
HStem: 471 259<690.477 834.59> 676 258<363.075 529.538>
VStem: 141 187<528 644.963> 869 190<760.301 877>
LayerCount: 2
Fore
SplineSet
141 528 m 1,0,1
 190 934 190 934 419 934 c 0,2,3
 528 934 528 934 632 827 c 0,4,5
 726 730 726 730 783 730 c 152,-1,6
 840 730 840 730 869 877 c 1,7,-1
 1059 877 l 1,8,9
 1010 472 1010 472 793 471 c 0,10,11
 702 471 702 471 568 599 c 0,12,13
 488 676 488 676 424 676 c 24,14,15
 356 676 356 676 328 528 c 1,16,-1
 141 528 l 1,0,1
EndSplineSet
Validated: 1
EndChar

StartChar: exclamdown
Encoding: 161 161 99
Width: 1200
GlyphClass: 2
Flags: W
HStem: -400 21G<445 755> 766 354<481.827 718.301>
VStem: 421 358<826.292 1059.06> 445 310<-400 4.992> 485 230<325.008 730>
LayerCount: 2
Fore
SplineSet
600 1120 m 0,0,1
 674 1120 674 1120 725 1071 c 0,2,3
 779 1019 779 1019 779 943 c 128,-1,4
 779 867 779 867 725 816 c 0,5,6
 672 766 672 766 600 766 c 0,7,8
 523 766 523 766 474 816 c 0,9,10
 421 870 421 870 421 943 c 0,11,12
 421 1017 421 1017 475 1069 c 0,13,14
 527 1120 527 1120 600 1120 c 0,0,1
755 -400 m 1,15,-1
 445 -400 l 1,16,-1
 485 730 l 1,17,-1
 715 730 l 1,18,-1
 755 -400 l 1,15,-1
EndSplineSet
Validated: 1
EndChar

StartChar: cent
Encoding: 162 162 100
Width: 1200
GlyphClass: 2
Flags: W
VStem: 125 270<321.511 778.57> 525 150<-259 -7.03125 242 858 1107.03 1348>
LayerCount: 2
Fore
SplineSet
675 -259 m 1,0,-1
 525 -259 l 1,1,-1
 525 -15 l 1,2,3
 361 10 361 10 250 145 c 0,4,5
 125 298 125 298 125 550 c 0,6,7
 125 803 125 803 250 955 c 0,8,9
 361 1090 361 1090 525 1115 c 1,10,-1
 525 1348 l 1,11,-1
 675 1348 l 1,12,-1
 675 1115 l 1,13,14
 839 1090 839 1090 950 955 c 0,15,16
 1025 864 1025 864 1055 736 c 1,17,-1
 779 736 l 1,18,19
 770 759 770 759 759 778 c 0,20,21
 726 835 726 835 675 858 c 1,22,-1
 675 241 l 1,23,24
 726 263 726 263 759 318 c 0,25,26
 771 338 771 338 780 364 c 1,27,-1
 1055 364 l 1,28,29
 1025 237 1025 237 950 145 c 0,30,31
 840 10 840 10 675 -15 c 1,32,-1
 675 -259 l 1,0,-1
525 242 m 1,33,-1
 525 860 l 1,34,35
 472 838 472 838 441 782 c 0,36,37
 395 699 395 699 395 550 c 0,38,39
 395 390 395 390 441 318 c 0,40,41
 475 265 475 265 525 242 c 1,33,-1
EndSplineSet
Validated: 1
EndChar

StartChar: sterling
Encoding: 163 163 101
Width: 1200
GlyphClass: 2
Flags: W
HStem: 0 250<68 174 444 1095> 619 250<68 174 444 783> 1275 245<492.491 733.265>
VStem: 174 270<250 619 869 1225.59> 792 258<1098 1217.49>
LayerCount: 2
Fore
SplineSet
68 0 m 1,0,-1
 68 250 l 1,1,-1
 174 250 l 1,2,-1
 174 619 l 1,3,-1
 68 619 l 1,4,-1
 68 869 l 1,5,-1
 174 869 l 1,6,-1
 174 1125 l 2,7,8
 174 1295 174 1295 299 1407 c 0,9,10
 425 1520 425 1520 614 1520 c 128,-1,11
 803 1520 803 1520 929 1399 c 0,12,13
 1050 1284 1050 1284 1050 1098 c 9,14,-1
 792 1098 l 17,15,16
 791 1177 791 1177 742 1224 c 0,17,18
 689 1275 689 1275 612 1275 c 0,19,20
 539 1275 539 1275 492 1231 c 0,21,22
 444 1186 444 1186 444 1102 c 2,23,-1
 444 869 l 1,24,-1
 783 869 l 1,25,-1
 783 619 l 1,26,-1
 444 619 l 1,27,-1
 444 250 l 1,28,-1
 1095 250 l 1,29,-1
 1095 0 l 1,30,-1
 68 0 l 1,0,-1
EndSplineSet
Validated: 1
EndChar

StartChar: currency
Encoding: 164 164 102
Width: 1200
GlyphClass: 2
Flags: W
HStem: 342 242<489.37 693.743> 863 242<487.891 693.436>
VStem: 209 243<621.208 828.403> 729 246<619.921 824.677>
DStem2: 298 1219 121 1039 0.698112 -0.715989<5.31227 208.895 907.877 1115.15> 121 423 298 238 0.698112 0.715989<0 201.237 889.565 1109.84>
LayerCount: 2
Fore
SplineSet
452 724 m 0,0,1
 452 664 452 664 490 624 c 128,-1,2
 528 584 528 584 589 584 c 0,3,4
 655 584 655 584 692 622 c 128,-1,5
 729 660 729 660 729 724 c 0,6,7
 729 785 729 785 693 822 c 0,8,9
 653 863 653 863 592 863 c 0,10,11
 527 863 527 863 491 827 c 24,12,13
 452 787 452 787 452 724 c 0,0,1
298 1219 m 1,14,-1
 435 1071 l 1,15,16
 507 1105 507 1105 592 1105 c 0,17,18
 683 1105 683 1105 760 1066 c 1,19,-1
 902 1219 l 1,20,-1
 1079 1039 l 1,21,-1
 938 895 l 1,22,23
 975 820 975 820 975 727 c 0,24,25
 975 638 975 638 941 564 c 1,26,-1
 1079 423 l 1,27,-1
 902 238 l 1,28,-1
 765 382 l 1,29,30
 688 342 688 342 592 342 c 0,31,32
 505 342 505 342 429 376 c 1,33,-1
 298 238 l 1,34,-1
 121 423 l 1,35,-1
 249 553 l 1,36,37
 209 632 209 632 209 727 c 0,38,39
 209 824 209 824 251 905 c 1,40,-1
 121 1039 l 1,41,-1
 298 1219 l 1,14,-1
EndSplineSet
Validated: 1
EndChar

StartChar: yen
Encoding: 165 165 103
Width: 1200
GlyphClass: 2
Flags: W
HStem: 0 21G<465 735> 400 210<141 455 745 1059> 730 210<141 287 916 1059> 1480 20G<55 378.5 825 1145>
VStem: 465 270<0 400>
LayerCount: 2
Fore
SplineSet
465 0 m 1,0,-1
 465 400 l 1,1,-1
 141 400 l 1,2,-1
 141 610 l 1,3,-1
 455 610 l 1,4,-1
 392 730 l 1,5,-1
 141 730 l 1,6,-1
 141 940 l 1,7,-1
 287 940 l 1,8,9
 149 1229 149 1229 55 1500 c 1,10,-1
 325 1500 l 1,11,12
 432 1201 432 1201 557 940 c 1,13,-1
 647 940 l 1,14,15
 775 1199 775 1199 875 1500 c 1,16,-1
 1145 1500 l 1,17,18
 1054 1229 1054 1229 916 940 c 1,19,-1
 1059 940 l 1,20,-1
 1059 730 l 1,21,-1
 810 730 l 1,22,-1
 745 610 l 1,23,-1
 1059 610 l 1,24,-1
 1059 400 l 1,25,-1
 735 400 l 1,26,-1
 735 0 l 1,27,-1
 465 0 l 1,0,-1
EndSplineSet
Validated: 1
EndChar

StartChar: brokenbar
Encoding: 166 166 104
Width: 1200
GlyphClass: 2
Flags: W
VStem: 475 250<-260 670 830 1760>
LayerCount: 2
Fore
SplineSet
475 1760 m 1,0,-1
 725 1760 l 1,1,-1
 725 830 l 1,2,-1
 475 830 l 1,3,-1
 475 1760 l 1,0,-1
475 670 m 1,4,-1
 725 670 l 1,5,-1
 725 -260 l 1,6,-1
 475 -260 l 1,7,-1
 475 670 l 1,4,-1
EndSplineSet
Validated: 1
EndChar

StartChar: section
Encoding: 167 167 105
Width: 1200
GlyphClass: 2
Flags: W
HStem: -20 236<525.955 722.794> 1284 236<477.206 674.045>
VStem: 162 268<681.867 836.908> 198 256<1152.8 1265.18> 746 256<234.817 347.203> 770 268<663.092 818.133>
DStem2: 517 662 439 438 0.951783 -0.306773<-99.0391 329.429> 761 1062 441 916 0.951783 -0.306773<-334.951 93.5172>
LayerCount: 2
Fore
SplineSet
233 351 m 9,0,-1
 492 351 l 17,1,2
 492 296 492 296 524 260 c 0,3,4
 565 216 565 216 621 216 c 128,-1,5
 677 216 677 216 711.5 235.5 c 152,-1,6
 746 255 746 255 746 290 c 0,7,8
 746 339 746 339 645 372 c 2,9,-1
 439 438 l 2,10,11
 162 528 162 528 162 749 c 16,12,13
 162 850 162 850 216 932 c 9,14,-1
 457 821 l 17,15,16
 430 790 430 790 430 754 c 8,17,18
 430 690 430 690 517 662 c 2,19,-1
 759 584 l 2,20,21
 1002 505 1002 505 1002 297 c 24,22,23
 1002 146 1002 146 863 49 c 0,24,25
 764 -20 764 -20 613 -20 c 0,26,27
 431 -20 431 -20 323 104 c 0,28,29
 233 207 233 207 233 351 c 9,0,-1
967 1149 m 9,30,-1
 708 1149 l 17,31,32
 708 1204 708 1204 676 1240 c 0,33,34
 635 1284 635 1284 579 1284 c 128,-1,35
 523 1284 523 1284 488.5 1264.5 c 152,-1,36
 454 1245 454 1245 454 1210 c 0,37,38
 454 1161 454 1161 555 1128 c 2,39,-1
 761 1062 l 2,40,41
 1038 972 1038 972 1038 751 c 16,42,43
 1038 650 1038 650 984 568 c 9,44,-1
 743 679 l 17,45,46
 770 710 770 710 770 746 c 8,47,48
 770 810 770 810 683 838 c 2,49,-1
 441 916 l 2,50,51
 198 995 198 995 198 1203 c 24,52,53
 198 1354 198 1354 337 1451 c 0,54,55
 436 1520 436 1520 587 1520 c 0,56,57
 769 1520 769 1520 877 1396 c 0,58,59
 967 1293 967 1293 967 1149 c 9,30,-1
EndSplineSet
Validated: 1
EndChar

StartChar: dieresis
Encoding: 168 168 106
Width: 1200
GlyphClass: 2
Flags: W
HStem: 1166 354<266.699 504.766 696.699 934.766>
VStem: 206 358<1225.61 1459.71> 636 358<1225.61 1459.71>
LayerCount: 2
Fore
SplineSet
815 1520 m 0,0,1
 892 1520 892 1520 941 1470 c 0,2,3
 994 1416 994 1416 994 1343 c 0,4,5
 994 1266 994 1266 942 1216 c 128,-1,6
 890 1166 890 1166 815 1166 c 0,7,8
 741 1166 741 1166 690 1215 c 0,9,10
 636 1267 636 1267 636 1343 c 128,-1,11
 636 1419 636 1419 690 1470 c 0,12,13
 743 1520 743 1520 815 1520 c 0,0,1
385 1520 m 0,14,15
 462 1520 462 1520 511 1470 c 0,16,17
 564 1416 564 1416 564 1343 c 0,18,19
 564 1266 564 1266 512 1216 c 128,-1,20
 460 1166 460 1166 385 1166 c 0,21,22
 311 1166 311 1166 260 1215 c 0,23,24
 206 1267 206 1267 206 1343 c 128,-1,25
 206 1419 206 1419 260 1470 c 0,26,27
 313 1520 313 1520 385 1520 c 0,14,15
EndSplineSet
Validated: 1
EndChar

StartChar: copyright
Encoding: 169 169 107
Width: 1200
GlyphClass: 2
Flags: W
HStem: 615 70<445.6 757.18> 753 163<539.094 664.301> 1222 164<537.684 662.741> 1454 66<447.193 748.557>
VStem: 149 78<897.692 1242.13> 344 174<944.172 1198.78> 673 180<921.731 992 1144 1186.5> 973 77<897.65 1237.23>
LayerCount: 2
Fore
SplineSet
600 1454 m 0,0,1
 442 1454 442 1454 336 1343 c 0,2,3
 227 1230 227 1230 227 1069 c 128,-1,4
 227 908 227 908 337.5 796.5 c 128,-1,5
 448 685 448 685 603 685 c 0,6,7
 756 685 756 685 864 797 c 0,8,9
 973 910 973 910 973 1069 c 128,-1,10
 973 1228 973 1228 862.5 1341 c 128,-1,11
 752 1454 752 1454 600 1454 c 0,0,1
600 615 m 0,12,13
 417 615 417 615 284 744 c 0,14,15
 149 875 149 875 149 1066 c 0,16,17
 149 1255 149 1255 282 1388 c 0,18,19
 414 1520 414 1520 600 1520 c 128,-1,20
 786 1520 786 1520 918 1388 c 128,-1,21
 1050 1256 1050 1256 1050 1068 c 128,-1,22
 1050 880 1050 880 918 747.5 c 128,-1,23
 786 615 786 615 600 615 c 0,12,13
853 992 m 1,24,25
 837 914 837 914 792 849 c 0,26,27
 726 753 726 753 601 753 c 0,28,29
 484 753 484 753 410 850 c 0,30,31
 344 937 344 937 344 1080 c 0,32,33
 344 1216 344 1216 410 1295 c 0,34,35
 485 1386 485 1386 601 1386 c 0,36,37
 712 1386 712 1386 792 1289 c 0,38,39
 843 1227 843 1227 852 1144 c 1,40,-1
 675 1144 l 1,41,42
 672 1171 672 1171 662 1187 c 0,43,44
 640 1222 640 1222 601 1222 c 0,45,46
 559 1222 559 1222 539 1187 c 0,47,48
 518 1151 518 1151 518 1080 c 0,49,50
 518 1002 518 1002 539 957 c 0,51,52
 558 916 558 916 601 916 c 0,53,54
 639 916 639 916 661 952 c 0,55,56
 670 967 670 967 673 992 c 1,57,-1
 853 992 l 1,24,25
EndSplineSet
Validated: 1
EndChar

StartChar: ordfeminine
Encoding: 170 170 108
Width: 1200
GlyphClass: 2
Flags: W
HStem: 648 184<214 986> 865 157<513.83 633.123> 1139 147<525.66 655> 1357 163<478.446 646.733>
VStem: 338 168<1031.61 1125.15> 660 174<875 899 1286 1323.62>
LayerCount: 2
Fore
SplineSet
386 1423 m 17,0,1
 459 1520 459 1520 600 1520 c 0,2,3
 724 1520 724 1520 792 1420 c 0,4,5
 834 1358 834 1358 834 1245 c 2,6,-1
 834 875 l 1,7,-1
 660 875 l 1,8,-1
 660 899 l 1,9,10
 612 865 612 865 548 865 c 0,11,12
 445 865 445 865 389 933 c 0,13,14
 338 996 338 996 338 1068 c 0,15,16
 338 1180 338 1180 427 1240 c 0,17,18
 495 1286 495 1286 582 1286 c 2,19,-1
 655 1286 l 1,20,21
 653 1312 653 1312 646 1324 c 0,22,23
 627 1357 627 1357 588 1357 c 0,24,25
 536 1357 536 1357 515 1315 c 9,26,-1
 386 1423 l 17,0,1
656 1139 m 1,27,-1
 583 1139 l 2,28,29
 546 1139 546 1139 525 1118 c 0,30,31
 506 1098 506 1098 506 1072 c 0,32,33
 506 1050 506 1050 519 1039 c 0,34,35
 537 1022 537 1022 565 1022 c 0,36,37
 608 1022 608 1022 632 1060 c 24,38,39
 648 1086 648 1086 656 1139 c 1,27,-1
986 648 m 1,40,-1
 214 648 l 1,41,-1
 214 832 l 1,42,-1
 986 832 l 1,43,-1
 986 648 l 1,40,-1
EndSplineSet
Validated: 1
EndChar

StartChar: guillemotleft
Encoding: 171 171 109
Width: 1200
GlyphClass: 2
Flags: W
LayerCount: 2
Fore
SplineSet
876 246 m 1,0,-1
 554 726 l 1,1,-1
 554 775 l 1,2,-1
 876 1256 l 1,3,-1
 1089 1108 l 1,4,-1
 819 752 l 1,5,-1
 1089 394 l 1,6,-1
 876 246 l 1,0,-1
433 246 m 1,7,-1
 111 726 l 1,8,-1
 111 775 l 1,9,-1
 433 1256 l 1,10,-1
 646 1108 l 1,11,-1
 376 752 l 1,12,-1
 646 394 l 1,13,-1
 433 246 l 1,7,-1
EndSplineSet
Validated: 1
EndChar

StartChar: logicalnot
Encoding: 172 172 110
Width: 1200
GlyphClass: 2
Flags: W
HStem: 625 250<141 809>
VStem: 809 250<264 625>
LayerCount: 2
Fore
SplineSet
141 875 m 1,0,-1
 1059 875 l 1,1,-1
 1059 264 l 1,2,-1
 809 264 l 1,3,-1
 809 625 l 1,4,-1
 141 625 l 1,5,-1
 141 875 l 1,0,-1
EndSplineSet
Validated: 1
EndChar

StartChar: uni00AD
Encoding: 173 173 111
Width: 1200
GlyphClass: 2
Flags: W
HStem: 625 250<141 1059>
LayerCount: 2
Fore
SplineSet
141 875 m 1,0,-1
 1059 875 l 1,1,-1
 1059 625 l 1,2,-1
 141 625 l 1,3,-1
 141 875 l 1,0,-1
EndSplineSet
Validated: 1
EndChar

StartChar: registered
Encoding: 174 174 112
Width: 1200
GlyphClass: 2
Flags: W
HStem: 615 70<445.6 757.451> 1239 143<564 674.773> 1454 66<447.442 748.557>
VStem: 149 78<897.692 1241.89> 388 177<760 935 1083 1239> 682 171<1109.51 1235.43> 973 77<898.42 1237.23>
LayerCount: 2
Fore
SplineSet
388 760 m 1,0,-1
 388 1382 l 1,1,-1
 620 1382 l 2,2,3
 717 1382 717 1382 782 1325 c 0,4,5
 853 1264 853 1264 853 1162 c 0,6,7
 853 1076 853 1076 786 1009 c 0,8,9
 773 996 773 996 757 985 c 1,10,-1
 881 816 l 1,11,12
 973 923 973 923 973 1069 c 0,13,14
 973 1228 973 1228 862.5 1341 c 128,-1,15
 752 1454 752 1454 600 1454 c 0,16,17
 443 1454 443 1454 336 1343 c 0,18,19
 227 1229 227 1229 227 1069 c 0,20,21
 227 908 227 908 337.5 796.5 c 128,-1,22
 448 685 448 685 603 685 c 0,23,24
 728 685 728 685 823 760 c 1,25,-1
 708 760 l 1,26,-1
 588 935 l 1,27,-1
 565 935 l 1,28,-1
 565 760 l 1,29,-1
 388 760 l 1,0,-1
564 1239 m 1,30,-1
 564 1083 l 1,31,-1
 620 1083 l 2,32,33
 648 1083 648 1083 668 1109 c 0,34,35
 681 1125 681 1125 682 1162 c 0,36,37
 683 1192 683 1192 666 1214 c 0,38,39
 647 1239 647 1239 620 1239 c 2,40,-1
 564 1239 l 1,30,-1
600 615 m 0,41,42
 417 615 417 615 284 744 c 0,43,44
 149 875 149 875 149 1066 c 0,45,46
 149 1255 149 1255 282 1388 c 0,47,48
 414 1520 414 1520 600 1520 c 128,-1,49
 786 1520 786 1520 918 1388 c 128,-1,50
 1050 1256 1050 1256 1050 1068 c 128,-1,51
 1050 880 1050 880 918 747.5 c 128,-1,52
 786 615 786 615 600 615 c 0,41,42
EndSplineSet
Validated: 1
EndChar

StartChar: macron
Encoding: 175 175 113
Width: 1200
GlyphClass: 2
Flags: W
HStem: 1532 250<141 1059>
LayerCount: 2
Fore
SplineSet
141 1782 m 1,0,-1
 1059 1782 l 1,1,-1
 1059 1532 l 1,2,-1
 141 1532 l 1,3,-1
 141 1782 l 1,0,-1
EndSplineSet
Validated: 1
EndChar

StartChar: degree
Encoding: 176 176 114
Width: 1200
GlyphClass: 2
Flags: W
HStem: 927 190<518.444 681.359> 1331 189<517.143 680.654>
VStem: 299 193<1143.72 1307.03> 707 194<1144.86 1304.99>
LayerCount: 2
Fore
SplineSet
600 1331 m 128,-1,1
 552 1331 552 1331 523 1303 c 0,2,3
 492 1273 492 1273 492 1224 c 0,4,5
 492 1180 492 1180 522 1149 c 0,6,7
 554 1117 554 1117 599 1117 c 128,-1,8
 644 1117 644 1117 678 1151 c 0,9,10
 707 1180 707 1180 707 1224 c 0,11,12
 707 1267 707 1267 677.5 1299 c 128,-1,0
 648 1331 648 1331 600 1331 c 128,-1,1
600 927 m 0,13,14
 473 927 473 927 386 1016 c 128,-1,15
 299 1105 299 1105 299 1229 c 0,16,17
 299 1345 299 1345 386 1432.5 c 128,-1,18
 473 1520 473 1520 600 1520 c 0,19,20
 724 1520 724 1520 814 1433 c 0,21,22
 901 1349 901 1349 901 1224 c 0,23,24
 901 1096 901 1096 815 1013 c 0,25,26
 726 927 726 927 600 927 c 0,13,14
EndSplineSet
Validated: 1
EndChar

StartChar: plusminus
Encoding: 177 177 115
Width: 1200
GlyphClass: 2
Flags: W
HStem: 161 250<141 1059> 786 250<141 475 725 1059>
VStem: 475 250<452 786 1036 1370>
LayerCount: 2
Fore
SplineSet
141 411 m 1,0,-1
 1059 411 l 1,1,-1
 1059 161 l 1,2,-1
 141 161 l 1,3,-1
 141 411 l 1,0,-1
475 1370 m 1,4,-1
 725 1370 l 1,5,-1
 725 1036 l 1,6,-1
 1059 1036 l 1,7,-1
 1059 786 l 1,8,-1
 725 786 l 1,9,-1
 725 452 l 1,10,-1
 475 452 l 1,11,-1
 475 786 l 1,12,-1
 141 786 l 1,13,-1
 141 1036 l 1,14,-1
 475 1036 l 1,15,-1
 475 1370 l 1,4,-1
EndSplineSet
Validated: 1
EndChar

StartChar: uni00B2
Encoding: 178 178 116
Width: 1200
GlyphClass: 2
Flags: W
HStem: 700 175<543 872> 1339 171<531.898 674.616>
VStem: 328 184<1236 1306.15> 688 184<1174.72 1327.36>
LayerCount: 2
Fore
SplineSet
328 1236 m 17,0,1
 328 1349 328 1349 399 1425 c 0,2,3
 478 1510 478 1510 600 1510 c 0,4,5
 733 1510 733 1510 805 1431 c 0,6,7
 872 1358 872 1358 872 1260 c 0,8,9
 872 1150 872 1150 747 1046 c 2,10,-1
 546 878 l 1,11,-1
 543 875 l 1,12,-1
 872 875 l 1,13,-1
 872 700 l 1,14,-1
 328 700 l 1,15,-1
 328 828 l 2,16,17
 328 930 328 930 441 1023 c 1,18,-1
 621 1156 l 2,19,20
 688 1206 688 1206 688 1248 c 0,21,22
 688 1284 688 1284 663 1311 c 0,23,24
 638 1339 638 1339 600 1339 c 128,-1,25
 562 1339 562 1339 535 1307 c 0,26,27
 512 1280 512 1280 512 1236 c 9,28,-1
 328 1236 l 17,0,1
EndSplineSet
Validated: 1
EndChar

StartChar: uni00B3
Encoding: 179 179 117
Width: 1200
GlyphClass: 2
Flags: W
HStem: 690 171<525.977 668.372> 1070 147<566 631.553> 1337 173<539.55 648.069>
VStem: 326 184<892.756 964> 658 180<1224.64 1325.4> 686 188<882.336 1045.2>
LayerCount: 2
Fore
SplineSet
326 964 m 9,0,-1
 510 964 l 17,1,2
 510 916 510 916 530 892 c 0,3,4
 556 861 556 861 598 861 c 0,5,6
 644 861 644 861 666 893 c 0,7,8
 686 921 686 921 686 963.5 c 128,-1,9
 686 1006 686 1006 658 1040 c 0,10,11
 632 1070 632 1070 566 1070 c 9,12,-1
 566 1217 l 17,13,14
 618 1217 618 1217 632 1227 c 0,15,16
 658 1244 658 1244 658 1274 c 0,17,18
 658 1299 658 1299 642 1317 c 0,19,20
 623 1337 623 1337 594 1337 c 0,21,22
 568 1337 568 1337 546 1319 c 0,23,24
 528 1304 528 1304 528 1274 c 9,25,-1
 350 1274 l 17,26,27
 350 1376 350 1376 418 1443 c 128,-1,28
 486 1510 486 1510 592 1510 c 128,-1,29
 698 1510 698 1510 768 1448 c 0,30,31
 838 1387 838 1387 838 1291.5 c 128,-1,32
 838 1196 838 1196 756 1148 c 1,33,34
 874 1083 874 1083 874 944 c 0,35,36
 874 846 874 846 800 770 c 0,37,38
 723 690 723 690 598 690 c 128,-1,39
 473 690 473 690 396 775 c 0,40,41
 326 851 326 851 326 964 c 9,0,-1
EndSplineSet
Validated: 1
EndChar

StartChar: acute
Encoding: 180 180 118
Width: 1200
GlyphClass: 2
Flags: W
HStem: 897 623
VStem: 360 480
LayerCount: 2
Fore
SplineSet
840 1391 m 1,0,-1
 572 897 l 1,1,-1
 360 996 l 1,2,-1
 576 1520 l 1,3,-1
 840 1391 l 1,0,-1
EndSplineSet
Validated: 1
EndChar

StartChar: uni00B5
Encoding: 181 181 119
Width: 1200
GlyphClass: 2
Flags: W
HStem: -400 21G<141 411> -20 243<457.007 687.445> 0 21G<789 1059> 1080 20G<141 411 789 1059>
VStem: 141 270<-400 -6 275.483 1100> 789 270<0 102 331.455 1100>
LayerCount: 2
Fore
SplineSet
1059 0 m 1,0,-1
 789 0 l 1,1,-1
 789 102 l 1,2,3
 687 -20 687 -20 517 -20 c 0,4,5
 461 -20 461 -20 411 -6 c 1,6,-1
 411 -400 l 1,7,-1
 141 -400 l 1,8,-1
 141 1100 l 1,9,-1
 411 1100 l 1,10,-1
 411 425 l 2,11,12
 411 321 411 321 451 274 c 0,13,14
 494 223 494 223 561 223 c 0,15,16
 649 223 649 223 713 290 c 0,17,18
 789 370 789 370 789 522 c 2,19,-1
 789 1100 l 1,20,-1
 1059 1100 l 1,21,-1
 1059 0 l 1,0,-1
EndSplineSet
Validated: 1
EndChar

StartChar: paragraph
Encoding: 182 182 120
Width: 1200
GlyphClass: 2
Flags: W
HStem: 0 21G<508 738 839 1059> 1270 230<738 839>
VStem: 103 635<849.342 1246.66> 508 230<0 603.431> 839 220<0 1270>
LayerCount: 2
Fore
SplineSet
508 0 m 1,0,-1
 508 595 l 1,1,2
 344 619 344 619 235 728 c 0,3,4
 103 860 103 860 103 1048 c 128,-1,5
 103 1236 103 1236 235 1368 c 0,6,7
 368 1500 368 1500 553 1500 c 2,8,-1
 1059 1500 l 1,9,-1
 1059 0 l 1,10,-1
 839 0 l 1,11,-1
 839 1270 l 1,12,-1
 738 1270 l 1,13,-1
 738 0 l 1,14,-1
 508 0 l 1,0,-1
EndSplineSet
Validated: 1
EndChar

StartChar: periodcentered
Encoding: 183 183 121
Width: 1200
GlyphClass: 2
Flags: W
HStem: 571 354<481.699 719.766>
VStem: 421 358<630.612 864.708>
LayerCount: 2
Fore
SplineSet
600 925 m 0,0,1
 677 925 677 925 726 875 c 0,2,3
 779 821 779 821 779 748 c 0,4,5
 779 671 779 671 727 621 c 128,-1,6
 675 571 675 571 600 571 c 0,7,8
 526 571 526 571 475 620 c 0,9,10
 421 672 421 672 421 748 c 128,-1,11
 421 824 421 824 475 875 c 0,12,13
 528 925 528 925 600 925 c 0,0,1
EndSplineSet
Validated: 1
EndChar

StartChar: cedilla
Encoding: 184 184 122
Width: 1200
GlyphClass: 2
Flags: W
HStem: -410 197<455 535.011>
VStem: 555 206<-198.637 -12.541>
LayerCount: 2
Fore
SplineSet
439 159 m 17,0,1
 761 73 761 73 761 -168.5 c 128,-1,2
 761 -410 761 -410 455 -410 c 1,3,-1
 455 -213 l 1,4,5
 555 -213 555 -213 555 -99 c 0,6,7
 555 -14 555 -14 439 43 c 1,8,-1
 439 159 l 17,0,1
EndSplineSet
Validated: 1
EndChar

StartChar: uni00B9
Encoding: 185 185 123
Width: 1200
GlyphClass: 2
Flags: W
HStem: 700 175<346 508 692 854> 1480 20G<513.454 692>
VStem: 508 184<875 1271>
LayerCount: 2
Fore
SplineSet
534 1500 m 1,0,-1
 692 1500 l 1,1,-1
 692 875 l 1,2,-1
 854 875 l 1,3,-1
 854 700 l 1,4,-1
 346 700 l 1,5,-1
 346 875 l 1,6,-1
 508 875 l 1,7,-1
 508 1271 l 1,8,-1
 346 1096 l 1,9,-1
 346 1317 l 1,10,-1
 534 1500 l 1,0,-1
EndSplineSet
Validated: 1
EndChar

StartChar: ordmasculine
Encoding: 186 186 124
Width: 1200
GlyphClass: 2
Flags: W
HStem: 647.5 185<213.5 986.5> 865 163<538.242 661.719> 1357 163<538.264 661.782>
VStem: 342.5 175<1056.23 1328.84> 682.5 175<1056.13 1328.74>
LayerCount: 2
Fore
SplineSet
661.727 1315.74 m 0,0,1
 641.86 1357 641.86 1357 600 1357 c 0,2,3
 557.377 1357 557.377 1357 538.392 1315.99 c 0,4,5
 517.5 1271.48 517.5 1271.48 517.5 1192.5 c 128,-1,6
 517.5 1113.52 517.5 1113.52 538.322 1069.16 c 0,7,8
 558.14 1028 558.14 1028 600 1028 c 0,9,10
 642.623 1028 642.623 1028 661.575 1068.94 c 0,11,12
 682.5 1114.42 682.5 1114.42 682.5 1192.5 c 0,13,14
 682.5 1272.39 682.5 1272.39 661.727 1315.74 c 0,0,1
409.105 1423.14 m 0,15,16
 482.851 1520 482.851 1520 600 1520 c 128,-1,17
 717.149 1520 717.149 1520 790.895 1423.14 c 0,18,19
 857.5 1336.12 857.5 1336.12 857.5 1192.5 c 128,-1,20
 857.5 1048.88 857.5 1048.88 790.877 961.838 c 0,21,22
 717.149 865 717.149 865 600 865 c 128,-1,23
 482.85 865 482.85 865 409.122 961.838 c 0,24,25
 342.5 1048.88 342.5 1048.88 342.5 1192.5 c 128,-1,26
 342.5 1336.12 342.5 1336.12 409.105 1423.14 c 0,15,16
986.5 647.5 m 1,27,-1
 213.5 647.5 l 1,28,-1
 213.5 832.5 l 1,29,-1
 986.5 832.5 l 1,30,-1
 986.5 647.5 l 1,27,-1
EndSplineSet
Validated: 1
EndChar

StartChar: guillemotright
Encoding: 187 187 125
Width: 1200
GlyphClass: 2
Flags: W
LayerCount: 2
Fore
SplineSet
324 246 m 1,0,-1
 111 394 l 1,1,-1
 381 752 l 1,2,-1
 111 1108 l 1,3,-1
 324 1256 l 1,4,-1
 646 775 l 1,5,-1
 646 726 l 1,6,-1
 324 246 l 1,0,-1
767 246 m 1,7,-1
 554 394 l 1,8,-1
 824 752 l 1,9,-1
 554 1108 l 1,10,-1
 767 1256 l 1,11,-1
 1089 775 l 1,12,-1
 1089 726 l 1,13,-1
 767 246 l 1,7,-1
EndSplineSet
Validated: 1
EndChar

StartChar: onequarter
Encoding: 188 188 126
Width: 1200
GlyphClass: 2
Flags: W
HStem: 0 21G<956 1142> 160 152<827 956> 700 175<86 208 392 514> 1480 20G<213.454 392>
VStem: 208 184<875 1271> 956 186<0 160 312 557>
DStem2: 231 138 365 63 0.500011 0.866019<2.05005 1499.97>
LayerCount: 2
Fore
SplineSet
956 0 m 1,0,-1
 956 160 l 1,1,-1
 586 160 l 1,2,3
 661 528 661 528 984 800 c 1,4,-1
 1142 800 l 1,5,-1
 1142 0 l 1,6,-1
 956 0 l 1,0,-1
981 1437 m 1,7,-1
 1115 1362 l 1,8,-1
 365 63 l 1,9,-1
 231 138 l 1,10,-1
 981 1437 l 1,7,-1
234 1500 m 1,11,-1
 392 1500 l 1,12,-1
 392 875 l 1,13,-1
 514 875 l 1,14,-1
 514 700 l 1,15,-1
 86 700 l 1,16,-1
 86 875 l 1,17,-1
 208 875 l 1,18,-1
 208 1271 l 1,19,-1
 46 1096 l 1,20,-1
 46 1317 l 1,21,-1
 234 1500 l 1,11,-1
827 312 m 1,22,-1
 956 312 l 1,23,-1
 956 557 l 1,24,25
 865 448 865 448 827 312 c 1,22,-1
EndSplineSet
Validated: 1
EndChar

StartChar: onehalf
Encoding: 189 189 127
Width: 1200
GlyphClass: 2
Flags: W
HStem: 0 175<871 1200> 639 171<859.898 1002.62> 700 175<50 162 346 458> 1480 20G<167.454 346>
VStem: 162 184<875 1271> 656 184<536 606.152> 1016 184<474.723 627.359>
DStem2: 161 138 295 63 0.500011 0.866019<2.05005 1499.97>
LayerCount: 2
Fore
SplineSet
911 1437 m 1,0,-1
 1045 1362 l 1,1,-1
 295 63 l 1,2,-1
 161 138 l 1,3,-1
 911 1437 l 1,0,-1
656 0 m 1,4,-1
 656 128 l 2,5,6
 656 230 656 230 769 323 c 1,7,-1
 949 456 l 2,8,9
 1016 506 1016 506 1016 548 c 0,10,11
 1016 584 1016 584 991 611 c 0,12,13
 966 639 966 639 928 639 c 128,-1,14
 890 639 890 639 863 607 c 0,15,16
 840 580 840 580 840 536 c 9,17,-1
 656 536 l 17,18,19
 656 649 656 649 727 725 c 0,20,21
 806 810 806 810 928 810 c 0,22,23
 1061 810 1061 810 1133 731 c 0,24,25
 1200 658 1200 658 1200 560 c 0,26,27
 1200 450 1200 450 1075 346 c 2,28,-1
 874 178 l 1,29,-1
 871 175 l 1,30,-1
 1200 175 l 1,31,-1
 1200 0 l 1,32,-1
 656 0 l 1,4,-1
188 1500 m 1,33,-1
 346 1500 l 1,34,-1
 346 875 l 1,35,-1
 458 875 l 1,36,-1
 458 700 l 1,37,-1
 50 700 l 1,38,-1
 50 875 l 1,39,-1
 162 875 l 1,40,-1
 162 1271 l 1,41,-1
 0 1096 l 1,42,-1
 0 1317 l 1,43,-1
 188 1500 l 1,33,-1
EndSplineSet
Validated: 1
EndChar

StartChar: threequarters
Encoding: 190 190 128
Width: 1200
GlyphClass: 2
Flags: W
HStem: 0 21G<956 1142> 160 152<827 956> 690 171<233.426 374.142> 1070 147<272 337.522> 1337 173<244.975 353.823>
VStem: 32 184<892.787 964> 364 179<1224.62 1324.05> 392 187<883.502 1045.48> 956 186<0 160 312 557>
DStem2: 231 138 365 63 0.500011 0.866019<2.05005 1499.97>
LayerCount: 2
Fore
SplineSet
956 0 m 1,0,-1
 956 160 l 1,1,-1
 586 160 l 1,2,3
 661 528 661 528 984 800 c 1,4,-1
 1142 800 l 1,5,-1
 1142 0 l 1,6,-1
 956 0 l 1,0,-1
981 1437 m 1,7,-1
 1115 1362 l 1,8,-1
 365 63 l 1,9,-1
 231 138 l 1,10,-1
 981 1437 l 1,7,-1
32 964 m 9,11,-1
 216 964 l 17,12,13
 216 917 216 917 236 892 c 0,14,15
 262 861 262 861 304 861 c 0,16,17
 349 861 349 861 372 893 c 0,18,19
 392 921 392 921 392 964 c 0,20,21
 392 1008 392 1008 364 1040 c 0,22,23
 337 1070 337 1070 272 1070 c 9,24,-1
 272 1217 l 17,25,26
 323 1217 323 1217 338 1227 c 0,27,28
 364 1243 364 1243 364 1274 c 0,29,30
 364 1300 364 1300 348 1317 c 0,31,32
 327 1337 327 1337 299 1337 c 128,-1,33
 271 1337 271 1337 251 1319 c 0,34,35
 234 1304 234 1304 234 1274 c 9,36,-1
 56 1274 l 17,37,38
 56 1377 56 1377 123 1443 c 0,39,40
 192 1510 192 1510 298 1510 c 0,41,42
 403 1510 403 1510 474 1448 c 0,43,44
 543 1387 543 1387 543 1291.5 c 128,-1,45
 543 1196 543 1196 461 1148 c 1,46,47
 579 1084 579 1084 579 944 c 0,48,49
 579 845 579 845 506 770 c 0,50,51
 428 690 428 690 304 690 c 0,52,53
 178 690 178 690 101 775 c 0,54,55
 32 851 32 851 32 964 c 9,11,-1
827 312 m 1,56,-1
 956 312 l 1,57,-1
 956 557 l 1,58,59
 865 448 865 448 827 312 c 1,56,-1
EndSplineSet
Validated: 1
EndChar

StartChar: questiondown
Encoding: 191 191 129
Width: 1200
GlyphClass: 2
Flags: W
HStem: -420 243<467.93 731.509> 766 354<480.234 718.301>
VStem: 105 270<-83.6078 201.196> 421 358<826.292 1060.39> 471 257<566.791 717> 825 270<-78.1172 79>
LayerCount: 2
Fore
SplineSet
600 1120 m 0,0,1
 674 1120 674 1120 725 1071 c 0,2,3
 779 1019 779 1019 779 943 c 128,-1,4
 779 867 779 867 725 816 c 0,5,6
 672 766 672 766 600 766 c 0,7,8
 523 766 523 766 474 816 c 0,9,10
 421 870 421 870 421 943 c 0,11,12
 421 1020 421 1020 473 1070 c 128,-1,13
 525 1120 525 1120 600 1120 c 0,0,1
1095 79 m 17,14,15
 1095 -129 1095 -129 967 -265 c 0,16,17
 820 -420 820 -420 600 -420 c 0,18,19
 365 -420 365 -420 229 -264 c 0,20,21
 105 -122 105 -122 105 69 c 0,22,23
 105 311 105 311 345 481 c 0,24,25
 471 570 471 570 471 717 c 9,26,-1
 728 717 l 17,27,28
 728 474 728 474 529 317 c 24,29,30
 375 197 375 197 375 70 c 0,31,32
 375 -30 375 -30 428 -94 c 0,33,34
 496 -177 496 -177 600 -177 c 0,35,36
 705 -177 705 -177 770 -96 c 0,37,38
 825 -26 825 -26 825 79 c 9,39,-1
 1095 79 l 17,14,15
EndSplineSet
Validated: 1
EndChar

StartChar: multiply
Encoding: 215 215 130
Width: 1200
GlyphClass: 2
Flags: W
DStem2: 364 1163 187 986 0.707107 -0.707107<0 333.754 584.07 917.825> 187 514 364 337 0.707107 0.707107<0 333.754 584.07 917.825>
LayerCount: 2
Fore
SplineSet
364 1163 m 1,0,-1
 600 927 l 1,1,-1
 836 1163 l 1,2,-1
 1013 986 l 1,3,-1
 777 750 l 1,4,-1
 1013 514 l 1,5,-1
 836 337 l 1,6,-1
 600 573 l 1,7,-1
 364 337 l 1,8,-1
 187 514 l 1,9,-1
 423 750 l 1,10,-1
 187 986 l 1,11,-1
 364 1163 l 1,0,-1
EndSplineSet
Validated: 1
EndChar

StartChar: divide
Encoding: 247 247 131
Width: 1200
GlyphClass: 2
Flags: W
HStem: 174 354<481.699 719.766> 625 250<141 1059> 969 354<481.699 719.766>
VStem: 421 358<233.612 467.708 1028.61 1262.71>
LayerCount: 2
Fore
SplineSet
600 1323 m 0,0,1
 677 1323 677 1323 726 1273 c 0,2,3
 779 1219 779 1219 779 1146 c 0,4,5
 779 1069 779 1069 727 1019 c 128,-1,6
 675 969 675 969 600 969 c 0,7,8
 526 969 526 969 475 1018 c 0,9,10
 421 1070 421 1070 421 1146 c 128,-1,11
 421 1222 421 1222 475 1273 c 0,12,13
 528 1323 528 1323 600 1323 c 0,0,1
600 174 m 0,14,15
 526 174 526 174 475 223 c 0,16,17
 421 275 421 275 421 351 c 128,-1,18
 421 427 421 427 475 478 c 0,19,20
 528 528 528 528 600 528 c 0,21,22
 677 528 677 528 726 478 c 0,23,24
 779 424 779 424 779 351 c 0,25,26
 779 274 779 274 727 224 c 128,-1,27
 675 174 675 174 600 174 c 0,14,15
141 875 m 1,28,-1
 1059 875 l 1,29,-1
 1059 625 l 1,30,-1
 141 625 l 1,31,-1
 141 875 l 1,28,-1
EndSplineSet
Validated: 1
EndChar

StartChar: uni1E02
Encoding: 7682 7682 132
Width: 1200
GlyphClass: 2
Flags: W
HStem: 0 243<375 735.633> 702 243<375 674.776> 1257 243<375 667.358> 1566 354<381.699 619.883>
VStem: 105 270<243 702 945 1257> 321 358<1625.12 1859.71> 727 257<997.188 1203.5> 835 260<334.241 607.628>
LayerCount: 2
Fore
SplineSet
500 1920 m 0,0,1
 578 1920 578 1920 626 1870 c 0,2,3
 679 1816 679 1816 679 1743 c 0,4,5
 679 1668 679 1668 627 1617 c 128,-1,6
 575 1566 575 1566 500 1566 c 128,-1,7
 425 1566 425 1566 375 1615 c 0,8,9
 321 1667 321 1667 321 1743 c 128,-1,10
 321 1819 321 1819 375 1870 c 0,11,12
 428 1920 428 1920 500 1920 c 0,0,1
375 1257 m 1,13,-1
 375 945 l 1,14,-1
 496 945 l 2,15,16
 622 945 622 945 675 989 c 0,17,18
 727 1032 727 1032 727 1101 c 128,-1,19
 727 1170 727 1170 669 1216 c 0,20,21
 617 1257 617 1257 496 1257 c 2,22,-1
 375 1257 l 1,13,-1
375 702 m 1,23,-1
 375 243 l 1,24,-1
 546 243 l 2,25,26
 689 243 689 243 769 311 c 0,27,28
 835 367 835 367 835 473 c 0,29,30
 835 569 835 569 767 636 c 0,31,32
 700 702 700 702 546 702 c 2,33,-1
 375 702 l 1,23,-1
105 0 m 1,34,-1
 105 1500 l 1,35,-1
 496 1500 l 2,36,37
 731 1500 731 1500 860 1386 c 0,38,39
 984 1276 984 1276 984 1126 c 0,40,41
 984 946 984 946 820 852 c 1,42,43
 1095 734 1095 734 1095 467 c 0,44,45
 1095 251 1095 251 940 123 c 24,46,47
 791 0 791 0 546 0 c 2,48,-1
 105 0 l 1,34,-1
EndSplineSet
Validated: 1
EndChar

StartChar: uni1E03
Encoding: 7683 7683 133
Width: 1200
GlyphClass: 2
Flags: W
HStem: -20 247<493.091 722.033> 0 21G<141 411> 873 247<492.355 721.626> 1166 354<588.699 826.883> 1480 20G<141 411>
VStem: 141 270<0 79 318.015 781.915 1016 1500> 528 358<1225.12 1459.71> 805 270<321.603 777.617>
LayerCount: 2
Fore
SplineSet
707 1520 m 0,0,1
 785 1520 785 1520 833 1470 c 0,2,3
 886 1416 886 1416 886 1343 c 0,4,5
 886 1268 886 1268 834 1217 c 128,-1,6
 782 1166 782 1166 707 1166 c 128,-1,7
 632 1166 632 1166 582 1215 c 0,8,9
 528 1267 528 1267 528 1343 c 128,-1,10
 528 1419 528 1419 582 1470 c 0,11,12
 635 1520 635 1520 707 1520 c 0,0,1
611 873 m 0,13,14
 506 873 506 873 453 779 c 0,15,16
 409 700 409 700 409 550 c 0,17,18
 409 393 409 393 455 318 c 0,19,20
 512 227 512 227 607 227 c 0,21,22
 705 227 705 227 759 318 c 0,23,24
 805 396 805 396 805 550 c 0,25,26
 805 697 805 697 760 778 c 0,27,28
 706 873 706 873 611 873 c 0,13,14
141 0 m 1,29,-1
 141 1500 l 1,30,-1
 411 1500 l 1,31,-1
 411 1016 l 1,32,33
 503 1120 503 1120 642 1120 c 0,34,35
 815 1120 815 1120 950 955 c 0,36,37
 1075 802 1075 802 1075 550 c 128,-1,38
 1075 298 1075 298 950 145 c 0,39,40
 815 -20 815 -20 642 -20 c 0,41,42
 504 -20 504 -20 411 79 c 1,43,-1
 411 0 l 1,44,-1
 141 0 l 1,29,-1
EndSplineSet
Validated: 1
EndChar

StartChar: uni1E0A
Encoding: 7690 7690 134
Width: 1200
GlyphClass: 2
Flags: W
HStem: 0 243<374 711.628> 1257 243<375 705.625> 1566 354<481.699 719.883>
VStem: 105 269<243 1257> 421 358<1625.12 1859.71> 865 270<439.673 1061.65>
LayerCount: 2
Fore
SplineSet
600 1920 m 0,0,1
 678 1920 678 1920 726 1870 c 0,2,3
 779 1816 779 1816 779 1743 c 0,4,5
 779 1668 779 1668 727 1617 c 128,-1,6
 675 1566 675 1566 600 1566 c 128,-1,7
 525 1566 525 1566 475 1615 c 0,8,9
 421 1667 421 1667 421 1743 c 128,-1,10
 421 1819 421 1819 475 1870 c 0,11,12
 528 1920 528 1920 600 1920 c 0,0,1
375 1257 m 1,13,-1
 374 243 l 1,14,-1
 551 243 l 2,15,16
 720 243 720 243 793 376 c 0,17,18
 865 507 865 507 865 750 c 0,19,20
 865 1000 865 1000 792 1124 c 24,21,22
 714 1257 714 1257 550 1257 c 2,23,-1
 375 1257 l 1,13,-1
105 0 m 1,24,-1
 105 1500 l 1,25,-1
 550 1500 l 2,26,27
 886 1500 886 1500 1024 1254 c 24,28,29
 1135 1055 1135 1055 1135 750 c 0,30,31
 1135 430 1135 430 1025 246 c 0,32,33
 877 0 877 0 551 0 c 2,34,-1
 105 0 l 1,24,-1
EndSplineSet
Validated: 1
EndChar

StartChar: uni1E0B
Encoding: 7691 7691 135
Width: 1200
GlyphClass: 2
Flags: W
HStem: -20 247<477.967 706.909> 0 21G<789 1059> 873 247<478.374 707.645> 1166 354<368.699 606.883> 1480 20G<789 1059>
VStem: 125 270<321.603 777.617> 308 358<1225.12 1459.71> 789 270<0 79 318.015 781.915 1016 1500>
LayerCount: 2
Fore
SplineSet
487 1520 m 0,0,1
 565 1520 565 1520 613 1470 c 0,2,3
 666 1416 666 1416 666 1343 c 0,4,5
 666 1268 666 1268 614 1217 c 128,-1,6
 562 1166 562 1166 487 1166 c 128,-1,7
 412 1166 412 1166 362 1215 c 0,8,9
 308 1267 308 1267 308 1343 c 128,-1,10
 308 1419 308 1419 362 1470 c 0,11,12
 415 1520 415 1520 487 1520 c 0,0,1
589 873 m 0,13,14
 494 873 494 873 440 778 c 0,15,16
 395 697 395 697 395 550 c 0,17,18
 395 396 395 396 441 318 c 0,19,20
 495 227 495 227 593 227 c 0,21,22
 688 227 688 227 745 318 c 0,23,24
 791 393 791 393 791 550 c 0,25,26
 791 700 791 700 747 779 c 0,27,28
 694 873 694 873 589 873 c 0,13,14
1059 0 m 1,29,-1
 789 0 l 1,30,-1
 789 79 l 1,31,32
 696 -20 696 -20 558 -20 c 0,33,34
 385 -20 385 -20 250 145 c 0,35,36
 125 298 125 298 125 550 c 128,-1,37
 125 802 125 802 250 955 c 0,38,39
 385 1120 385 1120 558 1120 c 0,40,41
 697 1120 697 1120 789 1016 c 1,42,-1
 789 1500 l 1,43,-1
 1059 1500 l 1,44,-1
 1059 0 l 1,29,-1
EndSplineSet
Validated: 1
EndChar

StartChar: uni1E1E
Encoding: 7710 7710 136
Width: 1200
GlyphClass: 2
Flags: W
HStem: 0 21G<175 445> 625 250<445 900> 1250 250<445 1025> 1566 354<481.699 719.883>
VStem: 175 270<0 625 875 1250> 421 358<1625.12 1859.71>
LayerCount: 2
Fore
SplineSet
600 1920 m 0,0,1
 678 1920 678 1920 726 1870 c 0,2,3
 779 1816 779 1816 779 1743 c 0,4,5
 779 1668 779 1668 727 1617 c 128,-1,6
 675 1566 675 1566 600 1566 c 128,-1,7
 525 1566 525 1566 475 1615 c 0,8,9
 421 1667 421 1667 421 1743 c 128,-1,10
 421 1819 421 1819 475 1870 c 0,11,12
 528 1920 528 1920 600 1920 c 0,0,1
445 0 m 1,13,-1
 175 0 l 1,14,-1
 175 1500 l 1,15,-1
 1025 1500 l 1,16,-1
 1025 1250 l 1,17,-1
 445 1250 l 1,18,-1
 445 875 l 1,19,-1
 900 875 l 1,20,-1
 900 625 l 1,21,-1
 445 625 l 1,22,-1
 445 0 l 1,13,-1
EndSplineSet
Validated: 1
EndChar

StartChar: uni1E1F
Encoding: 7711 7711 137
Width: 1200
GlyphClass: 2
Flags: W
HStem: 0 21G<465 735> 745 233<141 465 735 1059> 1277 243<776.454 1004.64> 1566 354<681.699 919.883>
VStem: 465 270<0 745 978 1228.61> 621 358<1625.12 1859.71>
LayerCount: 2
Fore
SplineSet
800 1920 m 0,0,1
 878 1920 878 1920 926 1870 c 0,2,3
 979 1816 979 1816 979 1743 c 0,4,5
 979 1668 979 1668 927 1617 c 128,-1,6
 875 1566 875 1566 800 1566 c 128,-1,7
 725 1566 725 1566 675 1615 c 0,8,9
 621 1667 621 1667 621 1743 c 128,-1,10
 621 1819 621 1819 675 1870 c 0,11,12
 728 1920 728 1920 800 1920 c 0,0,1
465 0 m 1,13,-1
 465 745 l 1,14,-1
 141 745 l 1,15,-1
 141 978 l 1,16,-1
 465 978 l 1,17,-1
 465 1085 l 2,18,19
 465 1299 465 1299 562 1403 c 0,20,21
 671 1520 671 1520 874 1520 c 0,22,23
 1071 1520 1071 1520 1184 1387 c 1,24,-1
 1043 1196 l 1,25,26
 973 1277 973 1277 885 1277 c 0,27,28
 812 1277 812 1277 772 1230 c 0,29,30
 735 1186 735 1186 735 1069 c 2,31,-1
 735 978 l 1,32,-1
 1059 978 l 1,33,-1
 1059 745 l 1,34,-1
 735 745 l 1,35,-1
 735 0 l 1,36,-1
 465 0 l 1,13,-1
EndSplineSet
Validated: 1
EndChar

StartChar: uni1E40
Encoding: 7744 7744 138
Width: 1200
GlyphClass: 2
Flags: W
HStem: 0 21G<105 355 845 1095> 1480 20G<105 471 735 1095> 1566 354<481.699 719.883>
VStem: 105 250<0 1106> 421 358<1625.12 1859.71> 485 230<458 845.795> 845 250<0 1106>
LayerCount: 2
Fore
SplineSet
105 0 m 1,0,-1
 105 1500 l 1,1,-1
 375 1500 l 1,2,3
 567 1170 567 1170 603 878 c 1,4,5
 645 1170 645 1170 825 1500 c 1,6,-1
 1095 1500 l 1,7,-1
 1095 0 l 1,8,-1
 845 0 l 1,9,-1
 845 1106 l 1,10,11
 715 812 715 812 715 458 c 1,12,-1
 485 458 l 1,13,14
 485 809 485 809 355 1106 c 1,15,-1
 355 0 l 1,16,-1
 105 0 l 1,0,-1
600 1920 m 0,17,18
 678 1920 678 1920 726 1870 c 0,19,20
 779 1816 779 1816 779 1743 c 0,21,22
 779 1668 779 1668 727 1617 c 128,-1,23
 675 1566 675 1566 600 1566 c 128,-1,24
 525 1566 525 1566 475 1615 c 0,25,26
 421 1667 421 1667 421 1743 c 128,-1,27
 421 1819 421 1819 475 1870 c 0,28,29
 528 1920 528 1920 600 1920 c 0,17,18
EndSplineSet
Validated: 19457
EndChar

StartChar: uni1E41
Encoding: 7745 7745 139
Width: 1200
GlyphClass: 2
Flags: W
HStem: 0 21G<109 339 486 714 861 1091> 876 244<400.13 589 748.201 936.5> 1080 20G<109 339> 1166 354<481.699 719.883>
VStem: 109 230<0 827.058 998 1100> 421 358<1225.12 1459.71> 486 228<0 825.305> 861 230<0 825.305>
LayerCount: 2
Fore
SplineSet
600 1520 m 0,0,1
 678 1520 678 1520 726 1470 c 0,2,3
 779 1416 779 1416 779 1343 c 0,4,5
 779 1268 779 1268 727 1217 c 128,-1,6
 675 1166 675 1166 600 1166 c 128,-1,7
 525 1166 525 1166 475 1215 c 0,8,9
 421 1267 421 1267 421 1343 c 128,-1,10
 421 1419 421 1419 475 1470 c 0,11,12
 528 1520 528 1520 600 1520 c 0,0,1
109 0 m 1,13,-1
 109 1100 l 1,14,-1
 339 1100 l 1,15,-1
 339 998 l 1,16,17
 402 1120 402 1120 532 1120 c 0,18,19
 646 1120 646 1120 693 992 c 1,20,21
 741 1120 741 1120 878 1120 c 0,22,23
 995 1120 995 1120 1055 1004 c 0,24,25
 1091 934 1091 934 1091 765 c 2,26,-1
 1091 0 l 1,27,-1
 861 0 l 1,28,-1
 861 750 l 2,29,30
 861 804 861 804 852 826 c 0,31,32
 832 876 832 876 789 876 c 0,33,34
 743 876 743 876 725 828 c 0,35,36
 714 798 714 798 714 750 c 2,37,-1
 714 0 l 1,38,-1
 486 0 l 1,39,-1
 486 750 l 2,40,41
 486 804 486 804 477 826 c 0,42,43
 457 876 457 876 414 876 c 0,44,45
 368 876 368 876 350 828 c 0,46,47
 339 798 339 798 339 750 c 2,48,-1
 339 0 l 1,49,-1
 109 0 l 1,13,-1
EndSplineSet
Validated: 1
EndChar

StartChar: uni1E56
Encoding: 7766 7766 140
Width: 1200
GlyphClass: 2
Flags: W
HStem: 0 21G<105 375> 455 243<375 712.702> 1257 243<375 707.041> 1566 354<481.699 719.883>
VStem: 105 270<0 455 698 1257> 421 358<1625.12 1859.71> 825 270<814.661 1137.38>
CounterMasks: 1 0e
LayerCount: 2
Fore
SplineSet
600 1920 m 0,0,1
 678 1920 678 1920 726 1870 c 0,2,3
 779 1816 779 1816 779 1743 c 0,4,5
 779 1668 779 1668 727 1617 c 128,-1,6
 675 1566 675 1566 600 1566 c 128,-1,7
 525 1566 525 1566 475 1615 c 0,8,9
 421 1667 421 1667 421 1743 c 128,-1,10
 421 1819 421 1819 475 1870 c 0,11,12
 528 1920 528 1920 600 1920 c 0,0,1
105 0 m 1,13,-1
 105 1500 l 1,14,-1
 546 1500 l 2,15,16
 766 1500 766 1500 915 1375 c 0,17,18
 1095 1224 1095 1224 1095 978 c 0,19,20
 1095 727 1095 727 913 577 c 0,21,22
 766 455 766 455 546 455 c 2,23,-1
 375 455 l 1,24,-1
 375 0 l 1,25,-1
 105 0 l 1,13,-1
546 1257 m 2,26,-1
 375 1257 l 1,27,-1
 375 698 l 1,28,-1
 546 698 l 2,29,30
 674 698 674 698 742 765 c 0,31,32
 825 847 825 847 825 977 c 0,33,34
 825 1109 825 1109 740 1187 c 0,35,36
 664 1257 664 1257 546 1257 c 2,26,-1
EndSplineSet
Validated: 1
EndChar

StartChar: uni1E57
Encoding: 7767 7767 141
Width: 1200
GlyphClass: 2
Flags: W
HStem: -400 21G<141 411> -20 247<492.355 721.626> 873 247<493.091 722.033> 1080 20G<141 411> 1166 354<481.699 719.883>
VStem: 141 270<-400 84 318.085 781.985 1021 1100> 421 358<1225.12 1459.71> 805 270<322.383 778.397>
LayerCount: 2
Fore
SplineSet
600 1520 m 0,0,1
 678 1520 678 1520 726 1470 c 0,2,3
 779 1416 779 1416 779 1343 c 0,4,5
 779 1268 779 1268 727 1217 c 128,-1,6
 675 1166 675 1166 600 1166 c 128,-1,7
 525 1166 525 1166 475 1215 c 0,8,9
 421 1267 421 1267 421 1343 c 128,-1,10
 421 1419 421 1419 475 1470 c 0,11,12
 528 1520 528 1520 600 1520 c 0,0,1
611 227 m 0,13,14
 706 227 706 227 760 322 c 0,15,16
 805 403 805 403 805 550 c 0,17,18
 805 704 805 704 759 782 c 0,19,20
 705 873 705 873 607 873 c 0,21,22
 512 873 512 873 455 782 c 0,23,24
 409 707 409 707 409 550 c 0,25,26
 409 400 409 400 453 321 c 0,27,28
 506 227 506 227 611 227 c 0,13,14
141 1100 m 1,29,-1
 411 1100 l 1,30,-1
 411 1021 l 1,31,32
 504 1120 504 1120 642 1120 c 0,33,34
 815 1120 815 1120 950 955 c 0,35,36
 1075 802 1075 802 1075 550 c 128,-1,37
 1075 298 1075 298 950 145 c 0,38,39
 815 -20 815 -20 642 -20 c 0,40,41
 503 -20 503 -20 411 84 c 1,42,-1
 411 -400 l 1,43,-1
 141 -400 l 1,44,-1
 141 1100 l 1,29,-1
EndSplineSet
Validated: 1
EndChar

StartChar: uni1E60
Encoding: 7776 7776 142
Width: 1200
GlyphClass: 2
Flags: W
HStem: -20 243<460.09 734.373> 1275 245<465.462 712.265> 1566 354<481.699 719.883>
VStem: 105 270<311.166 479> 153 263<1029.3 1228.28> 421 358<1625.12 1859.71> 771 258<1098 1217.03> 825 270<314.066 563.014>
DStem2: 494 1008 368 773 0.904469 -0.426539<-98.2172 496.464>
LayerCount: 2
Fore
SplineSet
600 1920 m 0,0,1
 678 1920 678 1920 726 1870 c 0,2,3
 779 1816 779 1816 779 1743 c 0,4,5
 779 1668 779 1668 727 1617 c 128,-1,6
 675 1566 675 1566 600 1566 c 128,-1,7
 525 1566 525 1566 475 1615 c 0,8,9
 421 1667 421 1667 421 1743 c 128,-1,10
 421 1819 421 1819 475 1870 c 0,11,12
 528 1920 528 1920 600 1920 c 0,0,1
105 479 m 9,13,-1
 375 479 l 17,14,15
 375 366 375 366 427 300 c 0,16,17
 488 223 488 223 600 223 c 0,18,19
 705 223 705 223 771 301 c 0,20,21
 825 365 825 365 825 444 c 24,22,23
 825 557 825 557 720 607 c 2,24,-1
 368 773 l 2,25,26
 153 874 153 874 153 1125 c 24,27,28
 153 1296 153 1296 278 1407 c 0,29,30
 404 1520 404 1520 593 1520 c 128,-1,31
 782 1520 782 1520 908 1399 c 0,32,33
 1029 1283 1029 1283 1029 1098 c 9,34,-1
 771 1098 l 17,35,36
 770 1178 770 1178 721 1224 c 0,37,38
 668 1275 668 1275 591 1275 c 0,39,40
 516 1275 516 1275 464 1233 c 0,41,42
 416 1194 416 1194 416 1134 c 0,43,44
 416 1044 416 1044 494 1008 c 2,45,-1
 815 859 l 2,46,47
 1095 729 1095 729 1095 447 c 24,48,49
 1095 262 1095 262 965 125 c 0,50,51
 827 -20 827 -20 600 -20 c 0,52,53
 358 -20 358 -20 226 128 c 0,54,55
 105 263 105 263 105 479 c 9,13,-1
EndSplineSet
Validated: 1
EndChar

StartChar: uni1E61
Encoding: 7777 7777 143
Width: 1200
GlyphClass: 2
Flags: W
HStem: -20 246<478.209 733.789> 884 236<477.206 674.045> 1166 354<481.699 719.883>
VStem: 162 258<285.054 402> 198 256<752.797 865.183> 421 358<1225.12 1459.71> 770 268<263.085 418.133>
DStem2: 761 662 441 516 0.951783 -0.306773<-334.951 93.5172>
LayerCount: 2
Fore
SplineSet
600 1520 m 0,0,1
 678 1520 678 1520 726 1470 c 0,2,3
 779 1416 779 1416 779 1343 c 0,4,5
 779 1268 779 1268 727 1217 c 128,-1,6
 675 1166 675 1166 600 1166 c 128,-1,7
 525 1166 525 1166 475 1215 c 0,8,9
 421 1267 421 1267 421 1343 c 128,-1,10
 421 1419 421 1419 475 1470 c 0,11,12
 528 1520 528 1520 600 1520 c 0,0,1
162 402 m 9,13,-1
 420 402 l 17,14,15
 420 321 420 321 470 276 c 0,16,17
 526 226 526 226 605 226 c 0,18,19
 680 226 680 226 723 261 c 0,20,21
 770 298 770 298 770 346 c 24,22,23
 770 410 770 410 683 438 c 2,24,-1
 441 516 l 2,25,26
 198 595 198 595 198 803 c 24,27,28
 198 954 198 954 337 1051 c 0,29,30
 436 1120 436 1120 587 1120 c 0,31,32
 769 1120 769 1120 877 996 c 0,33,34
 967 893 967 893 967 749 c 9,35,-1
 708 749 l 17,36,37
 708 804 708 804 676 840 c 0,38,39
 635 884 635 884 579 884 c 128,-1,40
 523 884 523 884 488.5 864.5 c 152,-1,41
 454 845 454 845 454 810 c 0,42,43
 454 761 454 761 555 728 c 2,44,-1
 761 662 l 2,45,46
 1038 572 1038 572 1038 351 c 24,47,48
 1038 196 1038 196 912 85 c 0,49,50
 793 -20 793 -20 598 -20 c 0,51,52
 395 -20 395 -20 276 98 c 0,53,54
 162 211 162 211 162 402 c 9,13,-1
EndSplineSet
Validated: 1
EndChar

StartChar: uni1E6A
Encoding: 7786 7786 144
Width: 1200
GlyphClass: 2
Flags: W
HStem: 0 21G<465 735> 1250 250<105 465 735 1095> 1566 354<481.699 719.883>
VStem: 421 358<1625.12 1859.71> 465 270<0 1250>
LayerCount: 2
Fore
SplineSet
600 1920 m 0,0,1
 678 1920 678 1920 726 1870 c 0,2,3
 779 1816 779 1816 779 1743 c 0,4,5
 779 1668 779 1668 727 1617 c 128,-1,6
 675 1566 675 1566 600 1566 c 128,-1,7
 525 1566 525 1566 475 1615 c 0,8,9
 421 1667 421 1667 421 1743 c 128,-1,10
 421 1819 421 1819 475 1870 c 0,11,12
 528 1920 528 1920 600 1920 c 0,0,1
465 0 m 1,13,-1
 465 1250 l 1,14,-1
 105 1250 l 1,15,-1
 105 1500 l 1,16,-1
 1095 1500 l 1,17,-1
 1095 1250 l 1,18,-1
 735 1250 l 1,19,-1
 735 0 l 1,20,-1
 465 0 l 1,13,-1
EndSplineSet
Validated: 1
EndChar

StartChar: uni1E6B
Encoding: 7787 7787 145
Width: 1200
GlyphClass: 2
Flags: W
HStem: -20 243<776.454 1004.64> 850 250<141 465 735 1059> 1480 20G<465 735> 1566 354<481.699 719.883>
VStem: 421 358<1625.12 1859.71> 465 270<271.393 850 1100 1500>
LayerCount: 2
Fore
SplineSet
600 1920 m 0,0,1
 678 1920 678 1920 726 1870 c 0,2,3
 779 1816 779 1816 779 1743 c 0,4,5
 779 1668 779 1668 727 1617 c 128,-1,6
 675 1566 675 1566 600 1566 c 128,-1,7
 525 1566 525 1566 475 1615 c 0,8,9
 421 1667 421 1667 421 1743 c 128,-1,10
 421 1819 421 1819 475 1870 c 0,11,12
 528 1920 528 1920 600 1920 c 0,0,1
1184 113 m 17,13,14
 1071 -20 1071 -20 874 -20 c 0,15,16
 671 -20 671 -20 562 97 c 0,17,18
 465 201 465 201 465 415 c 2,19,-1
 465 850 l 1,20,-1
 141 850 l 1,21,-1
 141 1100 l 1,22,-1
 465 1100 l 1,23,-1
 465 1500 l 1,24,-1
 735 1500 l 1,25,-1
 735 1100 l 1,26,-1
 1059 1100 l 1,27,-1
 1059 850 l 1,28,-1
 735 850 l 1,29,-1
 735 431 l 2,30,31
 735 314 735 314 772 270 c 0,32,33
 812 223 812 223 885 223 c 0,34,35
 973 223 973 223 1043 304 c 9,36,-1
 1184 113 l 17,13,14
EndSplineSet
Validated: 1
EndChar

StartChar: Wgrave
Encoding: 7808 7808 146
Width: 1200
GlyphClass: 2
Flags: W
HStem: 0 21G<155 503.5 690.5 1042> 1480 20G<10 280 920 1190>
VStem: 10 270<1041.54 1500> 477 232<675.707 1036> 920 270<1053.02 1500>
LayerCount: 2
Fore
SplineSet
552 1930 m 1,0,-1
 683 1634 l 1,1,-1
 492 1540 l 1,2,-1
 298 1811 l 1,3,-1
 552 1930 l 1,0,-1
250 0 m 1,4,5
 60 742 60 742 10 1500 c 1,6,-1
 280 1500 l 1,7,8
 280 952 280 952 367 426 c 1,9,10
 477 755 477 755 477 1036 c 1,11,-1
 709 1036 l 1,12,13
 709 747 709 747 835 403 c 1,14,15
 920 942 920 942 920 1500 c 1,16,-1
 1190 1500 l 1,17,18
 1134 746 1134 746 950 0 c 1,19,-1
 745 0 l 1,20,21
 636 326 636 326 592 619 c 1,22,23
 552 332 552 332 455 0 c 1,24,-1
 250 0 l 1,4,5
EndSplineSet
Validated: 19457
EndChar

StartChar: wgrave
Encoding: 7809 7809 147
Width: 1200
GlyphClass: 2
Flags: W
HStem: 0 21G<176 540 662.5 1024> 1080 20G<19 297.5 900.5 1181> 1500 20G<523.311 574.851>
VStem: 19 270<804.691 1100> 485 231<462.988 836> 911 270<804.691 1100>
LayerCount: 2
Fore
SplineSet
566 1520 m 1,0,-1
 697 1224 l 1,1,-1
 506 1130 l 1,2,-1
 312 1401 l 1,3,-1
 566 1520 l 1,0,-1
265 0 m 1,4,5
 87 542 87 542 19 1100 c 1,6,-1
 289 1100 l 1,7,8
 306 648 306 648 394 295 c 1,9,10
 485 565 485 565 485 836 c 1,11,-1
 716 836 l 1,12,13
 716 563 716 563 806 295 c 1,14,15
 890 622 890 622 911 1100 c 1,16,-1
 1181 1100 l 1,17,18
 1112 542 1112 542 936 0 c 1,19,-1
 686 0 l 1,20,21
 639 157 639 157 601 374 c 1,22,23
 565 160 565 160 515 0 c 1,24,-1
 265 0 l 1,4,5
EndSplineSet
Validated: 19457
EndChar

StartChar: Wacute
Encoding: 7810 7810 148
Width: 1200
GlyphClass: 2
Flags: W
HStem: 0 21G<155 503.5 690.5 1042> 1480 20G<10 280 920 1190>
VStem: 10 270<1041.54 1500> 477 232<675.707 1036> 920 270<1053.02 1500>
LayerCount: 2
Fore
SplineSet
622 1930 m 1,0,-1
 876 1811 l 1,1,-1
 682 1540 l 1,2,-1
 491 1634 l 1,3,-1
 622 1930 l 1,0,-1
250 0 m 1,4,5
 60 742 60 742 10 1500 c 1,6,-1
 280 1500 l 1,7,8
 280 952 280 952 367 426 c 1,9,10
 477 755 477 755 477 1036 c 1,11,-1
 709 1036 l 1,12,13
 709 747 709 747 835 403 c 1,14,15
 920 942 920 942 920 1500 c 1,16,-1
 1190 1500 l 1,17,18
 1134 746 1134 746 950 0 c 1,19,-1
 745 0 l 1,20,21
 636 326 636 326 592 619 c 1,22,23
 552 332 552 332 455 0 c 1,24,-1
 250 0 l 1,4,5
EndSplineSet
Validated: 19457
EndChar

StartChar: wacute
Encoding: 7811 7811 149
Width: 1200
GlyphClass: 2
Flags: W
HStem: 0 21G<176 540 662.5 1024> 1080 20G<19 297.5 900.5 1181> 1500 20G<602.149 653.689>
VStem: 19 270<804.691 1100> 485 231<462.988 836> 911 270<804.691 1100>
LayerCount: 2
Fore
SplineSet
611 1520 m 1,0,-1
 865 1401 l 1,1,-1
 671 1130 l 1,2,-1
 480 1224 l 1,3,-1
 611 1520 l 1,0,-1
265 0 m 1,4,5
 87 542 87 542 19 1100 c 1,6,-1
 289 1100 l 1,7,8
 306 648 306 648 394 295 c 1,9,10
 485 565 485 565 485 836 c 1,11,-1
 716 836 l 1,12,13
 716 563 716 563 806 295 c 1,14,15
 890 622 890 622 911 1100 c 1,16,-1
 1181 1100 l 1,17,18
 1112 542 1112 542 936 0 c 1,19,-1
 686 0 l 1,20,21
 639 157 639 157 601 374 c 1,22,23
 565 160 565 160 515 0 c 1,24,-1
 265 0 l 1,4,5
EndSplineSet
Validated: 19457
EndChar

StartChar: Wdieresis
Encoding: 7812 7812 150
Width: 1200
GlyphClass: 2
Flags: W
HStem: 0 21G<155 503.5 690.5 1042> 1480 20G<10 280 920 1190> 1581 319<299.473 521.043 685.504 908.588>
VStem: 10 270<1041.54 1500> 249 322<1630.43 1850.46> 477 232<675.707 1036> 636 322<1630.36 1850.64> 920 270<1053.02 1500>
LayerCount: 2
Fore
SplineSet
250 0 m 1,0,1
 60 742 60 742 10 1500 c 1,2,-1
 280 1500 l 1,3,4
 280 952 280 952 367 426 c 1,5,6
 477 755 477 755 477 1036 c 1,7,-1
 709 1036 l 1,8,9
 709 747 709 747 835 403 c 1,10,11
 920 942 920 942 920 1500 c 1,12,-1
 1190 1500 l 1,13,14
 1134 746 1134 746 950 0 c 1,15,-1
 745 0 l 1,16,17
 636 326 636 326 592 619 c 1,18,19
 552 332 552 332 455 0 c 1,20,-1
 250 0 l 1,0,1
797 1900 m 0,21,22
 865 1900 865 1900 910 1855 c 0,23,24
 958 1807 958 1807 958 1741 c 0,25,26
 958 1673 958 1673 911 1627 c 0,27,28
 863 1581 863 1581 797 1581 c 0,29,30
 730 1581 730 1581 684 1626 c 0,31,32
 636 1672 636 1672 636 1741 c 0,33,34
 636 1809 636 1809 684 1855 c 0,35,36
 732 1900 732 1900 797 1900 c 0,21,22
410 1900 m 0,37,38
 478 1900 478 1900 523 1855 c 0,39,40
 571 1807 571 1807 571 1741 c 0,41,42
 571 1674 571 1674 524 1627.5 c 128,-1,43
 477 1581 477 1581 410 1581 c 0,44,45
 345 1581 345 1581 298 1626 c 0,46,47
 249 1672 249 1672 249 1741 c 0,48,49
 249 1809 249 1809 298 1855 c 0,50,51
 345 1900 345 1900 410 1900 c 0,37,38
EndSplineSet
Validated: 19457
EndChar

StartChar: wdieresis
Encoding: 7813 7813 151
Width: 1200
GlyphClass: 2
Flags: W
HStem: 0 21G<176 540 662.5 1024> 1080 20G<19 297.5 900.5 1181> 1179 319<296.473 518.043 682.504 905.588>
VStem: 19 270<804.691 1100> 246 322<1228.43 1448.46> 485 231<462.988 836> 633 322<1228.36 1448.64> 911 270<804.691 1100>
LayerCount: 2
Fore
SplineSet
265 0 m 1,0,1
 87 542 87 542 19 1100 c 1,2,-1
 289 1100 l 1,3,4
 306 648 306 648 394 295 c 1,5,6
 485 565 485 565 485 836 c 1,7,-1
 716 836 l 1,8,9
 716 563 716 563 806 295 c 1,10,11
 890 622 890 622 911 1100 c 1,12,-1
 1181 1100 l 1,13,14
 1112 542 1112 542 936 0 c 1,15,-1
 686 0 l 1,16,17
 639 157 639 157 601 374 c 1,18,19
 565 160 565 160 515 0 c 1,20,-1
 265 0 l 1,0,1
794 1498 m 0,21,22
 862 1498 862 1498 907 1453 c 0,23,24
 955 1405 955 1405 955 1339 c 0,25,26
 955 1271 955 1271 908 1225 c 0,27,28
 860 1179 860 1179 794 1179 c 0,29,30
 727 1179 727 1179 681 1224 c 0,31,32
 633 1270 633 1270 633 1339 c 0,33,34
 633 1407 633 1407 681 1453 c 0,35,36
 729 1498 729 1498 794 1498 c 0,21,22
407 1498 m 0,37,38
 475 1498 475 1498 520 1453 c 0,39,40
 568 1405 568 1405 568 1339 c 0,41,42
 568 1272 568 1272 521 1225.5 c 128,-1,43
 474 1179 474 1179 407 1179 c 0,44,45
 342 1179 342 1179 295 1224 c 0,46,47
 246 1270 246 1270 246 1339 c 0,48,49
 246 1407 246 1407 295 1453 c 0,50,51
 342 1498 342 1498 407 1498 c 0,37,38
EndSplineSet
Validated: 1
EndChar

StartChar: Ygrave
Encoding: 7922 7922 152
Width: 1200
GlyphClass: 2
Flags: W
HStem: 0 21G<465 735> 1480 20G<55 388 816.5 1145>
VStem: 465 270<0 666.395>
LayerCount: 2
Fore
SplineSet
552 1930 m 1,0,-1
 683 1634 l 1,1,-1
 492 1540 l 1,2,-1
 298 1811 l 1,3,-1
 552 1930 l 1,0,-1
465 0 m 1,4,-1
 465 592 l 1,5,6
 205 1070 205 1070 55 1500 c 1,7,-1
 325 1500 l 1,8,9
 451 1149 451 1149 601 851 c 1,10,11
 758 1147 758 1147 875 1500 c 1,12,-1
 1145 1500 l 1,13,14
 1001 1070 1001 1070 735 592 c 1,15,-1
 735 0 l 1,16,-1
 465 0 l 1,4,-1
EndSplineSet
Validated: 19457
EndChar

StartChar: ygrave
Encoding: 7923 7923 153
Width: 1200
GlyphClass: 2
Flags: W
HStem: -420 247<465.401 714.511> -20 243<457.086 687.287> 1080 20G<141 411 789 1059> 1500 20G<523.311 574.851>
VStem: 141 270<275.483 1100> 789 270<-92.1211 99 331.455 1100>
LayerCount: 2
Fore
SplineSet
566 1520 m 1,0,-1
 697 1224 l 1,1,-1
 506 1130 l 1,2,-1
 312 1401 l 1,3,-1
 566 1520 l 1,0,-1
141 1100 m 1,4,-1
 411 1100 l 1,5,-1
 411 425 l 2,6,7
 411 321 411 321 451 274 c 0,8,9
 494 223 494 223 561 223 c 0,10,11
 649 223 649 223 713 290 c 0,12,13
 789 370 789 370 789 522 c 2,14,-1
 789 1100 l 1,15,-1
 1059 1100 l 1,16,-1
 1059 168 l 2,17,18
 1059 -95 1059 -95 944 -245 c 0,19,20
 810 -420 810 -420 578.5 -420 c 128,-1,21
 347 -420 347 -420 185 -196 c 1,22,-1
 400 -56 l 1,23,24
 471 -173 471 -173 596 -173 c 0,25,26
 704 -173 704 -173 760 -73 c 0,27,28
 788 -20 788 -20 788 99 c 1,29,30
 687 -20 687 -20 517 -20 c 0,31,32
 354 -20 354 -20 243 98 c 0,33,34
 141 206 141 206 141 411 c 2,35,-1
 141 1100 l 1,4,-1
EndSplineSet
Validated: 19457
EndChar

StartChar: uni2010
Encoding: 8208 8208 154
Width: 1200
GlyphClass: 2
Flags: W
HStem: 625 250<255 945>
LayerCount: 2
Fore
SplineSet
255 875 m 1,0,-1
 945 875 l 1,1,-1
 945 625 l 1,2,-1
 255 625 l 1,3,-1
 255 875 l 1,0,-1
EndSplineSet
Validated: 1
EndChar

StartChar: uni2011
Encoding: 8209 8209 155
Width: 1200
GlyphClass: 2
Flags: W
HStem: 625 250<255 945>
LayerCount: 2
Fore
SplineSet
255 875 m 5,0,-1
 945 875 l 5,1,-1
 945 625 l 5,2,-1
 255 625 l 5,3,-1
 255 875 l 5,0,-1
EndSplineSet
Validated: 1
EndChar

StartChar: figuredash
Encoding: 8210 8210 156
Width: 1200
GlyphClass: 2
Flags: W
HStem: 625 250<141 1059>
LayerCount: 2
Fore
SplineSet
141 875 m 1,0,-1
 1059 875 l 1,1,-1
 1059 625 l 1,2,-1
 141 625 l 1,3,-1
 141 875 l 1,0,-1
EndSplineSet
Validated: 1
EndChar

StartChar: endash
Encoding: 8211 8211 157
Width: 1200
GlyphClass: 2
Flags: W
HStem: 625 250<141 1059>
LayerCount: 2
Fore
SplineSet
141 875 m 1,0,-1
 1059 875 l 1,1,-1
 1059 625 l 1,2,-1
 141 625 l 1,3,-1
 141 875 l 1,0,-1
EndSplineSet
Validated: 1
EndChar

StartChar: emdash
Encoding: 8212 8212 158
Width: 1200
GlyphClass: 2
Flags: W
HStem: 625 250<5 1195>
LayerCount: 2
Fore
SplineSet
5 875 m 1,0,-1
 1195 875 l 1,1,-1
 1195 625 l 1,2,-1
 5 625 l 1,3,-1
 5 875 l 1,0,-1
EndSplineSet
Validated: 1
EndChar

StartChar: afii00208
Encoding: 8213 8213 159
Width: 1200
GlyphClass: 2
Flags: W
HStem: 625 250<5 1195>
LayerCount: 2
Fore
SplineSet
5 875 m 5,0,-1
 1195 875 l 5,1,-1
 1195 625 l 5,2,-1
 5 625 l 5,3,-1
 5 875 l 5,0,-1
EndSplineSet
Validated: 1
EndChar

StartChar: uni2016
Encoding: 8214 8214 160
Width: 1200
GlyphClass: 2
Flags: W
VStem: 297 250<-260 1760> 653 250<-260 1760>
LayerCount: 2
Fore
SplineSet
653 1760 m 1,0,-1
 903 1760 l 1,1,-1
 903 -260 l 1,2,-1
 653 -260 l 1,3,-1
 653 1760 l 1,0,-1
297 1760 m 1,4,-1
 547 1760 l 1,5,-1
 547 -260 l 1,6,-1
 297 -260 l 1,7,-1
 297 1760 l 1,4,-1
EndSplineSet
Validated: 1
EndChar

StartChar: underscoredbl
Encoding: 8215 8215 161
Width: 1200
GlyphClass: 2
Flags: W
HStem: -410 140<141 1059> -192 140<141 1059>
LayerCount: 2
Fore
SplineSet
141 -192 m 1,0,-1
 141 -52 l 1,1,-1
 1059 -52 l 1,2,-1
 1059 -192 l 1,3,-1
 141 -192 l 1,0,-1
141 -410 m 1,4,-1
 141 -270 l 1,5,-1
 1059 -270 l 1,6,-1
 1059 -410 l 1,7,-1
 141 -410 l 1,4,-1
EndSplineSet
Validated: 1
EndChar

StartChar: quoteleft
Encoding: 8216 8216 162
Width: 1200
GlyphClass: 2
Flags: W
HStem: 903 617
VStem: 429 250<1042.98 1329.14>
LayerCount: 2
Fore
SplineSet
771 1520 m 1,0,-1
 771 1404 l 1,1,2
 679 1302 679 1302 679 1185 c 0,3,4
 679 1074 679 1074 757 1005 c 1,5,-1
 521 903 l 1,6,7
 429 1017 429 1017 429 1158 c 0,8,9
 429 1429 429 1429 771 1520 c 1,0,-1
EndSplineSet
Validated: 1
EndChar

StartChar: quoteright
Encoding: 8217 8217 163
Width: 1200
GlyphClass: 2
Flags: W
HStem: 903 617
VStem: 521 250<1093.86 1380.02>
LayerCount: 2
Fore
SplineSet
679 1520 m 1,0,1
 771 1406 771 1406 771 1265 c 0,2,3
 771 994 771 994 429 903 c 1,4,-1
 429 1019 l 1,5,6
 521 1121 521 1121 521 1238 c 0,7,8
 521 1349 521 1349 443 1418 c 1,9,-1
 679 1520 l 1,0,1
EndSplineSet
Validated: 1
EndChar

StartChar: quotesinglbase
Encoding: 8218 8218 164
Width: 1200
GlyphClass: 2
Flags: W
HStem: -249 617
VStem: 521 250<-58.1422 228.019>
LayerCount: 2
Fore
SplineSet
679 368 m 1,0,1
 771 254 771 254 771 113 c 0,2,3
 771 -158 771 -158 429 -249 c 1,4,-1
 429 -133 l 1,5,6
 521 -31 521 -31 521 86 c 0,7,8
 521 197 521 197 443 266 c 1,9,-1
 679 368 l 1,0,1
EndSplineSet
Validated: 1
EndChar

StartChar: quotereversed
Encoding: 8219 8219 165
Width: 1200
GlyphClass: 2
Flags: W
HStem: 903 617
VStem: 429 250<1093.86 1380.02>
LayerCount: 2
Fore
SplineSet
521 1520 m 1,0,1
 757 1418 l 1,2,3
 679 1349 679 1349 679 1238 c 0,4,5
 679 1121 679 1121 771 1019 c 1,6,-1
 771 903 l 1,7,8
 429 994 429 994 429 1265 c 0,9,10
 429 1406 429 1406 521 1520 c 1,0,1
EndSplineSet
Validated: 1
EndChar

StartChar: quotedblleft
Encoding: 8220 8220 166
Width: 1200
GlyphClass: 2
Flags: W
HStem: 903 617
VStem: 239 250<1042.98 1329.14> 619 250<1042.98 1329.14>
LayerCount: 2
Fore
SplineSet
581 1520 m 1,0,-1
 581 1404 l 1,1,2
 489 1302 489 1302 489 1185 c 0,3,4
 489 1074 489 1074 567 1005 c 1,5,-1
 331 903 l 1,6,7
 239 1017 239 1017 239 1158 c 0,8,9
 239 1429 239 1429 581 1520 c 1,0,-1
961 1520 m 1,10,-1
 961 1404 l 1,11,12
 869 1302 869 1302 869 1185 c 0,13,14
 869 1074 869 1074 947 1005 c 1,15,-1
 711 903 l 1,16,17
 619 1017 619 1017 619 1158 c 0,18,19
 619 1429 619 1429 961 1520 c 1,10,-1
EndSplineSet
Validated: 1
EndChar

StartChar: quotedblright
Encoding: 8221 8221 167
Width: 1200
GlyphClass: 2
Flags: W
HStem: 903 617
VStem: 331 250<1093.86 1380.02> 711 250<1093.86 1380.02>
LayerCount: 2
Fore
SplineSet
869 1520 m 1,0,1
 961 1406 961 1406 961 1265 c 0,2,3
 961 994 961 994 619 903 c 1,4,-1
 619 1019 l 1,5,6
 711 1121 711 1121 711 1238 c 0,7,8
 711 1349 711 1349 633 1418 c 1,9,-1
 869 1520 l 1,0,1
489 1520 m 1,10,11
 581 1406 581 1406 581 1265 c 0,12,13
 581 994 581 994 239 903 c 1,14,-1
 239 1019 l 1,15,16
 331 1121 331 1121 331 1238 c 0,17,18
 331 1349 331 1349 253 1418 c 1,19,-1
 489 1520 l 1,10,11
EndSplineSet
Validated: 1
EndChar

StartChar: quotedblbase
Encoding: 8222 8222 168
Width: 1200
GlyphClass: 2
Flags: W
HStem: -249 617
VStem: 331 250<-58.1422 228.019> 711 250<-58.1422 228.019>
LayerCount: 2
Fore
SplineSet
869 368 m 1,0,1
 961 254 961 254 961 113 c 0,2,3
 961 -158 961 -158 619 -249 c 1,4,-1
 619 -133 l 1,5,6
 711 -31 711 -31 711 86 c 0,7,8
 711 197 711 197 633 266 c 1,9,-1
 869 368 l 1,0,1
489 368 m 1,10,11
 581 254 581 254 581 113 c 0,12,13
 581 -158 581 -158 239 -249 c 1,14,-1
 239 -133 l 1,15,16
 331 -31 331 -31 331 86 c 0,17,18
 331 197 331 197 253 266 c 1,19,-1
 489 368 l 1,10,11
EndSplineSet
Validated: 1
EndChar

StartChar: uni201F
Encoding: 8223 8223 169
Width: 1200
GlyphClass: 2
Flags: W
HStem: 903 617
VStem: 239 250<1093.86 1380.02> 619 250<1093.86 1380.02>
LayerCount: 2
Fore
SplineSet
331 1520 m 1,0,1
 567 1418 l 1,2,3
 489 1349 489 1349 489 1238 c 0,4,5
 489 1121 489 1121 581 1019 c 1,6,-1
 581 903 l 1,7,8
 239 994 239 994 239 1265 c 0,9,10
 239 1406 239 1406 331 1520 c 1,0,1
711 1520 m 1,11,-1
 947 1418 l 1,12,13
 869 1349 869 1349 869 1238 c 0,14,15
 869 1121 869 1121 961 1019 c 1,16,-1
 961 903 l 1,17,18
 619 994 619 994 619 1265 c 0,19,20
 619 1406 619 1406 711 1520 c 1,11,-1
EndSplineSet
Validated: 1
EndChar

StartChar: dagger
Encoding: 8224 8224 170
Width: 1200
GlyphClass: 2
Flags: W
HStem: 0 21G<475 725> 916 250<141 475 725 1059> 1480 20G<475 725>
VStem: 475 250<0 916 1166 1500>
LayerCount: 2
Fore
SplineSet
475 0 m 1,0,-1
 475 916 l 1,1,-1
 141 916 l 1,2,-1
 141 1166 l 1,3,-1
 475 1166 l 1,4,-1
 475 1500 l 1,5,-1
 725 1500 l 1,6,-1
 725 1166 l 1,7,-1
 1059 1166 l 1,8,-1
 1059 916 l 1,9,-1
 725 916 l 1,10,-1
 725 0 l 1,11,-1
 475 0 l 1,0,-1
EndSplineSet
Validated: 1
EndChar

StartChar: daggerdbl
Encoding: 8225 8225 171
Width: 1200
GlyphClass: 2
Flags: W
HStem: 0 21G<475 725> 334 250<141 475 725 1059> 916 250<141 475 725 1059> 1480 20G<475 725>
VStem: 475 250<0 334 584 916 1166 1500>
LayerCount: 2
Fore
SplineSet
475 0 m 1,0,-1
 475 334 l 1,1,-1
 141 334 l 1,2,-1
 141 584 l 1,3,-1
 475 584 l 1,4,-1
 475 916 l 1,5,-1
 141 916 l 1,6,-1
 141 1166 l 1,7,-1
 475 1166 l 1,8,-1
 475 1500 l 1,9,-1
 725 1500 l 1,10,-1
 725 1166 l 1,11,-1
 1059 1166 l 1,12,-1
 1059 916 l 1,13,-1
 725 916 l 1,14,-1
 725 584 l 1,15,-1
 1059 584 l 1,16,-1
 1059 334 l 1,17,-1
 725 334 l 1,18,-1
 725 0 l 1,19,-1
 475 0 l 1,0,-1
EndSplineSet
Validated: 1
EndChar

StartChar: bullet
Encoding: 8226 8226 172
Width: 1200
GlyphClass: 2
Flags: W
HStem: 374 755<418.281 779.453>
VStem: 217 766<578.938 930.266>
LayerCount: 2
Fore
SplineSet
600 1129 m 0,0,1
 759 1129 759 1129 871 1019 c 0,2,3
 983 910 983 910 983 752 c 0,4,5
 983 591 983 591 871 484 c 0,6,7
 757 374 757 374 600 374 c 0,8,9
 439 374 439 374 328 488 c 0,10,11
 217 601 217 601 217 758 c 0,12,13
 217 908 217 908 328 1019 c 0,14,15
 438 1129 438 1129 600 1129 c 0,0,1
EndSplineSet
Validated: 1
EndChar

StartChar: uni2023
Encoding: 8227 8227 173
Width: 1200
GlyphClass: 2
Flags: W
LayerCount: 2
Fore
SplineSet
255 1195 m 1,0,-1
 1071 753 l 1,1,-1
 255 269 l 1,2,-1
 255 1195 l 1,0,-1
EndSplineSet
Validated: 1
EndChar

StartChar: onedotenleader
Encoding: 8228 8228 174
Width: 1200
GlyphClass: 2
Flags: W
HStem: -20 354<481.699 719.766>
VStem: 421 358<39.6123 273.708>
LayerCount: 2
Fore
SplineSet
600 -20 m 4,0,1
 526 -20 526 -20 475 29 c 4,2,3
 421 81 421 81 421 157 c 132,-1,4
 421 233 421 233 475 284 c 4,5,6
 528 334 528 334 600 334 c 4,7,8
 677 334 677 334 726 284 c 4,9,10
 779 230 779 230 779 157 c 4,11,12
 779 80 779 80 727 30 c 132,-1,13
 675 -20 675 -20 600 -20 c 4,0,1
EndSplineSet
Validated: 1
EndChar

StartChar: twodotenleader
Encoding: 8229 8229 175
Width: 1200
GlyphClass: 2
Flags: W
HStem: -20 354<280.699 518.766 682.699 920.766>
VStem: 220 358<39.6123 273.708> 622 358<39.6123 273.708>
LayerCount: 2
Fore
SplineSet
801 -20 m 0,0,1
 727 -20 727 -20 676 29 c 0,2,3
 622 81 622 81 622 157 c 128,-1,4
 622 233 622 233 676 284 c 0,5,6
 729 334 729 334 801 334 c 0,7,8
 878 334 878 334 927 284 c 0,9,10
 980 230 980 230 980 157 c 0,11,12
 980 80 980 80 928 30 c 128,-1,13
 876 -20 876 -20 801 -20 c 0,0,1
399 -20 m 0,14,15
 325 -20 325 -20 274 29 c 0,16,17
 220 81 220 81 220 157 c 128,-1,18
 220 233 220 233 274 284 c 0,19,20
 327 334 327 334 399 334 c 0,21,22
 476 334 476 334 525 284 c 0,23,24
 578 230 578 230 578 157 c 0,25,26
 578 80 578 80 526 30 c 128,-1,27
 474 -20 474 -20 399 -20 c 0,14,15
EndSplineSet
Validated: 1
EndChar

StartChar: ellipsis
Encoding: 8230 8230 176
Width: 1200
GlyphClass: 2
Flags: W
HStem: -20 354<80.6992 318.766 481.699 719.766 882.699 1120.77>
VStem: 20 358<39.6123 273.708> 421 358<39.6123 273.708> 822 358<39.6123 273.708>
CounterMasks: 1 70
LayerCount: 2
Fore
SplineSet
1001 -20 m 0,0,1
 927 -20 927 -20 876 29 c 0,2,3
 822 81 822 81 822 157 c 128,-1,4
 822 233 822 233 876 284 c 0,5,6
 929 334 929 334 1001 334 c 0,7,8
 1078 334 1078 334 1127 284 c 0,9,10
 1180 230 1180 230 1180 157 c 0,11,12
 1180 80 1180 80 1128 30 c 128,-1,13
 1076 -20 1076 -20 1001 -20 c 0,0,1
600 -20 m 0,14,15
 526 -20 526 -20 475 29 c 0,16,17
 421 81 421 81 421 157 c 128,-1,18
 421 233 421 233 475 284 c 0,19,20
 528 334 528 334 600 334 c 0,21,22
 677 334 677 334 726 284 c 0,23,24
 779 230 779 230 779 157 c 0,25,26
 779 80 779 80 727 30 c 128,-1,27
 675 -20 675 -20 600 -20 c 0,14,15
199 -20 m 0,28,29
 125 -20 125 -20 74 29 c 0,30,31
 20 81 20 81 20 157 c 128,-1,32
 20 233 20 233 74 284 c 0,33,34
 127 334 127 334 199 334 c 0,35,36
 276 334 276 334 325 284 c 0,37,38
 378 230 378 230 378 157 c 0,39,40
 378 80 378 80 326 30 c 128,-1,41
 274 -20 274 -20 199 -20 c 0,28,29
EndSplineSet
Validated: 1
EndChar

StartChar: uni2027
Encoding: 8231 8231 177
Width: 1200
GlyphClass: 2
Flags: W
HStem: 571 354<481.699 719.766>
VStem: 421 358<630.612 864.708>
LayerCount: 2
Fore
SplineSet
600 925 m 0,0,1
 677 925 677 925 726 875 c 0,2,3
 779 821 779 821 779 748 c 0,4,5
 779 671 779 671 727 621 c 128,-1,6
 675 571 675 571 600 571 c 0,7,8
 526 571 526 571 475 620 c 0,9,10
 421 672 421 672 421 748 c 128,-1,11
 421 824 421 824 475 875 c 0,12,13
 528 925 528 925 600 925 c 0,0,1
EndSplineSet
Validated: 1
EndChar

StartChar: perthousand
Encoding: 8240 8240 178
Width: 1200
GlyphClass: 2
Flags: W
HStem: 0 165<326.019 456.475 856.019 986.475> 339 161<326.003 456.444 856.003 986.444> 1020 165<216.019 346.475> 1359 161<216.003 346.444>
VStem: 30 168<1204.07 1341.04> 140 168<184.072 321.042> 364 166<1202.18 1341.04> 474 166<182.178 321.042> 670 168<184.072 321.042> 1004 166<182.178 321.042>
DStem2: 25 644 151 481 0.797742 0.602999<2.22664 1278.61>
LayerCount: 2
Fore
SplineSet
1045 1415 m 1,0,-1
 1171 1252 l 1,1,-1
 151 481 l 1,2,-1
 25 644 l 1,3,-1
 1045 1415 l 1,0,-1
838 252 m 128,-1,5
 838 216 838 216 862 191 c 0,6,7
 887 165 887 165 921 165 c 0,8,9
 958 165 958 165 980 190 c 0,10,11
 1004 218 1004 218 1004 252 c 0,12,13
 1004 288 1004 288 980 313.5 c 128,-1,14
 956 339 956 339 921 339 c 128,-1,15
 886 339 886 339 862 313.5 c 128,-1,4
 838 288 838 288 838 252 c 128,-1,5
308 252 m 128,-1,17
 308 216 308 216 332 191 c 0,18,19
 357 165 357 165 391 165 c 0,20,21
 428 165 428 165 450 190 c 0,22,23
 474 218 474 218 474 252 c 0,24,25
 474 288 474 288 450 313.5 c 128,-1,26
 426 339 426 339 391 339 c 128,-1,27
 356 339 356 339 332 313.5 c 128,-1,16
 308 288 308 288 308 252 c 128,-1,17
670 250 m 128,-1,29
 670 354 670 354 743 427 c 128,-1,30
 816 500 816 500 920 500 c 128,-1,31
 1024 500 1024 500 1097 427 c 128,-1,32
 1170 354 1170 354 1170 250 c 128,-1,33
 1170 146 1170 146 1097 73 c 128,-1,34
 1024 0 1024 0 920 0 c 128,-1,35
 816 0 816 0 743 73 c 128,-1,28
 670 146 670 146 670 250 c 128,-1,29
140 250 m 128,-1,37
 140 354 140 354 213 427 c 128,-1,38
 286 500 286 500 390 500 c 128,-1,39
 494 500 494 500 567 427 c 128,-1,40
 640 354 640 354 640 250 c 128,-1,41
 640 146 640 146 567 73 c 128,-1,42
 494 0 494 0 390 0 c 128,-1,43
 286 0 286 0 213 73 c 128,-1,36
 140 146 140 146 140 250 c 128,-1,37
198 1272 m 128,-1,45
 198 1236 198 1236 222 1211 c 0,46,47
 247 1185 247 1185 281 1185 c 0,48,49
 318 1185 318 1185 340 1210 c 0,50,51
 364 1238 364 1238 364 1272 c 0,52,53
 364 1308 364 1308 340 1333.5 c 128,-1,54
 316 1359 316 1359 281 1359 c 128,-1,55
 246 1359 246 1359 222 1333.5 c 128,-1,44
 198 1308 198 1308 198 1272 c 128,-1,45
30 1270 m 128,-1,57
 30 1374 30 1374 103 1447 c 128,-1,58
 176 1520 176 1520 280 1520 c 128,-1,59
 384 1520 384 1520 457 1447 c 128,-1,60
 530 1374 530 1374 530 1270 c 128,-1,61
 530 1166 530 1166 457 1093 c 128,-1,62
 384 1020 384 1020 280 1020 c 128,-1,63
 176 1020 176 1020 103 1093 c 128,-1,56
 30 1166 30 1166 30 1270 c 128,-1,57
EndSplineSet
Validated: 1
EndChar

StartChar: uni2031
Encoding: 8241 8241 179
Width: 1200
GlyphClass: 2
Flags: W
HStem: 335 165<240.286 314.096 606.286 680.096 974.286 1048.1> 1020 165<216.019 346.475> 1359 161<216.003 346.444>
VStem: 30 168<1204.07 1341.04> 110 125<169.827 333.59> 321 125<171.581 332.233> 364 166<1202.18 1341.04> 476 125<169.827 333.59> 687 125<171.581 332.233> 844 125<169.827 333.59> 1055 125<171.581 332.233>
DStem2: 25 644 151 481 0.797742 0.602999<2.22664 1278.61>
LayerCount: 2
Fore
SplineSet
969 256 m 0,0,1
 969 223 969 223 982 195 c 0,2,3
 994 170 994 170 1012 169 c 128,-1,4
 1030 168 1030 168 1042 192 c 0,5,6
 1056 221 1056 221 1055 252 c 0,7,8
 1054 285 1054 285 1042 311 c 0,9,10
 1031 335 1031 335 1012 335 c 0,11,12
 991 336 991 336 980 309 c 0,13,14
 969 279 969 279 969 256 c 0,0,1
601 256 m 0,15,16
 601 223 601 223 614 195 c 0,17,18
 626 170 626 170 644 169 c 128,-1,19
 662 168 662 168 674 192 c 0,20,21
 688 221 688 221 687 252 c 0,22,23
 686 285 686 285 674 311 c 0,24,25
 663 335 663 335 644 335 c 0,26,27
 623 336 623 336 612 309 c 0,28,29
 601 279 601 279 601 256 c 0,15,16
198 1272 m 128,-1,31
 198 1236 198 1236 222 1211 c 0,32,33
 247 1185 247 1185 281 1185 c 0,34,35
 318 1185 318 1185 340 1210 c 0,36,37
 364 1238 364 1238 364 1272 c 0,38,39
 364 1308 364 1308 340 1333.5 c 128,-1,40
 316 1359 316 1359 281 1359 c 128,-1,41
 246 1359 246 1359 222 1333.5 c 128,-1,30
 198 1308 198 1308 198 1272 c 128,-1,31
30 1270 m 128,-1,43
 30 1374 30 1374 103 1447 c 128,-1,44
 176 1520 176 1520 280 1520 c 128,-1,45
 384 1520 384 1520 457 1447 c 128,-1,46
 530 1374 530 1374 530 1270 c 128,-1,47
 530 1166 530 1166 457 1093 c 128,-1,48
 384 1020 384 1020 280 1020 c 128,-1,49
 176 1020 176 1020 103 1093 c 128,-1,42
 30 1166 30 1166 30 1270 c 128,-1,43
1045 1415 m 1,50,-1
 1171 1252 l 1,51,-1
 151 481 l 1,52,-1
 25 644 l 1,53,-1
 1045 1415 l 1,50,-1
235 256 m 0,54,55
 235 223 235 223 248 195 c 0,56,57
 260 170 260 170 278 169 c 128,-1,58
 296 168 296 168 308 192 c 0,59,60
 322 221 322 221 321 252 c 0,61,62
 320 285 320 285 308 311 c 0,63,64
 297 335 297 335 278 335 c 0,65,66
 257 336 257 336 246 309 c 0,67,68
 235 279 235 279 235 256 c 0,54,55
110 250 m 128,-1,70
 110 354 110 354 159 427 c 128,-1,71
 208 500 208 500 278 500 c 0,72,73
 349 500 349 500 397 427 c 0,74,75
 446 354 446 354 446 250 c 0,76,77
 446 148 446 148 397 73 c 0,78,79
 349 0 349 0 278 0 c 0,80,81
 208 0 208 0 159 73 c 128,-1,69
 110 146 110 146 110 250 c 128,-1,70
476 250 m 128,-1,83
 476 354 476 354 525 427 c 128,-1,84
 574 500 574 500 644 500 c 0,85,86
 715 500 715 500 763 427 c 0,87,88
 812 354 812 354 812 250 c 0,89,90
 812 148 812 148 763 73 c 0,91,92
 715 0 715 0 644 0 c 0,93,94
 574 0 574 0 525 73 c 128,-1,82
 476 146 476 146 476 250 c 128,-1,83
844 250 m 128,-1,96
 844 354 844 354 893 427 c 128,-1,97
 942 500 942 500 1012 500 c 0,98,99
 1083 500 1083 500 1131 427 c 0,100,101
 1180 354 1180 354 1180 250 c 0,102,103
 1180 148 1180 148 1131 73 c 0,104,105
 1083 0 1083 0 1012 0 c 0,106,107
 942 0 942 0 893 73 c 128,-1,95
 844 146 844 146 844 250 c 128,-1,96
EndSplineSet
Validated: 1
EndChar

StartChar: minute
Encoding: 8242 8242 180
Width: 1200
GlyphClass: 2
Flags: W
HStem: 897 623
VStem: 360 480
LayerCount: 2
Fore
SplineSet
840 1391 m 1,0,-1
 572 897 l 1,1,-1
 360 996 l 1,2,-1
 576 1520 l 1,3,-1
 840 1391 l 1,0,-1
EndSplineSet
Validated: 1
EndChar

StartChar: second
Encoding: 8243 8243 181
Width: 1200
GlyphClass: 2
Flags: W
HStem: 897 623
LayerCount: 2
Fore
SplineSet
660 1391 m 1,0,-1
 392 897 l 1,1,-1
 180 996 l 1,2,-1
 396 1520 l 1,3,-1
 660 1391 l 1,0,-1
1020 1391 m 1,4,-1
 752 897 l 1,5,-1
 540 996 l 1,6,-1
 756 1520 l 1,7,-1
 1020 1391 l 1,4,-1
EndSplineSet
Validated: 1
EndChar

StartChar: uni2034
Encoding: 8244 8244 182
Width: 1200
GlyphClass: 2
Flags: W
HStem: 897 623
LayerCount: 2
Fore
SplineSet
1200 1391 m 1,0,-1
 932 897 l 1,1,-1
 720 996 l 1,2,-1
 936 1520 l 1,3,-1
 1200 1391 l 1,0,-1
480 1391 m 1,4,-1
 212 897 l 1,5,-1
 0 996 l 1,6,-1
 216 1520 l 1,7,-1
 480 1391 l 1,4,-1
840 1391 m 1,8,-1
 572 897 l 1,9,-1
 360 996 l 1,10,-1
 576 1520 l 1,11,-1
 840 1391 l 1,8,-1
EndSplineSet
Validated: 1
EndChar

StartChar: uni2035
Encoding: 8245 8245 183
Width: 1200
GlyphClass: 2
Flags: W
HStem: 897 623
VStem: 360 480
LayerCount: 2
Fore
SplineSet
360 1391 m 1,0,-1
 624 1520 l 1,1,-1
 840 996 l 1,2,-1
 628 897 l 1,3,-1
 360 1391 l 1,0,-1
EndSplineSet
Validated: 1
EndChar

StartChar: uni2036
Encoding: 8246 8246 184
Width: 1200
GlyphClass: 2
Flags: W
HStem: 897 623
LayerCount: 2
Fore
SplineSet
540 1391 m 1,0,-1
 804 1520 l 1,1,-1
 1020 996 l 1,2,-1
 808 897 l 1,3,-1
 540 1391 l 1,0,-1
180 1391 m 1,4,-1
 444 1520 l 1,5,-1
 660 996 l 1,6,-1
 448 897 l 1,7,-1
 180 1391 l 1,4,-1
EndSplineSet
Validated: 1
EndChar

StartChar: uni2037
Encoding: 8247 8247 185
Width: 1200
GlyphClass: 2
Flags: W
HStem: 897 623
LayerCount: 2
Fore
SplineSet
0 1391 m 1,0,-1
 264 1520 l 1,1,-1
 480 996 l 1,2,-1
 268 897 l 1,3,-1
 0 1391 l 1,0,-1
720 1391 m 1,4,-1
 984 1520 l 1,5,-1
 1200 996 l 1,6,-1
 988 897 l 1,7,-1
 720 1391 l 1,4,-1
360 1391 m 1,8,-1
 624 1520 l 1,9,-1
 840 996 l 1,10,-1
 628 897 l 1,11,-1
 360 1391 l 1,8,-1
EndSplineSet
Validated: 1
EndChar

StartChar: guilsinglleft
Encoding: 8249 8249 186
Width: 1200
GlyphClass: 2
Flags: W
VStem: 332 536
LayerCount: 2
Fore
SplineSet
654 246 m 1,0,-1
 332 726 l 1,1,-1
 332 775 l 1,2,-1
 654 1256 l 1,3,-1
 868 1108 l 1,4,-1
 598 752 l 1,5,-1
 868 394 l 1,6,-1
 654 246 l 1,0,-1
EndSplineSet
Validated: 1
EndChar

StartChar: guilsinglright
Encoding: 8250 8250 187
Width: 1200
GlyphClass: 2
Flags: W
VStem: 332 536
LayerCount: 2
Fore
SplineSet
546 246 m 1,0,-1
 332 394 l 1,1,-1
 602 752 l 1,2,-1
 332 1108 l 1,3,-1
 546 1256 l 1,4,-1
 868 775 l 1,5,-1
 868 726 l 1,6,-1
 546 246 l 1,0,-1
EndSplineSet
Validated: 1
EndChar

StartChar: exclamdbl
Encoding: 8252 8252 188
Width: 1200
GlyphClass: 2
Flags: W
HStem: -20 354<240.699 477.173 722.699 959.173> 1480 20G<204 514 686 996>
VStem: 180 358<40.9434 273.708> 204 310<1095.01 1500> 244 230<370 774.992> 662 358<40.9434 273.708> 686 310<1095.01 1500> 726 230<370 774.992>
LayerCount: 2
Fore
SplineSet
841 -20 m 0,0,1
 767 -20 767 -20 716 29 c 0,2,3
 662 81 662 81 662 157 c 128,-1,4
 662 233 662 233 716 284 c 0,5,6
 769 334 769 334 841 334 c 0,7,8
 918 334 918 334 967 284 c 0,9,10
 1020 230 1020 230 1020 157 c 0,11,12
 1020 83 1020 83 966 31 c 0,13,14
 914 -20 914 -20 841 -20 c 0,0,1
686 1500 m 1,15,-1
 996 1500 l 1,16,-1
 956 370 l 1,17,-1
 726 370 l 1,18,-1
 686 1500 l 1,15,-1
359 -20 m 0,19,20
 285 -20 285 -20 234 29 c 0,21,22
 180 81 180 81 180 157 c 128,-1,23
 180 233 180 233 234 284 c 0,24,25
 287 334 287 334 359 334 c 0,26,27
 436 334 436 334 485 284 c 0,28,29
 538 230 538 230 538 157 c 0,30,31
 538 83 538 83 484 31 c 0,32,33
 432 -20 432 -20 359 -20 c 0,19,20
204 1500 m 1,34,-1
 514 1500 l 1,35,-1
 474 370 l 1,36,-1
 244 370 l 1,37,-1
 204 1500 l 1,34,-1
EndSplineSet
Validated: 1
EndChar

StartChar: uni203D
Encoding: 8253 8253 189
Width: 1200
GlyphClass: 2
Flags: W
HStem: -20 354<481.699 719.766> 1500 20G<490 717.5>
VStem: 105 270<1021 1178.12> 421 358<39.6123 273.708> 472 257<383 536.732> 493 214<868.831 1250> 517 173<798 987.253> 825 270<899.543 1183.46>
LayerCount: 2
Fore
SplineSet
105 1021 m 1,0,1
 105 1229 105 1229 233 1365 c 0,2,3
 380 1520 380 1520 600 1520 c 0,4,5
 835 1520 835 1520 971 1364 c 0,6,7
 1095 1222 1095 1222 1095 1031 c 0,8,9
 1095 789 1095 789 855 619 c 0,10,11
 729 530 729 530 729 383 c 1,12,-1
 472 383 l 1,13,14
 472 499 472 499 517 596 c 1,15,-1
 493 1251 l 1,16,17
 458 1231 458 1231 430 1196 c 0,18,19
 375 1127 375 1127 375 1021 c 1,20,-1
 105 1021 l 1,0,1
600 -20 m 0,21,22
 526 -20 526 -20 475 29 c 0,23,24
 421 81 421 81 421 157 c 128,-1,25
 421 233 421 233 475 284 c 0,26,27
 528 334 528 334 600 334 c 0,28,29
 677 334 677 334 726 284 c 0,30,31
 779 230 779 230 779 157 c 0,32,33
 779 80 779 80 727 30 c 128,-1,34
 675 -20 675 -20 600 -20 c 0,21,22
707 1250 m 1,35,-1
 690 798 l 1,36,37
 825 912 825 912 825 1030 c 0,38,39
 825 1128 825 1128 772 1194 c 0,40,41
 743 1230 743 1230 707 1250 c 1,35,-1
EndSplineSet
Validated: 1
EndChar

StartChar: uni203E
Encoding: 8254 8254 190
Width: 1200
GlyphClass: 2
Flags: W
HStem: 1532 250<141 1059>
LayerCount: 2
Fore
SplineSet
141 1782 m 5,0,-1
 1059 1782 l 5,1,-1
 1059 1532 l 5,2,-1
 141 1532 l 5,3,-1
 141 1782 l 5,0,-1
EndSplineSet
Validated: 1
EndChar

StartChar: uni2043
Encoding: 8259 8259 191
Width: 1200
GlyphClass: 2
Flags: W
VStem: 475 250<292 554 948 1210>
LayerCount: 2
Fore
SplineSet
475 1210 m 1,0,-1
 725 1210 l 1,1,-1
 725 948 l 1,2,-1
 935 1089 l 1,3,-1
 1060 872 l 1,4,-1
 830 751 l 1,5,-1
 1060 630 l 1,6,-1
 935 413 l 1,7,-1
 725 554 l 1,8,-1
 725 292 l 1,9,-1
 475 292 l 1,10,-1
 475 554 l 1,11,-1
 265 413 l 1,12,-1
 140 630 l 1,13,-1
 370 751 l 1,14,-1
 140 872 l 1,15,-1
 265 1089 l 1,16,-1
 475 948 l 1,17,-1
 475 1210 l 1,0,-1
EndSplineSet
Validated: 1
EndChar

StartChar: fraction
Encoding: 8260 8260 192
Width: 1200
GlyphClass: 2
Flags: W
DStem2: 0 -260 269 -260 0.419315 0.907841<112.796 2225.06>
LayerCount: 2
Fore
SplineSet
933 1760 m 1,0,-1
 1200 1760 l 1,1,-1
 269 -260 l 1,2,-1
 0 -260 l 1,3,-1
 933 1760 l 1,0,-1
EndSplineSet
Validated: 1
EndChar

StartChar: uni2045
Encoding: 8261 8261 193
Width: 1200
GlyphClass: 2
Flags: W
HStem: -260 250<563 897> 625 250<563 897> 1510 250<563 897>
VStem: 303 594<-260 -10 625 875 1510 1760> 303 260<-10 625 875 1510>
CounterMasks: 1 e0
LayerCount: 2
Fore
SplineSet
303 1760 m 1,0,-1
 897 1760 l 1,1,-1
 897 1510 l 1,2,-1
 563 1510 l 1,3,-1
 563 875 l 1,4,-1
 897 875 l 1,5,-1
 897 625 l 1,6,-1
 563 625 l 1,7,-1
 563 -10 l 1,8,-1
 897 -10 l 1,9,-1
 897 -260 l 1,10,-1
 303 -260 l 1,11,-1
 303 1760 l 1,0,-1
EndSplineSet
Validated: 1
EndChar

StartChar: uni2046
Encoding: 8262 8262 194
Width: 1200
GlyphClass: 2
Flags: W
HStem: -260 250<303 637> 625 250<303 637> 1510 250<303 637>
VStem: 303 594<-260 -10 625 875 1510 1760> 637 260<-10 625 875 1510>
CounterMasks: 1 e0
LayerCount: 2
Fore
SplineSet
897 1760 m 1,0,-1
 897 -260 l 1,1,-1
 303 -260 l 1,2,-1
 303 -10 l 1,3,-1
 637 -10 l 1,4,-1
 637 625 l 1,5,-1
 303 625 l 1,6,-1
 303 875 l 1,7,-1
 637 875 l 1,8,-1
 637 1510 l 1,9,-1
 303 1510 l 1,10,-1
 303 1760 l 1,11,-1
 897 1760 l 1,0,-1
EndSplineSet
Validated: 1
EndChar

StartChar: uni2047
Encoding: 8263 8263 195
Width: 1200
GlyphClass: 2
Flags: W
HStem: -20 354<249.699 487.766 673.699 911.766> 1277 243<318.545 452.556 732.563 872.793>
VStem: 3 270<1021 1231.88> 189 358<39.6123 273.708> 240 257<383 596.84> 503 270<891.661 1221.65> 613 358<39.6123 273.708> 664 257<383 596.84> 927 270<891.661 1221.67>
LayerCount: 2
Fore
SplineSet
3 1021 m 1,0,1
 3 1200 3 1200 77 1334 c 0,2,3
 181 1520 181 1520 388 1520 c 0,4,5
 494 1520 494 1520 581 1465 c 1,6,7
 668 1520 668 1520 792 1520 c 0,8,9
 1012 1520 1012 1520 1112 1352 c 0,10,11
 1197 1209 1197 1209 1197 1036 c 0,12,13
 1197 831 1197 831 1018 667 c 0,14,15
 921 578 921 578 921 383 c 1,16,-1
 664 383 l 1,17,18
 664 650 664 650 794 780 c 0,19,20
 927 913 927 913 927 1030 c 0,21,22
 927 1132 927 1132 898 1194 c 0,23,24
 859 1277 859 1277 792 1277 c 0,25,26
 758 1277 758 1277 732 1261 c 1,27,28
 773 1156 773 1156 773 1036 c 0,29,30
 773 831 773 831 594 667 c 0,31,32
 497 578 497 578 497 383 c 1,33,-1
 240 383 l 1,34,35
 240 650 240 650 370 780 c 0,36,37
 503 913 503 913 503 1030 c 0,38,39
 503 1132 503 1132 474 1194 c 0,40,41
 435 1277 435 1277 388 1277 c 0,42,43
 338 1277 338 1277 302 1207 c 0,44,45
 273 1151 273 1151 273 1021 c 1,46,-1
 3 1021 l 1,0,1
368 -20 m 0,47,48
 294 -20 294 -20 243 29 c 0,49,50
 189 81 189 81 189 157 c 128,-1,51
 189 233 189 233 243 284 c 0,52,53
 296 334 296 334 368 334 c 0,54,55
 445 334 445 334 494 284 c 0,56,57
 547 230 547 230 547 157 c 0,58,59
 547 80 547 80 495 30 c 128,-1,60
 443 -20 443 -20 368 -20 c 0,47,48
792 -20 m 0,61,62
 718 -20 718 -20 667 29 c 0,63,64
 613 81 613 81 613 157 c 128,-1,65
 613 233 613 233 667 284 c 0,66,67
 720 334 720 334 792 334 c 0,68,69
 869 334 869 334 918 284 c 0,70,71
 971 230 971 230 971 157 c 0,72,73
 971 80 971 80 919 30 c 128,-1,74
 867 -20 867 -20 792 -20 c 0,61,62
EndSplineSet
Validated: 1
EndChar

StartChar: uni2048
Encoding: 8264 8264 196
Width: 1200
GlyphClass: 2
Flags: W
HStem: -20 354<291.699 529.766 881.699 1118.17> 1277 243<321.442 490.793> 1480 20G<845 1155>
VStem: 5 270<1021 1205.23> 231 358<39.6123 273.708> 282 257<383 596.84> 545 270<891.431 1221.67> 821 358<41.1133 273.708> 845 310<1095.01 1500> 885 230<370 774.992>
LayerCount: 2
Fore
SplineSet
1000 -20 m 0,0,1
 926 -20 926 -20 875 29 c 0,2,3
 821 81 821 81 821 157 c 128,-1,4
 821 233 821 233 875 284 c 0,5,6
 928 334 928 334 1000 334 c 0,7,8
 1077 334 1077 334 1126 284 c 0,9,10
 1179 230 1179 230 1179 157 c 128,-1,11
 1179 84 1179 84 1125 31 c 0,12,13
 1073 -20 1073 -20 1000 -20 c 0,0,1
845 1500 m 1,14,-1
 1155 1500 l 1,15,-1
 1115 370 l 1,16,-1
 885 370 l 1,17,-1
 845 1500 l 1,14,-1
410 -20 m 0,18,19
 336 -20 336 -20 285 29 c 0,20,21
 231 81 231 81 231 157 c 128,-1,22
 231 233 231 233 285 284 c 0,23,24
 338 334 338 334 410 334 c 0,25,26
 487 334 487 334 536 284 c 0,27,28
 589 230 589 230 589 157 c 0,29,30
 589 80 589 80 537 30 c 128,-1,31
 485 -20 485 -20 410 -20 c 0,18,19
5 1021 m 17,32,33
 5 1200 5 1200 79 1334 c 0,34,35
 183 1520 183 1520 410 1520 c 0,36,37
 630 1520 630 1520 730 1352 c 0,38,39
 815 1209 815 1209 815 1036 c 0,40,41
 815 830 815 830 636 667 c 0,42,43
 539 578 539 578 539 383 c 9,44,-1
 282 383 l 17,45,46
 282 650 282 650 412 780 c 0,47,48
 545 913 545 913 545 1030 c 0,49,50
 545 1132 545 1132 516 1194 c 0,51,52
 477 1277 477 1277 410 1277 c 0,53,54
 340 1277 340 1277 304 1207 c 0,55,56
 275 1151 275 1151 275 1021 c 9,57,-1
 5 1021 l 17,32,33
EndSplineSet
Validated: 1
EndChar

StartChar: uni2049
Encoding: 8265 8265 197
Width: 1200
GlyphClass: 2
Flags: W
HStem: -20 354<81.6992 318.173 671.699 909.766> 1277 243<701.442 870.793> 1480 20G<45 355>
VStem: 21 358<41.1133 273.708> 45 310<1095.01 1500> 85 230<370 774.992> 385 270<1021 1205.23> 611 358<39.6123 273.708> 662 257<383 596.84> 925 270<891.431 1221.67>
LayerCount: 2
Fore
SplineSet
790 -20 m 0,0,1
 716 -20 716 -20 665 29 c 0,2,3
 611 81 611 81 611 157 c 128,-1,4
 611 233 611 233 665 284 c 0,5,6
 718 334 718 334 790 334 c 0,7,8
 867 334 867 334 916 284 c 0,9,10
 969 230 969 230 969 157 c 0,11,12
 969 80 969 80 917 30 c 128,-1,13
 865 -20 865 -20 790 -20 c 0,0,1
385 1021 m 17,14,15
 385 1200 385 1200 459 1334 c 0,16,17
 563 1520 563 1520 790 1520 c 0,18,19
 1010 1520 1010 1520 1110 1352 c 0,20,21
 1195 1209 1195 1209 1195 1036 c 0,22,23
 1195 830 1195 830 1016 667 c 0,24,25
 919 578 919 578 919 383 c 9,26,-1
 662 383 l 17,27,28
 662 650 662 650 792 780 c 0,29,30
 925 913 925 913 925 1030 c 0,31,32
 925 1132 925 1132 896 1194 c 0,33,34
 857 1277 857 1277 790 1277 c 0,35,36
 720 1277 720 1277 684 1207 c 0,37,38
 655 1151 655 1151 655 1021 c 9,39,-1
 385 1021 l 17,14,15
200 -20 m 0,40,41
 126 -20 126 -20 75 29 c 0,42,43
 21 81 21 81 21 157 c 128,-1,44
 21 233 21 233 75 284 c 0,45,46
 128 334 128 334 200 334 c 0,47,48
 277 334 277 334 326 284 c 0,49,50
 379 230 379 230 379 157 c 128,-1,51
 379 84 379 84 325 31 c 0,52,53
 273 -20 273 -20 200 -20 c 0,40,41
45 1500 m 1,54,-1
 355 1500 l 1,55,-1
 315 370 l 1,56,-1
 85 370 l 1,57,-1
 45 1500 l 1,54,-1
EndSplineSet
Validated: 1
EndChar

StartChar: uni204E
Encoding: 8270 8270 198
Width: 1200
GlyphClass: 2
Flags: W
HStem: 0 21G<475 725>
VStem: 475 250<0 262 656 918>
LayerCount: 2
Fore
SplineSet
475 918 m 1,0,-1
 725 918 l 1,1,-1
 725 656 l 1,2,-1
 935 797 l 1,3,-1
 1060 580 l 1,4,-1
 830 459 l 1,5,-1
 1060 338 l 1,6,-1
 935 121 l 1,7,-1
 725 262 l 1,8,-1
 725 0 l 1,9,-1
 475 0 l 1,10,-1
 475 262 l 1,11,-1
 265 121 l 1,12,-1
 140 338 l 1,13,-1
 370 459 l 1,14,-1
 140 580 l 1,15,-1
 265 797 l 1,16,-1
 475 656 l 1,17,-1
 475 918 l 1,0,-1
EndSplineSet
Validated: 1
EndChar

StartChar: uni2070
Encoding: 8304 8304 199
Width: 1200
GlyphClass: 2
Flags: W
HStem: 699 161<532.034 673.177> 1351 159<530.67 668.987>
VStem: 312 170<1053.54 1286.2> 718 170<903.979 1151.7>
DStem2: 483 1051 531 901 0.585376 0.810762<0 219.676>
LayerCount: 2
Fore
SplineSet
600 699 m 0,0,1
 446 699 446 699 370 833 c 0,2,3
 312 935 312 935 312 1105 c 0,4,5
 312 1277 312 1277 370 1378 c 0,6,7
 445 1510 445 1510 600.5 1510 c 128,-1,8
 756 1510 756 1510 830 1377 c 0,9,10
 888 1272 888 1272 888 1105 c 0,11,12
 888 936 888 936 830 833 c 0,13,14
 755 699 755 699 600 699 c 0,0,1
531 901 m 1,15,16
 562 860 562 860 600 860 c 0,17,18
 656 860 656 860 683 922 c 0,19,20
 718 1002 718 1002 718 1127 c 0,21,22
 718 1142 718 1142 717 1153 c 1,23,-1
 531 901 l 1,15,16
483 1051 m 1,24,-1
 670 1310 l 1,25,26
 640 1351 640 1351 600 1351 c 0,27,28
 556 1351 556 1351 517 1288 c 0,29,30
 482 1231 482 1231 482 1084 c 0,31,32
 482 1067 482 1067 483 1051 c 1,24,-1
EndSplineSet
Validated: 1
EndChar

StartChar: uni2071
Encoding: 8305 8305 200
Width: 1200
GlyphClass: 2
Flags: W
HStem: 700 161<669.735 801.789> 1158 164<321 483> 1332 217<483.003 634.997>
VStem: 450 218<1364.06 1517.03> 483 175<876.511 1158>
LayerCount: 2
Fore
SplineSet
321 1322 m 1,0,-1
 658 1322 l 1,1,-1
 658 952 l 2,2,3
 659 892 659 892 675 876 c 0,4,5
 690 861 690 861 714 861 c 0,6,7
 744 861 744 861 767 889 c 9,8,-1
 879 774 l 17,9,10
 815 700 815 700 709 700 c 0,11,12
 601 700 601 700 540 771 c 0,13,14
 483 837 483 837 483 952 c 2,15,-1
 483 1158 l 1,16,-1
 321 1158 l 1,17,-1
 321 1322 l 1,0,-1
559 1549 m 0,18,19
 607 1549 607 1549 637.5 1518 c 128,-1,20
 668 1487 668 1487 668 1440 c 0,21,22
 668 1397 668 1397 636 1363 c 0,23,24
 604 1332 604 1332 559 1332 c 0,25,26
 511 1332 511 1332 482 1362 c 0,27,28
 450 1395 450 1395 450 1440 c 0,29,30
 450 1487 450 1487 482 1519 c 0,31,32
 514 1549 514 1549 559 1549 c 0,18,19
EndSplineSet
Validated: 1
EndChar

StartChar: uni2074
Encoding: 8308 8308 201
Width: 1200
GlyphClass: 2
Flags: W
HStem: 860 152<465 594> 1480 20G<460.5 780>
VStem: 594 186<700 860 1012 1257>
LayerCount: 2
Fore
SplineSet
465 1012 m 1,0,-1
 594 1012 l 1,1,-1
 594 1257 l 1,2,3
 503 1148 503 1148 465 1012 c 1,0,-1
594 700 m 1,4,-1
 594 860 l 1,5,-1
 224 860 l 1,6,7
 299 1228 299 1228 622 1500 c 1,8,-1
 780 1500 l 1,9,-1
 780 700 l 1,10,-1
 594 700 l 1,4,-1
EndSplineSet
Validated: 1
EndChar

StartChar: uni2075
Encoding: 8309 8309 202
Width: 1200
GlyphClass: 2
Flags: W
HStem: 698 161<527.956 668.184> 1102 162<566.724 666.738> 1336 164<578 820>
VStem: 332 176<892.941 968> 692 176<885.421 1077.85>
LayerCount: 2
Fore
SplineSet
332 968 m 9,0,-1
 508 968 l 17,1,2
 508 922 508 922 531 892 c 0,3,4
 556 859 556 859 600 859 c 0,5,6
 641 859 641 859 666 895 c 0,7,8
 692 932 692 932 692 983 c 0,9,10
 692 1036 692 1036 662 1072 c 0,11,12
 636 1102 636 1102 598 1102 c 0,13,14
 550 1102 550 1102 519 1044 c 1,15,-1
 373 1124 l 1,16,-1
 434 1500 l 1,17,-1
 820 1500 l 1,18,-1
 820 1336 l 1,19,-1
 578 1336 l 1,20,-1
 566 1261 l 1,21,22
 580 1264 580 1264 603 1264 c 0,23,24
 714 1264 714 1264 792 1184 c 0,25,26
 868 1104 868 1104 868 985 c 0,27,28
 868 874 868 874 801 790 c 0,29,30
 728 698 728 698 600 698 c 0,31,32
 477 698 477 698 399 781 c 0,33,34
 332 855 332 855 332 968 c 9,0,-1
EndSplineSet
Validated: 1
EndChar

StartChar: uni2076
Encoding: 8310 8310 203
Width: 1200
GlyphClass: 2
Flags: W
HStem: 698 138<530.86 689.719> 1148 138<529.082 689.638> 1349 161<530.93 678.375>
VStem: 322 173<869.298 1217.02> 725 153<867.737 1109.62>
LayerCount: 2
Fore
SplineSet
870 1290 m 9,0,-1
 688 1290 l 17,1,2
 658 1349 658 1349 610 1349 c 0,3,4
 560 1349 560 1349 531 1309 c 0,5,6
 506 1274 506 1274 502 1220 c 1,7,8
 556 1286 556 1286 614 1286 c 0,9,10
 727 1286 727 1286 802 1203 c 0,11,12
 878 1119 878 1119 878 996 c 0,13,14
 878 881 878 881 811 793 c 0,15,16
 739 698 739 698 610 698 c 0,17,18
 453 698 453 698 380 832 c 0,19,20
 322 938 322 938 322 1104 c 0,21,22
 322 1276 322 1276 380 1376 c 0,23,24
 457 1510 457 1510 610 1510 c 128,-1,25
 763 1510 763 1510 840 1369 c 0,26,27
 859 1334 859 1334 870 1290 c 9,0,-1
610 836 m 0,28,29
 663 836 663 836 695 886 c 0,30,31
 725 933 725 933 725 994 c 0,32,33
 725 1059 725 1059 690 1105 c 0,34,35
 657 1148 657 1148 610 1148 c 128,-1,36
 563 1148 563 1148 530 1105 c 0,37,38
 495 1060 495 1060 495 994 c 0,39,40
 495 932 495 932 525 887 c 0,41,42
 558 836 558 836 610 836 c 0,28,29
EndSplineSet
Validated: 1
EndChar

StartChar: uni2077
Encoding: 8311 8311 204
Width: 1200
GlyphClass: 2
Flags: W
HStem: 1336 164<330 663>
VStem: 346 201<700 901>
LayerCount: 2
Fore
SplineSet
346 700 m 1,0,1
 454 844 454 844 592 1132 c 0,2,3
 635 1222 635 1222 663 1336 c 1,4,-1
 330 1336 l 1,5,-1
 330 1500 l 1,6,-1
 870 1500 l 1,7,8
 848 1307 848 1307 755 1081 c 0,9,10
 665 860 665 860 547 700 c 1,11,-1
 346 700 l 1,0,1
EndSplineSet
Validated: 1
EndChar

StartChar: uni2078
Encoding: 8312 8312 205
Width: 1200
GlyphClass: 2
Flags: W
HStem: 698 161<529.134 672.753> 1052 162<555.472 645.497> 1348 162<545.606 653.912>
VStem: 332 176<881.674 1030.9> 366 168<1223.76 1338.02> 665 169<1224.49 1337.97> 693 175<881.887 1029.27>
LayerCount: 2
Fore
SplineSet
669 1022 m 0,0,1
 641 1052 641 1052 601 1052 c 0,2,3
 556 1052 556 1052 532 1023 c 128,-1,4
 508 994 508 994 508 955 c 0,5,6
 508 919 508 919 532.5 889 c 128,-1,7
 557 859 557 859 601 859 c 0,8,9
 642 859 642 859 668 889 c 0,10,11
 693 917 693 917 693 956 c 0,12,13
 693 998 693 998 669 1022 c 0,0,1
646 1332 m 0,14,15
 629 1348 629 1348 601 1348 c 0,16,17
 569 1348 569 1348 554 1333 c 0,18,19
 534 1313 534 1313 534 1281 c 128,-1,20
 534 1249 534 1249 555 1229 c 0,21,22
 570 1214 570 1214 600 1214 c 128,-1,23
 630 1214 630 1214 646 1230 c 0,24,25
 665 1249 665 1249 665 1280 c 0,26,27
 665 1314 665 1314 646 1332 c 0,14,15
600 698 m 128,-1,29
 478 698 478 698 403 778 c 1,30,31
 332 853 332 853 332 954 c 0,32,33
 332 1067 332 1067 437 1143 c 1,34,35
 366 1200 366 1200 366 1291 c 0,36,37
 366 1384 366 1384 435 1448 c 0,38,39
 503 1510 503 1510 600 1510 c 0,40,41
 695 1510 695 1510 765 1448 c 0,42,43
 834 1386 834 1386 834 1291 c 0,44,45
 834 1201 834 1201 763 1143 c 1,46,47
 868 1075 868 1075 868 954 c 0,48,49
 868 854 868 854 797 778 c 0,50,28
 722 698 722 698 600 698 c 128,-1,29
EndSplineSet
Validated: 1
EndChar

StartChar: uni2079
Encoding: 8313 8313 206
Width: 1200
GlyphClass: 2
Flags: W
HStem: 698 161<521.625 669.07> 922 160<522.026 658.851> 1350 160<521.783 656.134>
VStem: 322 176<1101.43 1332.8> 682 196<986.453 1330.75>
LayerCount: 2
Fore
SplineSet
590 1350 m 0,0,1
 548 1350 548 1350 524 1310 c 0,2,3
 498 1268 498 1268 498 1214 c 0,4,5
 498 1159 498 1159 528 1117 c 0,6,7
 554 1082 554 1082 590 1082 c 128,-1,8
 626 1082 626 1082 652 1117 c 0,9,10
 682 1155 682 1155 682 1214 c 0,11,12
 682 1266 682 1266 656 1308 c 128,-1,13
 630 1350 630 1350 590 1350 c 0,0,1
330 918 m 9,14,-1
 512 918 l 17,15,16
 542 859 542 859 590 859 c 0,17,18
 640 859 640 859 669 899 c 0,19,20
 694 934 694 934 698 988 c 1,21,22
 644 922 644 922 586 922 c 0,23,24
 473 922 473 922 398 1005 c 0,25,26
 322 1089 322 1089 322 1212 c 0,27,28
 322 1327 322 1327 389 1415 c 0,29,30
 461 1510 461 1510 590 1510 c 0,31,32
 747 1510 747 1510 820 1376 c 0,33,34
 878 1270 878 1270 878 1104 c 0,35,36
 878 932 878 932 820 832 c 0,37,38
 743 698 743 698 590 698 c 128,-1,39
 437 698 437 698 360 839 c 0,40,41
 341 874 341 874 330 918 c 9,14,-1
EndSplineSet
Validated: 1
EndChar

StartChar: uni207A
Encoding: 8314 8314 207
Width: 1200
GlyphClass: 2
Flags: W
HStem: 1022 165<350 518 682 850>
VStem: 518 164<855 1022 1187 1354>
LayerCount: 2
Fore
SplineSet
518 1354 m 1,0,-1
 682 1354 l 1,1,-1
 682 1187 l 1,2,-1
 850 1187 l 1,3,-1
 850 1022 l 1,4,-1
 682 1022 l 1,5,-1
 682 855 l 1,6,-1
 518 855 l 1,7,-1
 518 1022 l 1,8,-1
 350 1022 l 1,9,-1
 350 1187 l 1,10,-1
 518 1187 l 1,11,-1
 518 1354 l 1,0,-1
EndSplineSet
Validated: 1
EndChar

StartChar: uni207B
Encoding: 8315 8315 208
Width: 1200
GlyphClass: 2
Flags: W
HStem: 1016 165<350 850>
VStem: 350 500<1016 1181>
LayerCount: 2
Fore
SplineSet
350 1181 m 1,0,-1
 850 1181 l 1,1,-1
 850 1016 l 1,2,-1
 350 1016 l 1,3,-1
 350 1181 l 1,0,-1
EndSplineSet
Validated: 1
EndChar

StartChar: uni207C
Encoding: 8316 8316 209
Width: 1200
GlyphClass: 2
Flags: W
HStem: 907 165<350 850> 1141 165<350 850>
VStem: 350 500<907 1072 1141 1306>
LayerCount: 2
Fore
SplineSet
350 1306 m 1,0,-1
 850 1306 l 1,1,-1
 850 1141 l 1,2,-1
 350 1141 l 1,3,-1
 350 1306 l 1,0,-1
350 1072 m 1,4,-1
 850 1072 l 1,5,-1
 850 907 l 1,6,-1
 350 907 l 1,7,-1
 350 1072 l 1,4,-1
EndSplineSet
Validated: 1
EndChar

StartChar: uni207D
Encoding: 8317 8317 210
Width: 1200
GlyphClass: 2
Flags: W
VStem: 426 178<850.333 1385.8> 590 184<618 802>
LayerCount: 2
Fore
SplineSet
590 618 m 1,0,1
 495 767 495 767 464 871 c 0,2,3
 426 995 426 995 426 1123.5 c 128,-1,4
 426 1252 426 1252 464 1368 c 0,5,6
 506 1493 506 1493 590 1628 c 1,7,-1
 774 1628 l 1,8,9
 690 1526 690 1526 636 1364 c 0,10,11
 604 1268 604 1268 604 1123 c 0,12,13
 604 976 604 976 636 878 c 0,14,15
 680 748 680 748 774 618 c 1,16,-1
 590 618 l 1,0,1
EndSplineSet
Validated: 1
EndChar

StartChar: uni207E
Encoding: 8318 8318 211
Width: 1200
GlyphClass: 2
Flags: W
VStem: 426 184<618 802> 596 178<850.468 1385.72>
LayerCount: 2
Fore
SplineSet
610 618 m 1,0,1
 426 618 l 1,2,3
 523 752 523 752 564 878 c 0,4,5
 596 976 596 976 596 1123 c 0,6,7
 596 1266 596 1266 564 1364 c 0,8,9
 509 1527 509 1527 426 1628 c 1,10,-1
 610 1628 l 1,11,12
 695 1491 695 1491 736 1368 c 0,13,14
 774 1254 774 1254 774 1123 c 0,15,16
 774 1001 774 1001 736 871 c 0,17,18
 703 764 703 764 610 618 c 1,0,1
EndSplineSet
Validated: 1
EndChar

StartChar: uni207F
Encoding: 8319 8319 212
Width: 1200
GlyphClass: 2
Flags: W
HStem: 1194 138<552.828 663.722>
VStem: 350 176<710 1172.56 1298 1323> 674 176<710 1173.88>
LayerCount: 2
Fore
SplineSet
350 1323 m 1,0,-1
 526 1323 l 1,1,-1
 526 1298 l 1,2,3
 574 1332 574 1332 642 1332 c 0,4,5
 730 1332 730 1332 794 1268 c 0,6,7
 850 1211 850 1211 850 1102 c 2,8,-1
 850 710 l 1,9,-1
 674 710 l 1,10,-1
 674 1102 l 2,11,12
 674 1155 674 1155 659 1174.5 c 128,-1,13
 644 1194 644 1194 621 1194 c 0,14,15
 587 1194 587 1194 565 1166 c 0,16,17
 526 1119 526 1119 526 1048 c 2,18,-1
 526 710 l 1,19,-1
 350 710 l 1,20,-1
 350 1323 l 1,0,-1
EndSplineSet
Validated: 1
EndChar

StartChar: uni2080
Encoding: 8320 8320 213
Width: 1200
GlyphClass: 2
Flags: W
HStem: -10 161<532.034 673.177> 642 159<530.67 668.987>
VStem: 312 170<344.535 577.197> 718 170<194.979 442.699>
DStem2: 483 342 531 192 0.585376 0.810762<0 219.676>
LayerCount: 2
Fore
SplineSet
600 -10 m 0,0,1
 446 -10 446 -10 370 124 c 0,2,3
 312 226 312 226 312 396 c 0,4,5
 312 568 312 568 370 669 c 0,6,7
 445 801 445 801 600.5 801 c 128,-1,8
 756 801 756 801 830 668 c 0,9,10
 888 563 888 563 888 396 c 0,11,12
 888 227 888 227 830 124 c 0,13,14
 755 -10 755 -10 600 -10 c 0,0,1
531 192 m 1,15,16
 562 151 562 151 600 151 c 0,17,18
 656 151 656 151 683 213 c 0,19,20
 718 293 718 293 718 418 c 0,21,22
 718 433 718 433 717 444 c 1,23,-1
 531 192 l 1,15,16
483 342 m 1,24,-1
 670 601 l 1,25,26
 640 642 640 642 600 642 c 0,27,28
 556 642 556 642 517 579 c 0,29,30
 482 522 482 522 482 375 c 0,31,32
 482 358 482 358 483 342 c 1,24,-1
EndSplineSet
Validated: 1
EndChar

StartChar: uni2081
Encoding: 8321 8321 214
Width: 1200
GlyphClass: 2
Flags: W
HStem: 0 175<346 508 692 854>
VStem: 508 184<175 571>
LayerCount: 2
Fore
SplineSet
534 800 m 1,0,-1
 692 800 l 1,1,-1
 692 175 l 1,2,-1
 854 175 l 1,3,-1
 854 0 l 1,4,-1
 346 0 l 1,5,-1
 346 175 l 1,6,-1
 508 175 l 1,7,-1
 508 571 l 1,8,-1
 346 396 l 1,9,-1
 346 617 l 1,10,-1
 534 800 l 1,0,-1
EndSplineSet
Validated: 1
EndChar

StartChar: uni2082
Encoding: 8322 8322 215
Width: 1200
GlyphClass: 2
Flags: W
HStem: 0 175<543 872> 639 171<531.898 674.616>
VStem: 328 184<536 606.152> 688 184<474.723 627.359>
LayerCount: 2
Fore
SplineSet
328 0 m 1,0,-1
 328 128 l 2,1,2
 328 240 328 240 441 323 c 2,3,-1
 621 456 l 2,4,5
 688 506 688 506 688 548 c 0,6,7
 688 584 688 584 663 611 c 0,8,9
 638 639 638 639 600 639 c 128,-1,10
 562 639 562 639 535 607 c 0,11,12
 512 580 512 580 512 536 c 9,13,-1
 328 536 l 17,14,15
 328 649 328 649 399 725 c 0,16,17
 478 810 478 810 600 810 c 0,18,19
 733 810 733 810 805 731 c 0,20,21
 872 658 872 658 872 560 c 0,22,23
 872 450 872 450 747 346 c 2,24,-1
 546 178 l 1,25,-1
 543 175 l 1,26,-1
 872 175 l 1,27,-1
 872 0 l 1,28,-1
 328 0 l 1,0,-1
EndSplineSet
Validated: 1
EndChar

StartChar: uni2083
Encoding: 8323 8323 216
Width: 1200
GlyphClass: 2
Flags: W
HStem: -10 171<527.977 670.372> 370 147<568 633.553> 637 173<541.55 650.069>
VStem: 328 184<192.756 264> 660 180<524.64 625.403> 688 188<182.336 345.198>
LayerCount: 2
Fore
SplineSet
328 264 m 13,0,-1
 512 264 l 21,1,2
 512 216 512 216 532 192 c 4,3,4
 558 161 558 161 600 161 c 4,5,6
 646 161 646 161 668 193 c 4,7,8
 688 221 688 221 688 263.5 c 132,-1,9
 688 306 688 306 660 340 c 4,10,11
 634 370 634 370 568 370 c 13,12,-1
 568 517 l 21,13,14
 620 517 620 517 634 527 c 4,15,16
 660 544 660 544 660 574 c 4,17,18
 660 599 660 599 644 617 c 4,19,20
 625 637 625 637 596 637 c 4,21,22
 570 637 570 637 548 619 c 4,23,24
 530 604 530 604 530 574 c 13,25,-1
 352 574 l 21,26,27
 352 676 352 676 420 743 c 132,-1,28
 488 810 488 810 594 810 c 132,-1,29
 700 810 700 810 770 748 c 4,30,31
 840 687 840 687 840 591.5 c 132,-1,32
 840 496 840 496 758 448 c 5,33,34
 876 383 876 383 876 244 c 4,35,36
 876 146 876 146 802 70 c 4,37,38
 725 -10 725 -10 600 -10 c 132,-1,39
 475 -10 475 -10 398 75 c 4,40,41
 328 151 328 151 328 264 c 13,0,-1
EndSplineSet
Validated: 1
EndChar

StartChar: uni2084
Encoding: 8324 8324 217
Width: 1200
GlyphClass: 2
Flags: W
HStem: 0 21G<594 780> 160 152<465 594>
VStem: 594 186<0 160 312 557>
LayerCount: 2
Fore
SplineSet
465 312 m 1,0,-1
 594 312 l 1,1,-1
 594 557 l 1,2,3
 503 448 503 448 465 312 c 1,0,-1
594 0 m 1,4,-1
 594 160 l 1,5,-1
 224 160 l 1,6,7
 299 528 299 528 622 800 c 1,8,-1
 780 800 l 1,9,-1
 780 0 l 1,10,-1
 594 0 l 1,4,-1
EndSplineSet
Validated: 1
EndChar

StartChar: uni2085
Encoding: 8325 8325 218
Width: 1200
GlyphClass: 2
Flags: W
HStem: -10 161<527.956 668.184> 394 162<566.724 666.738> 628 164<578 820>
VStem: 332 176<184.941 260> 692 176<177.421 369.854>
LayerCount: 2
Fore
SplineSet
332 260 m 9,0,-1
 508 260 l 17,1,2
 508 214 508 214 531 184 c 0,3,4
 556 151 556 151 600 151 c 0,5,6
 641 151 641 151 666 187 c 0,7,8
 692 224 692 224 692 275 c 0,9,10
 692 328 692 328 662 364 c 0,11,12
 636 394 636 394 598 394 c 0,13,14
 550 394 550 394 519 336 c 1,15,-1
 373 416 l 1,16,-1
 434 792 l 1,17,-1
 820 792 l 1,18,-1
 820 628 l 1,19,-1
 578 628 l 1,20,-1
 566 553 l 1,21,22
 580 556 580 556 603 556 c 0,23,24
 714 556 714 556 792 476 c 0,25,26
 868 396 868 396 868 277 c 0,27,28
 868 166 868 166 801 82 c 0,29,30
 728 -10 728 -10 600 -10 c 0,31,32
 477 -10 477 -10 399 73 c 0,33,34
 332 147 332 147 332 260 c 9,0,-1
EndSplineSet
Validated: 1
EndChar

StartChar: uni2086
Encoding: 8326 8326 219
Width: 1200
GlyphClass: 2
Flags: W
HStem: -10 160<543.866 678.217> 418 160<541.149 677.974> 641 161<530.93 678.375>
VStem: 322 196<169.249 513.547> 702 176<167.197 398.565>
LayerCount: 2
Fore
SplineSet
610 150 m 0,0,1
 652 150 652 150 676 190 c 0,2,3
 702 232 702 232 702 286 c 0,4,5
 702 341 702 341 672 383 c 0,6,7
 646 418 646 418 610 418 c 128,-1,8
 574 418 574 418 548 383 c 0,9,10
 518 345 518 345 518 286 c 0,11,12
 518 234 518 234 544 192 c 128,-1,13
 570 150 570 150 610 150 c 0,0,1
870 582 m 9,14,-1
 688 582 l 17,15,16
 658 641 658 641 610 641 c 0,17,18
 560 641 560 641 531 601 c 0,19,20
 506 566 506 566 502 512 c 1,21,22
 556 578 556 578 614 578 c 0,23,24
 727 578 727 578 802 495 c 0,25,26
 878 411 878 411 878 288 c 0,27,28
 878 173 878 173 811 85 c 0,29,30
 739 -10 739 -10 610 -10 c 0,31,32
 453 -10 453 -10 380 124 c 0,33,34
 322 230 322 230 322 396 c 0,35,36
 322 568 322 568 380 668 c 0,37,38
 457 802 457 802 610 802 c 128,-1,39
 763 802 763 802 840 661 c 0,40,41
 859 626 859 626 870 582 c 9,14,-1
EndSplineSet
Validated: 1
EndChar

StartChar: uni2087
Encoding: 8327 8327 220
Width: 1200
GlyphClass: 2
Flags: W
HStem: 0 21G<346 606> 636 164<330 663>
VStem: 346 201<0 201>
LayerCount: 2
Fore
SplineSet
346 0 m 1,0,1
 454 144 454 144 592 432 c 0,2,3
 635 522 635 522 663 636 c 1,4,-1
 330 636 l 1,5,-1
 330 800 l 1,6,-1
 870 800 l 1,7,8
 848 607 848 607 755 381 c 0,9,10
 665 160 665 160 547 0 c 1,11,-1
 346 0 l 1,0,1
EndSplineSet
Validated: 1
EndChar

StartChar: uni2088
Encoding: 8328 8328 221
Width: 1200
GlyphClass: 2
Flags: W
HStem: -10 161<529.134 672.753> 344 162<555.472 645.497> 640 162<545.606 653.912>
VStem: 332 176<173.674 322.899> 366 168<515.755 630.017> 665 169<516.486 629.966> 693 175<173.887 321.271>
LayerCount: 2
Fore
SplineSet
669 314 m 0,0,1
 641 344 641 344 601 344 c 0,2,3
 556 344 556 344 532 315 c 128,-1,4
 508 286 508 286 508 247 c 0,5,6
 508 211 508 211 532.5 181 c 128,-1,7
 557 151 557 151 601 151 c 0,8,9
 642 151 642 151 668 181 c 0,10,11
 693 209 693 209 693 248 c 0,12,13
 693 290 693 290 669 314 c 0,0,1
646 624 m 0,14,15
 629 640 629 640 601 640 c 0,16,17
 569 640 569 640 554 625 c 0,18,19
 534 605 534 605 534 573 c 128,-1,20
 534 541 534 541 555 521 c 0,21,22
 570 506 570 506 600 506 c 128,-1,23
 630 506 630 506 646 522 c 0,24,25
 665 541 665 541 665 572 c 0,26,27
 665 606 665 606 646 624 c 0,14,15
600 -10 m 128,-1,29
 478 -10 478 -10 403 70 c 1,30,31
 332 145 332 145 332 246 c 0,32,33
 332 359 332 359 437 435 c 1,34,35
 366 492 366 492 366 583 c 0,36,37
 366 676 366 676 435 740 c 0,38,39
 503 802 503 802 600 802 c 0,40,41
 695 802 695 802 765 740 c 0,42,43
 834 678 834 678 834 583 c 0,44,45
 834 493 834 493 763 435 c 1,46,47
 868 367 868 367 868 246 c 0,48,49
 868 146 868 146 797 70 c 0,50,28
 722 -10 722 -10 600 -10 c 128,-1,29
EndSplineSet
Validated: 1
EndChar

StartChar: uni2089
Encoding: 8329 8329 222
Width: 1200
GlyphClass: 2
Flags: W
HStem: -10 161<521.625 669.07> 214 160<522.026 658.851> 642 160<521.783 656.134>
VStem: 322 176<393.435 624.803> 682 196<278.453 622.751>
LayerCount: 2
Fore
SplineSet
590 642 m 0,0,1
 548 642 548 642 524 602 c 0,2,3
 498 560 498 560 498 506 c 0,4,5
 498 451 498 451 528 409 c 0,6,7
 554 374 554 374 590 374 c 128,-1,8
 626 374 626 374 652 409 c 0,9,10
 682 447 682 447 682 506 c 0,11,12
 682 558 682 558 656 600 c 128,-1,13
 630 642 630 642 590 642 c 0,0,1
330 210 m 9,14,-1
 512 210 l 17,15,16
 542 151 542 151 590 151 c 0,17,18
 640 151 640 151 669 191 c 0,19,20
 694 226 694 226 698 280 c 1,21,22
 644 214 644 214 586 214 c 0,23,24
 473 214 473 214 398 297 c 0,25,26
 322 381 322 381 322 504 c 0,27,28
 322 619 322 619 389 707 c 0,29,30
 461 802 461 802 590 802 c 0,31,32
 747 802 747 802 820 668 c 0,33,34
 878 562 878 562 878 396 c 0,35,36
 878 224 878 224 820 124 c 0,37,38
 743 -10 743 -10 590 -10 c 128,-1,39
 437 -10 437 -10 360 131 c 0,40,41
 341 166 341 166 330 210 c 9,14,-1
EndSplineSet
Validated: 1
EndChar

StartChar: uni208A
Encoding: 8330 8330 223
Width: 1200
GlyphClass: 2
Flags: W
HStem: 311 165<350 518 682 850>
VStem: 518 164<144 311 476 643>
LayerCount: 2
Fore
SplineSet
518 643 m 1,0,-1
 682 643 l 1,1,-1
 682 476 l 1,2,-1
 850 476 l 1,3,-1
 850 311 l 1,4,-1
 682 311 l 1,5,-1
 682 144 l 1,6,-1
 518 144 l 1,7,-1
 518 311 l 1,8,-1
 350 311 l 1,9,-1
 350 476 l 1,10,-1
 518 476 l 1,11,-1
 518 643 l 1,0,-1
EndSplineSet
Validated: 1
EndChar

StartChar: uni208B
Encoding: 8331 8331 224
Width: 1200
GlyphClass: 2
Flags: W
HStem: 306 165<350 850>
VStem: 350 500<306 471>
LayerCount: 2
Fore
SplineSet
350 471 m 1,0,-1
 850 471 l 1,1,-1
 850 306 l 1,2,-1
 350 306 l 1,3,-1
 350 471 l 1,0,-1
EndSplineSet
Validated: 1
EndChar

StartChar: uni208C
Encoding: 8332 8332 225
Width: 1200
GlyphClass: 2
Flags: W
HStem: 193 165<350 850> 427 165<350 850>
VStem: 350 500<193 358 427 592>
LayerCount: 2
Fore
SplineSet
350 592 m 1,0,-1
 850 592 l 1,1,-1
 850 427 l 1,2,-1
 350 427 l 1,3,-1
 350 592 l 1,0,-1
350 358 m 1,4,-1
 850 358 l 1,5,-1
 850 193 l 1,6,-1
 350 193 l 1,7,-1
 350 358 l 1,4,-1
EndSplineSet
Validated: 1
EndChar

StartChar: uni208D
Encoding: 8333 8333 226
Width: 1200
GlyphClass: 2
Flags: W
VStem: 426 178<116.333 651.804> 590 184<-116 68>
LayerCount: 2
Fore
SplineSet
590 -116 m 1,0,1
 495 33 495 33 464 137 c 0,2,3
 426 261 426 261 426 389.5 c 128,-1,4
 426 518 426 518 464 634 c 0,5,6
 506 759 506 759 590 894 c 1,7,-1
 774 894 l 1,8,9
 690 792 690 792 636 630 c 0,10,11
 604 534 604 534 604 389 c 0,12,13
 604 242 604 242 636 144 c 0,14,15
 680 14 680 14 774 -116 c 1,16,-1
 590 -116 l 1,0,1
EndSplineSet
Validated: 1
EndChar

StartChar: uni208E
Encoding: 8334 8334 227
Width: 1200
GlyphClass: 2
Flags: W
VStem: 426 184<-116 68> 596 178<116.468 651.719>
LayerCount: 2
Fore
SplineSet
610 -116 m 1,0,1
 426 -116 l 1,2,3
 523 18 523 18 564 144 c 0,4,5
 596 242 596 242 596 389 c 0,6,7
 596 532 596 532 564 630 c 0,8,9
 509 793 509 793 426 894 c 1,10,-1
 610 894 l 1,11,12
 695 757 695 757 736 634 c 0,13,14
 774 520 774 520 774 389 c 0,15,16
 774 267 774 267 736 137 c 0,17,18
 703 30 703 30 610 -116 c 1,0,1
EndSplineSet
Validated: 1
EndChar

StartChar: uni2090
Encoding: 8336 8336 228
Width: 1200
GlyphClass: 2
Flags: W
HStem: -10 157<535.41 643.246> 242 146<538.691 668> 460 162<491.446 659.571>
VStem: 352 168<153.744 229.403> 672 176<0 24 388 425.529>
LayerCount: 2
Fore
SplineSet
848 0 m 1,0,-1
 672 0 l 1,1,-1
 672 24 l 1,2,3
 625 -10 625 -10 561 -10 c 0,4,5
 451 -10 451 -10 400 52 c 0,6,7
 352 110 352 110 352 182 c 0,8,9
 352 289 352 289 440 345 c 0,10,11
 508 388 508 388 595 388 c 2,12,-1
 668 388 l 1,13,14
 668 411 668 411 659 426 c 0,15,16
 640 460 640 460 601 460 c 0,17,18
 549 460 549 460 528 418 c 9,19,-1
 399 526 l 17,20,21
 472 622 472 622 613 622 c 0,22,23
 736 622 736 622 805 526 c 0,24,25
 848 468 848 468 848 357 c 2,26,-1
 848 0 l 1,0,-1
669 242 m 1,27,-1
 596 242 l 2,28,29
 560 242 560 242 538 224 c 0,30,31
 520 210 520 210 520 188 c 0,32,33
 520 173 520 173 535 158 c 0,34,35
 548 146 548 146 578 147 c 0,36,37
 620 147 620 147 644 178 c 24,38,39
 661 199 661 199 669 242 c 1,27,-1
EndSplineSet
Validated: 1
EndChar

StartChar: uni2091
Encoding: 8337 8337 229
Width: 1200
GlyphClass: 2
Flags: W
HStem: -10 163<537.301 663.033> 460 162<538.094 662.059>
VStem: 342 516<313 338.187>
LayerCount: 2
Fore
SplineSet
843 202 m 17,0,1
 821 127 821 127 791 87 c 0,2,3
 718 -10 718 -10 600 -10 c 0,4,5
 484 -10 484 -10 409 84 c 0,6,7
 342 169 342 169 342 306 c 0,8,9
 342 446 342 446 409 529 c 0,10,11
 483 622 483 622 600 622 c 0,12,13
 714 622 714 622 791 530 c 0,14,15
 858 450 858 450 858 313 c 1,16,-1
 532 208 l 1,17,18
 536 200 536 200 539 192 c 0,19,20
 556 153 556 153 600 153 c 0,21,22
 634 153 634 153 661 194 c 0,23,24
 663 197 663 197 665 202 c 9,25,-1
 843 202 l 17,0,1
521 341 m 1,26,-1
 671 395 l 1,27,28
 668 404 668 404 662 417 c 0,29,30
 640 460 640 460 600 460 c 0,31,32
 557 460 557 460 538 418 c 0,33,34
 526 389 526 389 521 341 c 1,26,-1
EndSplineSet
Validated: 1
EndChar

StartChar: uni2092
Encoding: 8338 8338 230
Width: 1200
GlyphClass: 2
Flags: W
HStem: -10 163<538.296 662.123> 460 162<537.98 663.223>
VStem: 342 176<178.662 434.298> 682 176<178.007 434.264>
LayerCount: 2
Fore
SplineSet
600 460 m 0,0,1
 558 460 558 460 538 421 c 128,-1,2
 518 382 518 382 518 306 c 0,3,4
 518 234 518 234 538 191 c 0,5,6
 557 153 557 153 600 153 c 0,7,8
 644 153 644 153 662 191 c 0,9,10
 682 234 682 234 682 306 c 0,11,12
 682 380 682 380 662 422 c 0,13,14
 644 460 644 460 600 460 c 0,0,1
600 -10 m 0,15,16
 484 -10 484 -10 409 84 c 0,17,18
 342 169 342 169 342 306 c 0,19,20
 342 446 342 446 409 529 c 0,21,22
 483 622 483 622 599.5 622 c 128,-1,23
 716 622 716 622 791 529 c 0,24,25
 858 444 858 444 858 306 c 0,26,27
 858 167 858 167 791 83 c 0,28,29
 718 -10 718 -10 600 -10 c 0,15,16
EndSplineSet
Validated: 1
EndChar

StartChar: uni2093
Encoding: 8339 8339 231
Width: 1200
GlyphClass: 2
Flags: W
HStem: 0 590<312 327.977 498.288 516>
VStem: 290 620
LayerCount: 2
Fore
SplineSet
290 0 m 1,0,1
 400 100 400 100 498 216 c 1,2,3
 380 403 380 403 314 590 c 1,4,-1
 500 590 l 1,5,6
 536 471 536 471 600 353 c 1,7,8
 660 469 660 469 698 590 c 1,9,-1
 884 590 l 1,10,11
 816 400 816 400 702 216 c 1,12,13
 804 94 804 94 910 0 c 1,14,-1
 692 0 l 1,15,16
 638 39 638 39 598 89 c 1,17,18
 556 40 556 40 508 0 c 1,19,-1
 290 0 l 1,0,1
EndSplineSet
Validated: 1
EndChar

StartChar: uni2094
Encoding: 8340 8340 232
Width: 1200
GlyphClass: 2
Flags: W
HStem: -10 162<537.941 661.906> 459 163<536.967 662.699>
VStem: 342 516<273.813 299>
LayerCount: 2
Fore
SplineSet
357 410 m 17,0,1
 379 485 379 485 409 525 c 0,2,3
 482 622 482 622 600 622 c 0,4,5
 716 622 716 622 791 528 c 0,6,7
 858 443 858 443 858 306 c 0,8,9
 858 166 858 166 791 83 c 0,10,11
 717 -10 717 -10 600 -10 c 0,12,13
 486 -10 486 -10 409 82 c 0,14,15
 342 162 342 162 342 299 c 1,16,-1
 668 404 l 1,17,18
 664 412 664 412 661 420 c 0,19,20
 644 459 644 459 600 459 c 0,21,22
 566 459 566 459 539 418 c 0,23,24
 537 415 537 415 535 410 c 9,25,-1
 357 410 l 17,0,1
679 271 m 1,26,-1
 529 217 l 1,27,28
 532 208 532 208 538 195 c 0,29,30
 560 152 560 152 600 152 c 0,31,32
 643 152 643 152 662 194 c 0,33,34
 674 223 674 223 679 271 c 1,26,-1
EndSplineSet
Validated: 1
EndChar

StartChar: franc
Encoding: 8355 8355 233
Width: 1200
GlyphClass: 2
Flags: W
HStem: 0 21G<225 495> 222 210<50 225 495 700> 625 250<495 950> 1250 250<495 1075>
VStem: 225 270<0 222 432 625 875 1250>
LayerCount: 2
Fore
SplineSet
225 0 m 1,0,-1
 225 222 l 1,1,-1
 50 222 l 1,2,-1
 50 432 l 1,3,-1
 225 432 l 1,4,-1
 225 1500 l 1,5,-1
 1075 1500 l 1,6,-1
 1075 1250 l 1,7,-1
 495 1250 l 1,8,-1
 495 875 l 1,9,-1
 950 875 l 1,10,-1
 950 625 l 1,11,-1
 495 625 l 1,12,-1
 495 432 l 1,13,-1
 700 432 l 1,14,-1
 700 222 l 1,15,-1
 495 222 l 1,16,-1
 495 0 l 1,17,-1
 225 0 l 1,0,-1
EndSplineSet
Validated: 1
EndChar

StartChar: lira
Encoding: 8356 8356 234
Width: 1200
GlyphClass: 2
Flags: W
HStem: 0 250<68 174 444 1095> 400 210<68 174 444 786> 730 210<68 174 444 786> 1275 245<492.491 733.044>
VStem: 174 270<250 400 610 730 940 1225.59> 792 258<1098 1217.03>
LayerCount: 2
Fore
SplineSet
68 0 m 1,0,-1
 68 250 l 1,1,-1
 174 250 l 1,2,-1
 174 400 l 1,3,-1
 68 400 l 1,4,-1
 68 610 l 1,5,-1
 174 610 l 1,6,-1
 174 730 l 1,7,-1
 68 730 l 1,8,-1
 68 940 l 1,9,-1
 174 940 l 1,10,-1
 174 1125 l 2,11,12
 174 1295 174 1295 299 1407 c 0,13,14
 425 1520 425 1520 614 1520 c 0,15,16
 802 1520 802 1520 929 1399 c 0,17,18
 1050 1283 1050 1283 1050 1098 c 1,19,-1
 792 1098 l 1,20,21
 791 1177 791 1177 742 1224 c 0,22,23
 689 1275 689 1275 612 1275 c 0,24,25
 539 1275 539 1275 492 1231 c 0,26,27
 444 1186 444 1186 444 1102 c 2,28,-1
 444 940 l 1,29,-1
 786 940 l 1,30,-1
 786 730 l 1,31,-1
 444 730 l 1,32,-1
 444 610 l 1,33,-1
 786 610 l 1,34,-1
 786 400 l 1,35,-1
 444 400 l 1,36,-1
 444 250 l 1,37,-1
 1095 250 l 1,38,-1
 1095 0 l 1,39,-1
 68 0 l 1,0,-1
EndSplineSet
Validated: 1
EndChar

StartChar: peseta
Encoding: 8359 8359 235
Width: 1200
GlyphClass: 2
Flags: W
HStem: 0 21G<40 300 1110 1189> 569 250<1062 1187> 1480 20G<40 353>
VStem: 40 260<0 470.109 682 1277> 519 270<802.065 1153.61> 802 385<168.969 223.586 569 819> 802 260<255.101 569 819 1219>
LayerCount: 2
Fore
SplineSet
40 0 m 1,0,-1
 40 1500 l 1,1,-1
 240 1500 l 2,2,3
 466 1500 466 1500 609 1378 c 0,4,5
 789 1224 789 1224 789 989 c 0,6,7
 789 728 789 728 608 582 c 24,8,9
 483 480 483 480 300 465 c 1,10,-1
 300 0 l 1,11,-1
 40 0 l 1,0,-1
1189 -20 m 17,12,13
 1031 -8 1031 -8 931 70 c 24,14,15
 802 170 802 170 802 352 c 2,16,-1
 802 1219 l 1,17,-1
 1062 1219 l 1,18,-1
 1062 819 l 1,19,-1
 1187 819 l 1,20,-1
 1187 569 l 1,21,-1
 1062 569 l 1,22,-1
 1062 352 l 2,23,24
 1062 289 1062 289 1099 254 c 128,-1,25
 1136 219 1136 219 1189 208 c 9,26,-1
 1189 -20 l 17,12,13
300 682 m 1,27,28
 385 696 385 696 436 751 c 0,29,30
 519 839 519 839 519 980 c 0,31,32
 519 1120 519 1120 433 1206 c 0,33,34
 377 1262 377 1262 300 1277 c 1,35,-1
 300 682 l 1,27,28
EndSplineSet
Validated: 1
EndChar

StartChar: Euro
Encoding: 8364 8364 236
Width: 1200
GlyphClass: 2
Flags: W
HStem: -20 243<562.958 793.547> 474 210<30 146 442 798> 804 210<30 146 440 798> 1120 21G<883.5 1167> 1277 243<561.747 799.01>
VStem: 145 270<684 804>
LayerCount: 2
Fore
SplineSet
1167 380 m 1,0,1
 1142 296 1142 296 1104 227 c 0,2,3
 968 -20 968 -20 680 -20 c 0,4,5
 393 -20 393 -20 256 226 c 0,6,7
 197 332 197 332 169 474 c 1,8,-1
 30 474 l 1,9,-1
 30 684 l 1,10,-1
 146 684 l 1,11,12
 145 716 145 716 145 750 c 0,13,14
 145 777 145 777 146 804 c 1,15,-1
 30 804 l 1,16,-1
 30 1014 l 1,17,-1
 167 1014 l 1,18,19
 194 1164 194 1164 256 1274 c 0,20,21
 395 1520 395 1520 680 1520 c 0,22,23
 968 1520 968 1520 1104 1273 c 0,24,25
 1142 1204 1142 1204 1167 1120 c 1,26,-1
 885 1120 l 1,27,28
 882 1126 882 1126 872 1143 c 0,29,30
 793 1277 793 1277 680 1277 c 0,31,32
 568 1277 568 1277 488 1143 c 0,33,34
 457 1091 457 1091 440 1014 c 1,35,-1
 798 1014 l 1,36,-1
 798 804 l 1,37,-1
 416 804 l 1,38,39
 415 778 415 778 415 750 c 0,40,41
 415 716 415 716 416 684 c 1,42,-1
 798 684 l 1,43,-1
 798 474 l 1,44,-1
 442 474 l 1,45,46
 459 404 459 404 487 358 c 0,47,48
 569 223 569 223 680 223 c 0,49,50
 787 223 787 223 872 357 c 0,51,52
 879 368 879 368 885 380 c 1,53,-1
 1167 380 l 1,0,1
EndSplineSet
Validated: 1
EndChar

StartChar: afii61248
Encoding: 8453 8453 237
Width: 1200
GlyphClass: 2
Flags: W
HStem: -20 186<829.673 959.375> 607 185<830.454 960.457> 708 186<239.673 369.717> 1335 185<240.454 370.457>
VStem: 18 185<937.594 1291.28> 608 185<209.594 563.282> 997 185<210.546 574.893>
DStem2: 160 147 294 72 0.500011 0.866019<2.05005 1499.97>
LayerCount: 2
Fore
SplineSet
581 980 m 17,0,1
 567 901 567 901 535 843 c 0,2,3
 461 709 461 709 305 708 c 0,4,5
 150 708 150 708 75 842 c 0,6,7
 18 944 18 944 18 1114 c 0,8,9
 18 1286 18 1286 75 1387 c 0,10,11
 150 1520 150 1520 305 1520 c 0,12,13
 462 1520 462 1520 535 1386 c 0,14,15
 566 1329 566 1329 580 1253 c 1,16,-1
 389 1253 l 1,17,18
 384 1269 384 1269 376 1283 c 0,19,20
 346 1335 346 1335 305 1335 c 0,21,22
 266 1335 266 1335 235 1283 c 0,23,24
 203 1229 203 1229 203 1114 c 0,25,26
 203 997 203 997 233.5 945.5 c 128,-1,27
 264 894 264 894 305 894 c 0,28,29
 344 894 344 894 375 946 c 0,30,31
 384 961 384 961 390 980 c 9,32,-1
 581 980 l 17,0,1
910 1446 m 1,33,-1
 1044 1371 l 1,34,-1
 294 72 l 1,35,-1
 160 147 l 1,36,-1
 910 1446 l 1,33,-1
895 607 m 0,37,38
 856 607 856 607 825 555 c 0,39,40
 793 501 793 501 793 386 c 0,41,42
 793 269 793 269 823.5 217.5 c 128,-1,43
 854 166 854 166 895 166 c 0,44,45
 934 166 934 166 965 218 c 0,46,47
 997 272 997 272 997 386 c 0,48,49
 997 504 997 504 966 555 c 0,50,51
 936 607 936 607 895 607 c 0,37,38
895 -20 m 0,52,53
 740 -20 740 -20 665 114 c 0,54,55
 608 216 608 216 608 386 c 0,56,57
 608 558 608 558 665 659 c 0,58,59
 740 792 740 792 895 792 c 0,60,61
 1052 792 1052 792 1125 658 c 0,62,63
 1182 553 1182 553 1182 386 c 0,64,65
 1182 218 1182 218 1125 115 c 0,66,67
 1049 -19 1049 -19 895 -20 c 0,52,53
EndSplineSet
Validated: 1
EndChar

StartChar: afii61289
Encoding: 8467 8467 238
Width: 1200
GlyphClass: 2
Flags: W
HStem: 0 21G<58 388.069 547 653> 1500 20G<718 861>
LayerCount: 2
Fore
SplineSet
58 0 m 1,0,1
 196 162 196 162 295 325 c 1,2,3
 287 388 287 388 287 459 c 0,4,5
 287 600 287 600 317 739 c 0,6,7
 421 1222 421 1222 582 1417 c 0,8,9
 667 1520 667 1520 769 1520 c 24,10,11
 953 1520 953 1520 953 1273 c 0,12,13
 953 1183 953 1183 922 1035 c 0,14,15
 854 710 854 710 570 286 c 1,16,17
 590 201 590 201 620 201 c 0,18,19
 645 201 645 201 690 296 c 1,20,-1
 972 296 l 1,21,22
 889 141 889 141 781 47 c 0,23,24
 704 -20 704 -20 602 -20 c 0,25,26
 492 -20 492 -20 411 58 c 1,27,-1
 376 0 l 1,28,-1
 58 0 l 1,0,1
EndSplineSet
Validated: 1
EndChar

StartChar: afii61352
Encoding: 8470 8470 239
Width: 1200
GlyphClass: 2
Flags: W
HStem: 0 21G<30 235 400 668> 670 190<736 1180> 910 170<901.034 1018.97> 1350 170<901.276 1018.95> 1480 20G<30 321.5 463 668>
VStem: 30 225<1388.54 1500> 30 205<0 1038> 443 225<0 266.609> 463 205<801 1500> 725 159<1104.74 1325.2> 1036 159<1104.75 1325.29>
LayerCount: 2
Fore
SplineSet
960 1350 m 0,0,1
 919 1350 919 1350 901.5 1311 c 128,-1,2
 884 1272 884 1272 884 1215 c 0,3,4
 884 1154 884 1154 901 1119 c 0,5,6
 919 1080 919 1080 960 1080 c 128,-1,7
 1001 1080 1001 1080 1019 1119 c 0,8,9
 1036 1155 1036 1155 1036 1215 c 0,10,11
 1035 1278 1035 1278 1019 1311 c 0,12,13
 1000 1350 1000 1350 960 1350 c 0,0,1
960 1520 m 128,-1,15
 1066 1520 1066 1520 1133 1432 c 0,16,17
 1195 1351 1195 1351 1195 1215 c 128,-1,18
 1195 1079 1195 1079 1133 998 c 0,19,20
 1066 910 1066 910 960 910 c 128,-1,21
 854 910 854 910 787 998 c 0,22,23
 725 1079 725 1079 725 1215 c 128,-1,24
 725 1351 725 1351 787 1432 c 0,25,14
 854 1520 854 1520 960 1520 c 128,-1,15
736 670 m 1,26,-1
 736 860 l 1,27,-1
 1180 860 l 1,28,-1
 1180 670 l 1,29,-1
 736 670 l 1,26,-1
30 0 m 1,30,-1
 30 1500 l 1,31,-1
 255 1500 l 1,32,33
 388 1181 388 1181 463 801 c 1,34,-1
 463 1500 l 1,35,-1
 668 1500 l 1,36,-1
 668 0 l 1,37,-1
 443 0 l 1,38,39
 357 584 357 584 234 1038 c 1,40,-1
 235 0 l 1,41,-1
 30 0 l 1,30,-1
EndSplineSet
Validated: 1
EndChar

StartChar: trademark
Encoding: 8482 8482 240
Width: 1200
GlyphClass: 2
Flags: W
HStem: 748 772<176 361 539 723.436 1009.56 1194> 1346 174<6 176 361 531>
VStem: 176 185<748 1346> 539 185<748 1162> 774 182<928 1146.6> 1009 185<748 1166>
LayerCount: 2
Fore
SplineSet
539 1520 m 1,0,-1
 704 1520 l 1,1,2
 810 1364 810 1364 866 1190 c 1,3,4
 923 1360 923 1360 1029 1520 c 1,5,-1
 1194 1520 l 1,6,-1
 1194 748 l 1,7,-1
 1009 748 l 1,8,-1
 1009 1166 l 1,9,10
 956 1061 956 1061 956 928 c 1,11,-1
 774 928 l 1,12,13
 774 1065 774 1065 724 1162 c 1,14,-1
 724 748 l 1,15,-1
 539 748 l 1,16,-1
 539 1520 l 1,0,-1
6 1520 m 1,17,-1
 531 1520 l 1,18,-1
 531 1346 l 1,19,-1
 361 1346 l 1,20,-1
 361 748 l 1,21,-1
 176 748 l 1,22,-1
 176 1346 l 1,23,-1
 6 1346 l 1,24,-1
 6 1520 l 1,17,-1
EndSplineSet
Validated: 1
EndChar

StartChar: uni2126
Encoding: 8486 8486 241
Width: 1200
GlyphClass: 2
Flags: W
HStem: 0 250<81 246 949 1119> 1277 243<482.966 718.039>
VStem: 65 270<487.619 1078.06> 865 270<487.146 1076.26>
LayerCount: 2
Fore
SplineSet
81 0 m 1,0,-1
 81 250 l 1,1,-1
 246 250 l 1,2,3
 223 275 223 275 203 304 c 0,4,5
 65 505 65 505 65 750 c 0,6,7
 65 1078 65 1078 176 1274 c 24,8,9
 315 1520 315 1520 600 1520 c 0,10,11
 888 1520 888 1520 1024 1273 c 24,12,13
 1135 1072 1135 1072 1135 750 c 0,14,15
 1135 509 1135 509 1001 314 c 0,16,17
 977 279 977 279 949 250 c 1,18,-1
 1119 250 l 1,19,-1
 1119 0 l 1,20,-1
 645 0 l 1,21,-1
 645 276 l 1,22,23
 731 301 731 301 792 409 c 0,24,25
 865 538 865 538 865 743 c 0,26,27
 865 1014 865 1014 792 1141 c 0,28,29
 715 1277 715 1277 600 1277 c 0,30,31
 487 1277 487 1277 408 1141 c 0,32,33
 335 1015 335 1015 335 743 c 0,34,35
 335 524 335 524 407 410 c 0,36,37
 465 318 465 318 555 277 c 1,38,-1
 555 0 l 1,39,-1
 81 0 l 1,0,-1
EndSplineSet
Validated: 1
EndChar

StartChar: estimated
Encoding: 8494 8494 242
Width: 1200
GlyphClass: 2
Flags: W
HStem: -20 175<422.647 764.703> 484 170<328 873> 954 174<419.945 777.422>
VStem: 0 328<320.959 484 654 771.939>
LayerCount: 2
Fore
SplineSet
1151 359 m 1,0,1
 1054 172 1054 172 906 67 c 0,2,3
 783 -20 783 -20 600 -20 c 0,4,5
 442 -20 442 -20 297 56 c 0,6,7
 150 133 150 133 69 271 c 0,8,9
 0 389 0 389 0 556 c 0,10,11
 0 717 0 717 84 848 c 0,12,13
 159 965 159 965 299 1054 c 0,14,15
 413 1128 413 1128 601 1128 c 0,16,17
 764 1128 764 1128 900 1054 c 0,18,19
 1049 973 1049 973 1123 833 c 0,20,21
 1190 706 1190 706 1190 548 c 2,22,-1
 1190 484 l 1,23,-1
 328 484 l 1,24,-1
 328 266 l 1,25,26
 364 231 364 231 412 205 c 0,27,28
 505 155 505 155 601 155 c 0,29,30
 707 155 707 155 790 215 c 0,31,32
 855 262 855 262 905 359 c 1,33,-1
 1151 359 l 1,0,1
328 654 m 1,34,-1
 873 654 l 1,35,-1
 873 844 l 1,36,37
 835 881 835 881 788 905 c 0,38,39
 692 954 692 954 601 954 c 0,40,41
 504 954 504 954 412 906 c 0,42,43
 364 881 364 881 328 845 c 1,44,-1
 328 654 l 1,34,-1
EndSplineSet
Validated: 1
EndChar

StartChar: onethird
Encoding: 8531 8531 243
Width: 1200
GlyphClass: 2
Flags: W
HStem: -10 171<839.977 982.372> 370 147<880 945.553> 637 173<853.55 962.069> 700 175<50 162 346 458> 1480 20G<167.454 346>
VStem: 162 184<875 1271> 640 184<192.756 264> 972 180<524.64 625.403> 1000 188<182.336 345.198>
DStem2: 161 138 295 63 0.500011 0.866019<2.05005 1499.97>
LayerCount: 2
Fore
SplineSet
640 264 m 9,0,-1
 824 264 l 17,1,2
 824 216 824 216 844 192 c 0,3,4
 870 161 870 161 912 161 c 0,5,6
 958 161 958 161 980 193 c 0,7,8
 1000 221 1000 221 1000 263.5 c 128,-1,9
 1000 306 1000 306 972 340 c 0,10,11
 946 370 946 370 880 370 c 9,12,-1
 880 517 l 17,13,14
 932 517 932 517 946 527 c 0,15,16
 972 544 972 544 972 574 c 0,17,18
 972 599 972 599 956 617 c 0,19,20
 937 637 937 637 908 637 c 0,21,22
 882 637 882 637 860 619 c 0,23,24
 842 604 842 604 842 574 c 9,25,-1
 664 574 l 17,26,27
 664 676 664 676 732 743 c 128,-1,28
 800 810 800 810 906 810 c 128,-1,29
 1012 810 1012 810 1082 748 c 0,30,31
 1152 687 1152 687 1152 591.5 c 128,-1,32
 1152 496 1152 496 1070 448 c 1,33,34
 1188 383 1188 383 1188 244 c 0,35,36
 1188 146 1188 146 1114 70 c 0,37,38
 1037 -10 1037 -10 912 -10 c 128,-1,39
 787 -10 787 -10 710 75 c 0,40,41
 640 151 640 151 640 264 c 9,0,-1
911 1437 m 1,42,-1
 1045 1362 l 1,43,-1
 295 63 l 1,44,-1
 161 138 l 1,45,-1
 911 1437 l 1,42,-1
188 1500 m 1,46,-1
 346 1500 l 1,47,-1
 346 875 l 1,48,-1
 458 875 l 1,49,-1
 458 700 l 1,50,-1
 50 700 l 1,51,-1
 50 875 l 1,52,-1
 162 875 l 1,53,-1
 162 1271 l 1,54,-1
 0 1096 l 1,55,-1
 0 1317 l 1,56,-1
 188 1500 l 1,46,-1
EndSplineSet
Validated: 1
EndChar

StartChar: twothirds
Encoding: 8532 8532 244
Width: 1200
GlyphClass: 2
Flags: W
HStem: -10 171<839.977 982.372> 370 147<880 945.553> 637 173<853.55 962.069> 700 175<215 464> 1339 171<203.898 346.408>
VStem: 0 184<1236 1306.15> 360 184<1174.72 1327.36> 640 184<192.756 264> 972 180<524.64 625.403> 1000 188<182.336 345.198>
DStem2: 161 138 295 63 0.500011 0.866019<2.05005 1499.97>
LayerCount: 2
Fore
SplineSet
0 700 m 1,0,-1
 0 828 l 2,1,2
 0 940 0 940 113 1023 c 2,3,-1
 293 1156 l 2,4,5
 360 1206 360 1206 360 1248 c 0,6,7
 360 1284 360 1284 335 1311 c 0,8,9
 310 1339 310 1339 272 1339 c 128,-1,10
 234 1339 234 1339 207 1307 c 0,11,12
 184 1280 184 1280 184 1236 c 9,13,-1
 0 1236 l 17,14,15
 0 1349 0 1349 71 1425 c 0,16,17
 150 1510 150 1510 272 1510 c 0,18,19
 404 1510 404 1510 477 1431 c 0,20,21
 544 1358 544 1358 544 1260 c 0,22,23
 544 1150 544 1150 419 1046 c 2,24,-1
 218 878 l 1,25,-1
 215 875 l 1,26,-1
 464 875 l 1,27,-1
 464 700 l 1,28,-1
 0 700 l 1,0,-1
640 264 m 9,29,-1
 824 264 l 17,30,31
 824 216 824 216 844 192 c 0,32,33
 870 161 870 161 912 161 c 0,34,35
 958 161 958 161 980 193 c 0,36,37
 1000 221 1000 221 1000 263.5 c 128,-1,38
 1000 306 1000 306 972 340 c 0,39,40
 946 370 946 370 880 370 c 9,41,-1
 880 517 l 17,42,43
 932 517 932 517 946 527 c 0,44,45
 972 544 972 544 972 574 c 0,46,47
 972 599 972 599 956 617 c 0,48,49
 937 637 937 637 908 637 c 0,50,51
 882 637 882 637 860 619 c 0,52,53
 842 604 842 604 842 574 c 9,54,-1
 664 574 l 17,55,56
 664 676 664 676 732 743 c 128,-1,57
 800 810 800 810 906 810 c 128,-1,58
 1012 810 1012 810 1082 748 c 0,59,60
 1152 687 1152 687 1152 591.5 c 128,-1,61
 1152 496 1152 496 1070 448 c 1,62,63
 1188 383 1188 383 1188 244 c 0,64,65
 1188 146 1188 146 1114 70 c 0,66,67
 1037 -10 1037 -10 912 -10 c 128,-1,68
 787 -10 787 -10 710 75 c 0,69,70
 640 151 640 151 640 264 c 9,29,-1
911 1437 m 1,71,-1
 1045 1362 l 1,72,-1
 295 63 l 1,73,-1
 161 138 l 1,74,-1
 911 1437 l 1,71,-1
EndSplineSet
Validated: 1
EndChar

StartChar: uni2155
Encoding: 8533 8533 245
Width: 1200
GlyphClass: 2
Flags: W
HStem: -10 161<841.956 982.184> 394 162<880.724 980.738> 628 164<892 1134> 700 175<50 162 346 458> 1480 20G<167.454 346>
VStem: 162 184<875 1271> 646 176<184.941 260> 1006 176<177.421 369.854>
DStem2: 161 138 295 63 0.500011 0.866019<2.05005 1499.97>
LayerCount: 2
Fore
SplineSet
646 260 m 9,0,-1
 822 260 l 17,1,2
 822 214 822 214 845 184 c 0,3,4
 870 151 870 151 914 151 c 0,5,6
 955 151 955 151 980 187 c 0,7,8
 1006 224 1006 224 1006 275 c 0,9,10
 1006 328 1006 328 976 364 c 0,11,12
 950 394 950 394 912 394 c 0,13,14
 864 394 864 394 833 336 c 1,15,-1
 687 416 l 1,16,-1
 748 792 l 1,17,-1
 1134 792 l 1,18,-1
 1134 628 l 1,19,-1
 892 628 l 1,20,-1
 880 553 l 1,21,22
 894 556 894 556 917 556 c 0,23,24
 1028 556 1028 556 1106 476 c 0,25,26
 1182 396 1182 396 1182 277 c 0,27,28
 1182 166 1182 166 1115 82 c 0,29,30
 1042 -10 1042 -10 914 -10 c 0,31,32
 791 -10 791 -10 713 73 c 0,33,34
 646 147 646 147 646 260 c 9,0,-1
911 1437 m 1,35,-1
 1045 1362 l 1,36,-1
 295 63 l 1,37,-1
 161 138 l 1,38,-1
 911 1437 l 1,35,-1
188 1500 m 1,39,-1
 346 1500 l 1,40,-1
 346 875 l 1,41,-1
 458 875 l 1,42,-1
 458 700 l 1,43,-1
 50 700 l 1,44,-1
 50 875 l 1,45,-1
 162 875 l 1,46,-1
 162 1271 l 1,47,-1
 0 1096 l 1,48,-1
 0 1317 l 1,49,-1
 188 1500 l 1,39,-1
EndSplineSet
Validated: 1
EndChar

StartChar: uni2156
Encoding: 8534 8534 246
Width: 1200
GlyphClass: 2
Flags: W
HStem: -10 161<841.956 982.184> 394 162<880.724 980.738> 628 164<892 1134> 700 175<215 464> 1339 171<203.898 346.408>
VStem: 0 184<1236 1306.15> 360 184<1174.72 1327.36> 646 176<184.941 260> 1006 176<177.421 369.854>
DStem2: 161 138 295 63 0.500011 0.866019<2.05005 1499.97>
LayerCount: 2
Fore
SplineSet
0 700 m 1,0,-1
 0 828 l 2,1,2
 0 940 0 940 113 1023 c 2,3,-1
 293 1156 l 2,4,5
 360 1206 360 1206 360 1248 c 0,6,7
 360 1284 360 1284 335 1311 c 0,8,9
 310 1339 310 1339 272 1339 c 128,-1,10
 234 1339 234 1339 207 1307 c 0,11,12
 184 1280 184 1280 184 1236 c 9,13,-1
 0 1236 l 17,14,15
 0 1349 0 1349 71 1425 c 0,16,17
 150 1510 150 1510 272 1510 c 0,18,19
 404 1510 404 1510 477 1431 c 0,20,21
 544 1358 544 1358 544 1260 c 0,22,23
 544 1150 544 1150 419 1046 c 2,24,-1
 218 878 l 1,25,-1
 215 875 l 1,26,-1
 464 875 l 1,27,-1
 464 700 l 1,28,-1
 0 700 l 1,0,-1
646 260 m 9,29,-1
 822 260 l 17,30,31
 822 214 822 214 845 184 c 0,32,33
 870 151 870 151 914 151 c 0,34,35
 955 151 955 151 980 187 c 0,36,37
 1006 224 1006 224 1006 275 c 0,38,39
 1006 328 1006 328 976 364 c 0,40,41
 950 394 950 394 912 394 c 0,42,43
 864 394 864 394 833 336 c 1,44,-1
 687 416 l 1,45,-1
 748 792 l 1,46,-1
 1134 792 l 1,47,-1
 1134 628 l 1,48,-1
 892 628 l 1,49,-1
 880 553 l 1,50,51
 894 556 894 556 917 556 c 0,52,53
 1028 556 1028 556 1106 476 c 0,54,55
 1182 396 1182 396 1182 277 c 0,56,57
 1182 166 1182 166 1115 82 c 0,58,59
 1042 -10 1042 -10 914 -10 c 0,60,61
 791 -10 791 -10 713 73 c 0,62,63
 646 147 646 147 646 260 c 9,29,-1
911 1437 m 1,64,-1
 1045 1362 l 1,65,-1
 295 63 l 1,66,-1
 161 138 l 1,67,-1
 911 1437 l 1,64,-1
EndSplineSet
Validated: 1
EndChar

StartChar: uni2157
Encoding: 8535 8535 247
Width: 1200
GlyphClass: 2
Flags: W
HStem: -10 161<841.956 982.184> 394 162<880.724 980.738> 628 164<892 1134> 690 171<199.977 342.372> 1070 147<240 305.553> 1337 173<213.55 322.069>
VStem: 0 184<892.756 964> 332 180<1224.64 1325.4> 360 188<882.336 1045.2> 646 176<184.941 260> 1006 176<177.421 369.854>
DStem2: 161 138 295 63 0.500011 0.866019<2.05005 1499.97>
LayerCount: 2
Fore
SplineSet
0 964 m 9,0,-1
 184 964 l 17,1,2
 184 916 184 916 204 892 c 0,3,4
 230 861 230 861 272 861 c 0,5,6
 318 861 318 861 340 893 c 0,7,8
 360 921 360 921 360 963.5 c 128,-1,9
 360 1006 360 1006 332 1040 c 0,10,11
 306 1070 306 1070 240 1070 c 9,12,-1
 240 1217 l 17,13,14
 292 1217 292 1217 306 1227 c 0,15,16
 332 1244 332 1244 332 1274 c 0,17,18
 332 1299 332 1299 316 1317 c 0,19,20
 297 1337 297 1337 268 1337 c 0,21,22
 242 1337 242 1337 220 1319 c 0,23,24
 202 1304 202 1304 202 1274 c 9,25,-1
 24 1274 l 17,26,27
 24 1376 24 1376 92 1443 c 128,-1,28
 160 1510 160 1510 266 1510 c 128,-1,29
 372 1510 372 1510 442 1448 c 0,30,31
 512 1387 512 1387 512 1291.5 c 128,-1,32
 512 1196 512 1196 430 1148 c 1,33,34
 548 1083 548 1083 548 944 c 0,35,36
 548 846 548 846 474 770 c 0,37,38
 397 690 397 690 272 690 c 128,-1,39
 147 690 147 690 70 775 c 0,40,41
 0 851 0 851 0 964 c 9,0,-1
646 260 m 9,42,-1
 822 260 l 17,43,44
 822 214 822 214 845 184 c 0,45,46
 870 151 870 151 914 151 c 0,47,48
 955 151 955 151 980 187 c 0,49,50
 1006 224 1006 224 1006 275 c 0,51,52
 1006 328 1006 328 976 364 c 0,53,54
 950 394 950 394 912 394 c 0,55,56
 864 394 864 394 833 336 c 1,57,-1
 687 416 l 1,58,-1
 748 792 l 1,59,-1
 1134 792 l 1,60,-1
 1134 628 l 1,61,-1
 892 628 l 1,62,-1
 880 553 l 1,63,64
 894 556 894 556 917 556 c 0,65,66
 1028 556 1028 556 1106 476 c 0,67,68
 1182 396 1182 396 1182 277 c 0,69,70
 1182 166 1182 166 1115 82 c 0,71,72
 1042 -10 1042 -10 914 -10 c 0,73,74
 791 -10 791 -10 713 73 c 0,75,76
 646 147 646 147 646 260 c 9,42,-1
911 1437 m 1,77,-1
 1045 1362 l 1,78,-1
 295 63 l 1,79,-1
 161 138 l 1,80,-1
 911 1437 l 1,77,-1
EndSplineSet
Validated: 1
EndChar

StartChar: uni2158
Encoding: 8536 8536 248
Width: 1200
GlyphClass: 2
Flags: W
HStem: -10 161<861.008 1000.18> 394 162<898.724 997.598> 628 164<910 1152> 862 152<201 330> 1482 20G<207 516>
VStem: 330 186<702 862 1014 1259> 664 176<184.941 260> 1024 176<177.421 369.854>
DStem2: 199 138 333 63 0.500011 0.866019<2.05005 1499.97>
LayerCount: 2
Fore
SplineSet
201 1014 m 1,0,-1
 330 1014 l 1,1,-1
 330 1259 l 1,2,3
 239 1150 239 1150 201 1014 c 1,0,-1
330 702 m 1,4,-1
 330 862 l 1,5,-1
 0 862 l 1,6,7
 56 1218 56 1218 358 1502 c 1,8,-1
 516 1502 l 1,9,-1
 516 702 l 1,10,-1
 330 702 l 1,4,-1
664 260 m 9,11,-1
 840 260 l 17,12,13
 840 214 840 214 863 184 c 0,14,15
 888 151 888 151 932 151 c 0,16,17
 973 151 973 151 998 187 c 0,18,19
 1024 224 1024 224 1024 275 c 0,20,21
 1024 328 1024 328 994 364 c 0,22,23
 968 394 968 394 930 394 c 0,24,25
 882 394 882 394 851 336 c 1,26,-1
 705 416 l 1,27,-1
 766 792 l 1,28,-1
 1152 792 l 1,29,-1
 1152 628 l 1,30,-1
 910 628 l 1,31,-1
 898 553 l 1,32,33
 912 556 912 556 935 556 c 0,34,35
 1048 556 1048 556 1124 476 c 128,-1,36
 1200 396 1200 396 1200 277 c 0,37,38
 1200 166 1200 166 1133 82 c 0,39,40
 1060 -10 1060 -10 932 -10 c 0,41,42
 806 -10 806 -10 731 73 c 0,43,44
 664 147 664 147 664 260 c 9,11,-1
949 1437 m 1,45,-1
 1083 1362 l 1,46,-1
 333 63 l 1,47,-1
 199 138 l 1,48,-1
 949 1437 l 1,45,-1
EndSplineSet
Validated: 1
EndChar

StartChar: uni2159
Encoding: 8537 8537 249
Width: 1200
GlyphClass: 2
Flags: W
HStem: -10 160<845.866 980.217> 418 160<843.149 979.974> 641 161<832.93 980.375> 700 175<50 162 346 458> 1480 20G<167.454 346>
VStem: 162 184<875 1271> 624 196<169.249 513.547> 1004 176<167.197 398.565>
DStem2: 161 138 295 63 0.500011 0.866019<2.05005 1499.97>
LayerCount: 2
Fore
SplineSet
912 150 m 0,0,1
 954 150 954 150 978 190 c 0,2,3
 1004 232 1004 232 1004 286 c 0,4,5
 1004 341 1004 341 974 383 c 0,6,7
 948 418 948 418 912 418 c 128,-1,8
 876 418 876 418 850 383 c 0,9,10
 820 345 820 345 820 286 c 0,11,12
 820 234 820 234 846 192 c 128,-1,13
 872 150 872 150 912 150 c 0,0,1
1172 582 m 9,14,-1
 990 582 l 17,15,16
 960 641 960 641 912 641 c 0,17,18
 862 641 862 641 833 601 c 0,19,20
 808 566 808 566 804 512 c 1,21,22
 858 578 858 578 916 578 c 0,23,24
 1029 578 1029 578 1104 495 c 0,25,26
 1180 411 1180 411 1180 288 c 0,27,28
 1180 173 1180 173 1113 85 c 0,29,30
 1041 -10 1041 -10 912 -10 c 0,31,32
 755 -10 755 -10 682 124 c 0,33,34
 624 230 624 230 624 396 c 0,35,36
 624 568 624 568 682 668 c 0,37,38
 759 802 759 802 912 802 c 128,-1,39
 1065 802 1065 802 1142 661 c 0,40,41
 1161 626 1161 626 1172 582 c 9,14,-1
911 1437 m 1,42,-1
 1045 1362 l 1,43,-1
 295 63 l 1,44,-1
 161 138 l 1,45,-1
 911 1437 l 1,42,-1
188 1500 m 1,46,-1
 346 1500 l 1,47,-1
 346 875 l 1,48,-1
 458 875 l 1,49,-1
 458 700 l 1,50,-1
 50 700 l 1,51,-1
 50 875 l 1,52,-1
 162 875 l 1,53,-1
 162 1271 l 1,54,-1
 0 1096 l 1,55,-1
 0 1317 l 1,56,-1
 188 1500 l 1,46,-1
EndSplineSet
Validated: 1
EndChar

StartChar: uni215A
Encoding: 8538 8538 250
Width: 1200
GlyphClass: 2
Flags: W
HStem: -10 160<845.866 980.217> 418 160<843.149 979.974> 641 161<832.93 980.375> 698 161<215.956 356.184> 1102 162<254.724 354.738> 1336 164<266 508>
VStem: 20 176<892.941 968> 380 176<885.421 1077.85> 624 196<169.249 513.547> 1004 176<167.197 398.565>
DStem2: 161 138 295 63 0.500011 0.866019<2.05005 1499.97>
LayerCount: 2
Fore
SplineSet
20 968 m 9,0,-1
 196 968 l 17,1,2
 196 922 196 922 219 892 c 0,3,4
 244 859 244 859 288 859 c 0,5,6
 329 859 329 859 354 895 c 0,7,8
 380 932 380 932 380 983 c 0,9,10
 380 1036 380 1036 350 1072 c 0,11,12
 324 1102 324 1102 286 1102 c 0,13,14
 238 1102 238 1102 207 1044 c 1,15,-1
 61 1124 l 1,16,-1
 122 1500 l 1,17,-1
 508 1500 l 1,18,-1
 508 1336 l 1,19,-1
 266 1336 l 1,20,-1
 254 1261 l 1,21,22
 268 1264 268 1264 291 1264 c 0,23,24
 402 1264 402 1264 480 1184 c 0,25,26
 556 1104 556 1104 556 985 c 0,27,28
 556 874 556 874 489 790 c 0,29,30
 416 698 416 698 288 698 c 0,31,32
 165 698 165 698 87 781 c 0,33,34
 20 855 20 855 20 968 c 9,0,-1
912 150 m 0,35,36
 954 150 954 150 978 190 c 0,37,38
 1004 232 1004 232 1004 286 c 0,39,40
 1004 341 1004 341 974 383 c 0,41,42
 948 418 948 418 912 418 c 128,-1,43
 876 418 876 418 850 383 c 0,44,45
 820 345 820 345 820 286 c 0,46,47
 820 234 820 234 846 192 c 128,-1,48
 872 150 872 150 912 150 c 0,35,36
1172 582 m 9,49,-1
 990 582 l 17,50,51
 960 641 960 641 912 641 c 0,52,53
 862 641 862 641 833 601 c 0,54,55
 808 566 808 566 804 512 c 1,56,57
 858 578 858 578 916 578 c 0,58,59
 1029 578 1029 578 1104 495 c 0,60,61
 1180 411 1180 411 1180 288 c 0,62,63
 1180 173 1180 173 1113 85 c 0,64,65
 1041 -10 1041 -10 912 -10 c 0,66,67
 755 -10 755 -10 682 124 c 0,68,69
 624 230 624 230 624 396 c 0,70,71
 624 568 624 568 682 668 c 0,72,73
 759 802 759 802 912 802 c 128,-1,74
 1065 802 1065 802 1142 661 c 0,75,76
 1161 626 1161 626 1172 582 c 9,49,-1
911 1437 m 1,77,-1
 1045 1362 l 1,78,-1
 295 63 l 1,79,-1
 161 138 l 1,80,-1
 911 1437 l 1,77,-1
EndSplineSet
Validated: 1
EndChar

